G75*
%MOIN*%
%OFA0B0*%
%FSLAX25Y25*%
%IPPOS*%
%LPD*%
%AMOC8*
5,1,8,0,0,1.08239X$1,22.5*
%
%ADD10C,0.00600*%
%ADD11R,0.07874X0.07874*%
%ADD12R,0.00984X0.01969*%
%ADD13R,0.01969X0.00984*%
%ADD14R,0.11801X0.07876*%
%ADD15R,0.05906X0.02362*%
%ADD16R,0.07876X0.11801*%
%ADD17R,0.02362X0.05906*%
%ADD18R,0.05912X0.11814*%
%ADD19R,0.03961X0.11806*%
%ADD20R,0.02756X0.03543*%
%ADD21R,0.03543X0.02756*%
%ADD22R,0.07874X0.04724*%
%ADD23C,0.07087*%
%ADD24C,0.02978*%
%ADD25C,0.02387*%
%ADD26C,0.01200*%
%ADD27C,0.00800*%
%ADD28C,0.01000*%
%ADD29C,0.02400*%
%ADD30C,0.01600*%
D10*
X0001300Y0001300D02*
X0001300Y0198150D01*
X0207993Y0198150D01*
X0207993Y0089883D01*
X0139095Y0089883D01*
X0139095Y0001300D01*
X0001300Y0001300D01*
X0001300Y0001475D02*
X0139095Y0001475D01*
X0139095Y0002074D02*
X0001300Y0002074D01*
X0001300Y0002672D02*
X0139095Y0002672D01*
X0139095Y0003271D02*
X0001300Y0003271D01*
X0001300Y0003869D02*
X0139095Y0003869D01*
X0139095Y0004468D02*
X0001300Y0004468D01*
X0001300Y0005066D02*
X0139095Y0005066D01*
X0139095Y0005665D02*
X0001300Y0005665D01*
X0001300Y0006263D02*
X0139095Y0006263D01*
X0139095Y0006862D02*
X0001300Y0006862D01*
X0001300Y0007460D02*
X0139095Y0007460D01*
X0139095Y0008059D02*
X0001300Y0008059D01*
X0001300Y0008657D02*
X0139095Y0008657D01*
X0139095Y0009256D02*
X0001300Y0009256D01*
X0001300Y0009854D02*
X0139095Y0009854D01*
X0139095Y0010453D02*
X0001300Y0010453D01*
X0001300Y0011051D02*
X0139095Y0011051D01*
X0139095Y0011650D02*
X0001300Y0011650D01*
X0001300Y0012248D02*
X0139095Y0012248D01*
X0139095Y0012847D02*
X0001300Y0012847D01*
X0001300Y0013445D02*
X0139095Y0013445D01*
X0139095Y0014044D02*
X0001300Y0014044D01*
X0001300Y0014642D02*
X0139095Y0014642D01*
X0139095Y0015241D02*
X0001300Y0015241D01*
X0001300Y0015839D02*
X0139095Y0015839D01*
X0139095Y0016438D02*
X0001300Y0016438D01*
X0001300Y0017036D02*
X0139095Y0017036D01*
X0139095Y0017635D02*
X0001300Y0017635D01*
X0001300Y0018233D02*
X0139095Y0018233D01*
X0139095Y0018832D02*
X0001300Y0018832D01*
X0001300Y0019430D02*
X0139095Y0019430D01*
X0139095Y0020029D02*
X0001300Y0020029D01*
X0001300Y0020627D02*
X0139095Y0020627D01*
X0139095Y0021226D02*
X0001300Y0021226D01*
X0001300Y0021824D02*
X0139095Y0021824D01*
X0139095Y0022423D02*
X0001300Y0022423D01*
X0001300Y0023021D02*
X0139095Y0023021D01*
X0139095Y0023620D02*
X0001300Y0023620D01*
X0001300Y0024218D02*
X0139095Y0024218D01*
X0139095Y0024817D02*
X0001300Y0024817D01*
X0001300Y0025415D02*
X0139095Y0025415D01*
X0139095Y0026014D02*
X0001300Y0026014D01*
X0001300Y0026612D02*
X0139095Y0026612D01*
X0139095Y0027211D02*
X0001300Y0027211D01*
X0001300Y0027810D02*
X0139095Y0027810D01*
X0139095Y0028408D02*
X0001300Y0028408D01*
X0001300Y0029007D02*
X0139095Y0029007D01*
X0139095Y0029605D02*
X0001300Y0029605D01*
X0001300Y0030204D02*
X0139095Y0030204D01*
X0139095Y0030802D02*
X0001300Y0030802D01*
X0001300Y0031401D02*
X0139095Y0031401D01*
X0139095Y0031999D02*
X0001300Y0031999D01*
X0001300Y0032598D02*
X0139095Y0032598D01*
X0139095Y0033196D02*
X0001300Y0033196D01*
X0001300Y0033795D02*
X0139095Y0033795D01*
X0139095Y0034393D02*
X0001300Y0034393D01*
X0001300Y0034992D02*
X0139095Y0034992D01*
X0139095Y0035590D02*
X0001300Y0035590D01*
X0001300Y0036189D02*
X0139095Y0036189D01*
X0139095Y0036787D02*
X0001300Y0036787D01*
X0001300Y0037386D02*
X0139095Y0037386D01*
X0139095Y0037984D02*
X0001300Y0037984D01*
X0001300Y0038583D02*
X0139095Y0038583D01*
X0139095Y0039181D02*
X0001300Y0039181D01*
X0001300Y0039780D02*
X0139095Y0039780D01*
X0139095Y0040378D02*
X0001300Y0040378D01*
X0001300Y0040977D02*
X0139095Y0040977D01*
X0139095Y0041575D02*
X0001300Y0041575D01*
X0001300Y0042174D02*
X0139095Y0042174D01*
X0139095Y0042772D02*
X0001300Y0042772D01*
X0001300Y0043371D02*
X0139095Y0043371D01*
X0139095Y0043969D02*
X0001300Y0043969D01*
X0001300Y0044568D02*
X0139095Y0044568D01*
X0139095Y0045166D02*
X0001300Y0045166D01*
X0001300Y0045765D02*
X0139095Y0045765D01*
X0139095Y0046363D02*
X0001300Y0046363D01*
X0001300Y0046962D02*
X0139095Y0046962D01*
X0139095Y0047560D02*
X0001300Y0047560D01*
X0001300Y0048159D02*
X0139095Y0048159D01*
X0139095Y0048757D02*
X0001300Y0048757D01*
X0001300Y0049356D02*
X0139095Y0049356D01*
X0139095Y0049954D02*
X0001300Y0049954D01*
X0001300Y0050553D02*
X0139095Y0050553D01*
X0139095Y0051151D02*
X0001300Y0051151D01*
X0001300Y0051750D02*
X0139095Y0051750D01*
X0139095Y0052348D02*
X0001300Y0052348D01*
X0001300Y0052947D02*
X0139095Y0052947D01*
X0139095Y0053545D02*
X0001300Y0053545D01*
X0001300Y0054144D02*
X0139095Y0054144D01*
X0139095Y0054743D02*
X0001300Y0054743D01*
X0001300Y0055341D02*
X0139095Y0055341D01*
X0139095Y0055940D02*
X0001300Y0055940D01*
X0001300Y0056538D02*
X0139095Y0056538D01*
X0139095Y0057137D02*
X0001300Y0057137D01*
X0001300Y0057735D02*
X0139095Y0057735D01*
X0139095Y0058334D02*
X0001300Y0058334D01*
X0001300Y0058932D02*
X0139095Y0058932D01*
X0139095Y0059531D02*
X0001300Y0059531D01*
X0001300Y0060129D02*
X0139095Y0060129D01*
X0139095Y0060728D02*
X0001300Y0060728D01*
X0001300Y0061326D02*
X0139095Y0061326D01*
X0139095Y0061925D02*
X0001300Y0061925D01*
X0001300Y0062523D02*
X0139095Y0062523D01*
X0139095Y0063122D02*
X0001300Y0063122D01*
X0001300Y0063720D02*
X0139095Y0063720D01*
X0139095Y0064319D02*
X0001300Y0064319D01*
X0001300Y0064917D02*
X0139095Y0064917D01*
X0139095Y0065516D02*
X0001300Y0065516D01*
X0001300Y0066114D02*
X0139095Y0066114D01*
X0139095Y0066713D02*
X0001300Y0066713D01*
X0001300Y0067311D02*
X0139095Y0067311D01*
X0139095Y0067910D02*
X0001300Y0067910D01*
X0001300Y0068508D02*
X0139095Y0068508D01*
X0139095Y0069107D02*
X0001300Y0069107D01*
X0001300Y0069705D02*
X0139095Y0069705D01*
X0139095Y0070304D02*
X0001300Y0070304D01*
X0001300Y0070902D02*
X0139095Y0070902D01*
X0139095Y0071501D02*
X0001300Y0071501D01*
X0001300Y0072099D02*
X0139095Y0072099D01*
X0139095Y0072698D02*
X0001300Y0072698D01*
X0001300Y0073296D02*
X0139095Y0073296D01*
X0139095Y0073895D02*
X0001300Y0073895D01*
X0001300Y0074493D02*
X0139095Y0074493D01*
X0139095Y0075092D02*
X0001300Y0075092D01*
X0001300Y0075690D02*
X0139095Y0075690D01*
X0139095Y0076289D02*
X0001300Y0076289D01*
X0001300Y0076887D02*
X0139095Y0076887D01*
X0139095Y0077486D02*
X0001300Y0077486D01*
X0001300Y0078084D02*
X0139095Y0078084D01*
X0139095Y0078683D02*
X0001300Y0078683D01*
X0001300Y0079281D02*
X0139095Y0079281D01*
X0139095Y0079880D02*
X0001300Y0079880D01*
X0001300Y0080479D02*
X0139095Y0080479D01*
X0139095Y0081077D02*
X0001300Y0081077D01*
X0001300Y0081676D02*
X0139095Y0081676D01*
X0139095Y0082274D02*
X0001300Y0082274D01*
X0001300Y0082873D02*
X0139095Y0082873D01*
X0139095Y0083471D02*
X0001300Y0083471D01*
X0001300Y0084070D02*
X0139095Y0084070D01*
X0139095Y0084668D02*
X0001300Y0084668D01*
X0001300Y0085267D02*
X0139095Y0085267D01*
X0139095Y0085865D02*
X0001300Y0085865D01*
X0001300Y0086464D02*
X0139095Y0086464D01*
X0139095Y0087062D02*
X0001300Y0087062D01*
X0001300Y0087661D02*
X0139095Y0087661D01*
X0139095Y0088259D02*
X0001300Y0088259D01*
X0001300Y0088858D02*
X0139095Y0088858D01*
X0139095Y0089456D02*
X0001300Y0089456D01*
X0001300Y0090055D02*
X0207993Y0090055D01*
X0207993Y0090653D02*
X0001300Y0090653D01*
X0001300Y0091252D02*
X0207993Y0091252D01*
X0207993Y0091850D02*
X0001300Y0091850D01*
X0001300Y0092449D02*
X0207993Y0092449D01*
X0207993Y0093047D02*
X0001300Y0093047D01*
X0001300Y0093646D02*
X0207993Y0093646D01*
X0207993Y0094244D02*
X0001300Y0094244D01*
X0001300Y0094843D02*
X0207993Y0094843D01*
X0207993Y0095441D02*
X0001300Y0095441D01*
X0001300Y0096040D02*
X0207993Y0096040D01*
X0207993Y0096638D02*
X0001300Y0096638D01*
X0001300Y0097237D02*
X0207993Y0097237D01*
X0207993Y0097835D02*
X0001300Y0097835D01*
X0001300Y0098434D02*
X0207993Y0098434D01*
X0207993Y0099032D02*
X0001300Y0099032D01*
X0001300Y0099631D02*
X0207993Y0099631D01*
X0207993Y0100229D02*
X0001300Y0100229D01*
X0001300Y0100828D02*
X0207993Y0100828D01*
X0207993Y0101426D02*
X0001300Y0101426D01*
X0001300Y0102025D02*
X0133802Y0102025D01*
X0133869Y0101958D02*
X0140526Y0101958D01*
X0141054Y0102485D01*
X0141054Y0115044D01*
X0140526Y0115571D01*
X0133869Y0115571D01*
X0133342Y0115044D01*
X0133342Y0102485D01*
X0133869Y0101958D01*
X0133342Y0102623D02*
X0001300Y0102623D01*
X0001300Y0103222D02*
X0133342Y0103222D01*
X0133342Y0103820D02*
X0001300Y0103820D01*
X0001300Y0104419D02*
X0133342Y0104419D01*
X0133342Y0105017D02*
X0001300Y0105017D01*
X0001300Y0105616D02*
X0133342Y0105616D01*
X0133342Y0106214D02*
X0001300Y0106214D01*
X0001300Y0106813D02*
X0133342Y0106813D01*
X0133342Y0107412D02*
X0001300Y0107412D01*
X0001300Y0108010D02*
X0133342Y0108010D01*
X0133342Y0108609D02*
X0001300Y0108609D01*
X0001300Y0109207D02*
X0133342Y0109207D01*
X0133342Y0109806D02*
X0001300Y0109806D01*
X0001300Y0110404D02*
X0133342Y0110404D01*
X0133342Y0111003D02*
X0001300Y0111003D01*
X0001300Y0111601D02*
X0133342Y0111601D01*
X0133342Y0112200D02*
X0001300Y0112200D01*
X0001300Y0112798D02*
X0133342Y0112798D01*
X0133342Y0113397D02*
X0001300Y0113397D01*
X0001300Y0113995D02*
X0133342Y0113995D01*
X0133342Y0114594D02*
X0001300Y0114594D01*
X0001300Y0115192D02*
X0133490Y0115192D01*
X0140906Y0115192D02*
X0160248Y0115192D01*
X0160102Y0115046D02*
X0160102Y0102487D01*
X0160629Y0101960D01*
X0167287Y0101960D01*
X0167814Y0102487D01*
X0167814Y0115046D01*
X0167287Y0115574D01*
X0160629Y0115574D01*
X0160102Y0115046D01*
X0160102Y0114594D02*
X0141054Y0114594D01*
X0141054Y0113995D02*
X0160102Y0113995D01*
X0160102Y0113397D02*
X0141054Y0113397D01*
X0141054Y0112798D02*
X0160102Y0112798D01*
X0160102Y0112200D02*
X0141054Y0112200D01*
X0141054Y0111601D02*
X0160102Y0111601D01*
X0160102Y0111003D02*
X0141054Y0111003D01*
X0141054Y0110404D02*
X0160102Y0110404D01*
X0160102Y0109806D02*
X0141054Y0109806D01*
X0141054Y0109207D02*
X0160102Y0109207D01*
X0160102Y0108609D02*
X0141054Y0108609D01*
X0141054Y0108010D02*
X0160102Y0108010D01*
X0160102Y0107412D02*
X0141054Y0107412D01*
X0141054Y0106813D02*
X0160102Y0106813D01*
X0160102Y0106214D02*
X0141054Y0106214D01*
X0141054Y0105616D02*
X0160102Y0105616D01*
X0160102Y0105017D02*
X0141054Y0105017D01*
X0141054Y0104419D02*
X0160102Y0104419D01*
X0160102Y0103820D02*
X0141054Y0103820D01*
X0141054Y0103222D02*
X0160102Y0103222D01*
X0160102Y0102623D02*
X0141054Y0102623D01*
X0140594Y0102025D02*
X0160564Y0102025D01*
X0167352Y0102025D02*
X0207993Y0102025D01*
X0207993Y0102623D02*
X0167814Y0102623D01*
X0167814Y0103222D02*
X0207993Y0103222D01*
X0207993Y0103820D02*
X0167814Y0103820D01*
X0167814Y0104419D02*
X0207993Y0104419D01*
X0207993Y0105017D02*
X0167814Y0105017D01*
X0167814Y0105616D02*
X0207993Y0105616D01*
X0207993Y0106214D02*
X0167814Y0106214D01*
X0167814Y0106813D02*
X0207993Y0106813D01*
X0207993Y0107412D02*
X0167814Y0107412D01*
X0167814Y0108010D02*
X0207993Y0108010D01*
X0207993Y0108609D02*
X0167814Y0108609D01*
X0167814Y0109207D02*
X0207993Y0109207D01*
X0207993Y0109806D02*
X0167814Y0109806D01*
X0167814Y0110404D02*
X0207993Y0110404D01*
X0207993Y0111003D02*
X0167814Y0111003D01*
X0167814Y0111601D02*
X0207993Y0111601D01*
X0207993Y0112200D02*
X0167814Y0112200D01*
X0167814Y0112798D02*
X0207993Y0112798D01*
X0207993Y0113397D02*
X0167814Y0113397D01*
X0167814Y0113995D02*
X0207993Y0113995D01*
X0207993Y0114594D02*
X0167814Y0114594D01*
X0167668Y0115192D02*
X0207993Y0115192D01*
X0207993Y0115791D02*
X0001300Y0115791D01*
X0001300Y0116389D02*
X0207993Y0116389D01*
X0207993Y0116988D02*
X0001300Y0116988D01*
X0001300Y0117586D02*
X0016954Y0117586D01*
X0016938Y0117602D02*
X0017465Y0117075D01*
X0030012Y0117075D01*
X0030539Y0117602D01*
X0030539Y0126224D01*
X0030012Y0126751D01*
X0017465Y0126751D01*
X0016938Y0126224D01*
X0016938Y0117602D01*
X0016938Y0118185D02*
X0001300Y0118185D01*
X0001300Y0118783D02*
X0016938Y0118783D01*
X0016938Y0119382D02*
X0001300Y0119382D01*
X0001300Y0119980D02*
X0016938Y0119980D01*
X0016938Y0120579D02*
X0001300Y0120579D01*
X0001300Y0121177D02*
X0016938Y0121177D01*
X0016938Y0121776D02*
X0001300Y0121776D01*
X0001300Y0122374D02*
X0016938Y0122374D01*
X0016938Y0122973D02*
X0001300Y0122973D01*
X0001300Y0123571D02*
X0016938Y0123571D01*
X0016938Y0124170D02*
X0001300Y0124170D01*
X0001300Y0124768D02*
X0016938Y0124768D01*
X0016938Y0125367D02*
X0001300Y0125367D01*
X0001300Y0125965D02*
X0016938Y0125965D01*
X0017277Y0126564D02*
X0001300Y0126564D01*
X0001300Y0127162D02*
X0033357Y0127162D01*
X0033357Y0126564D02*
X0030199Y0126564D01*
X0030539Y0125965D02*
X0033357Y0125965D01*
X0033357Y0125367D02*
X0030539Y0125367D01*
X0030539Y0124768D02*
X0033357Y0124768D01*
X0033357Y0124699D02*
X0033884Y0124172D01*
X0036057Y0124172D01*
X0036599Y0123644D01*
X0037205Y0123039D01*
X0037221Y0123039D01*
X0037232Y0123027D01*
X0038088Y0123039D01*
X0069064Y0123039D01*
X0070294Y0124269D01*
X0070294Y0129056D01*
X0070312Y0129074D01*
X0070312Y0131466D01*
X0073063Y0134067D01*
X0073063Y0125165D01*
X0075264Y0122963D01*
X0076025Y0122202D01*
X0152306Y0122202D01*
X0155639Y0125535D01*
X0156894Y0125535D01*
X0157421Y0126062D01*
X0157421Y0138614D01*
X0156894Y0139141D01*
X0152187Y0139141D01*
X0151660Y0138614D01*
X0151660Y0126062D01*
X0152074Y0125647D01*
X0151229Y0124802D01*
X0141984Y0124802D01*
X0143817Y0126635D01*
X0143817Y0126054D01*
X0144344Y0125527D01*
X0149051Y0125527D01*
X0149578Y0126054D01*
X0149578Y0138606D01*
X0149051Y0139133D01*
X0144344Y0139133D01*
X0143817Y0138606D01*
X0143817Y0130312D01*
X0140458Y0126953D01*
X0096870Y0126953D01*
X0099114Y0129213D01*
X0099950Y0129213D01*
X0099951Y0129215D01*
X0117595Y0129190D01*
X0117596Y0129189D01*
X0118467Y0129189D01*
X0119333Y0129188D01*
X0119334Y0129189D01*
X0119335Y0129189D01*
X0119951Y0129804D01*
X0120564Y0130416D01*
X0120564Y0130418D01*
X0130409Y0140262D01*
X0165887Y0140262D01*
X0170058Y0144433D01*
X0186001Y0144433D01*
X0192533Y0137902D01*
X0192346Y0137451D01*
X0192346Y0135683D01*
X0193022Y0134050D01*
X0194272Y0132800D01*
X0195905Y0132124D01*
X0197673Y0132124D01*
X0199306Y0132800D01*
X0200556Y0134050D01*
X0201233Y0135683D01*
X0201233Y0137451D01*
X0200556Y0139084D01*
X0199306Y0140334D01*
X0197673Y0141010D01*
X0195905Y0141010D01*
X0195523Y0140852D01*
X0187741Y0148633D01*
X0173385Y0148633D01*
X0173265Y0148753D01*
X0166614Y0148753D01*
X0166086Y0148226D01*
X0166086Y0146401D01*
X0164147Y0144462D01*
X0143103Y0144462D01*
X0143103Y0145944D01*
X0146473Y0145944D01*
X0147000Y0146472D01*
X0147000Y0151942D01*
X0146473Y0152469D01*
X0137853Y0152469D01*
X0137326Y0151942D01*
X0137326Y0146472D01*
X0137853Y0145944D01*
X0138903Y0145944D01*
X0138903Y0144462D01*
X0128669Y0144462D01*
X0127439Y0143232D01*
X0125021Y0140815D01*
X0113608Y0152228D01*
X0112612Y0153224D01*
X0094648Y0153224D01*
X0094648Y0153393D01*
X0094121Y0153920D01*
X0089832Y0153920D01*
X0089305Y0153393D01*
X0089305Y0152479D01*
X0088682Y0152479D01*
X0087920Y0151717D01*
X0085963Y0149760D01*
X0085963Y0149623D01*
X0085892Y0149694D01*
X0085372Y0149694D01*
X0085372Y0151677D01*
X0089101Y0155407D01*
X0089305Y0155407D01*
X0089305Y0155010D01*
X0089832Y0154482D01*
X0094121Y0154482D01*
X0094648Y0155010D01*
X0094648Y0155407D01*
X0095157Y0155407D01*
X0095157Y0155273D01*
X0095684Y0154746D01*
X0099185Y0154746D01*
X0099713Y0155273D01*
X0099713Y0159562D01*
X0099185Y0160089D01*
X0095684Y0160089D01*
X0095157Y0159562D01*
X0095157Y0158007D01*
X0094648Y0158007D01*
X0094648Y0158511D01*
X0094121Y0159038D01*
X0089832Y0159038D01*
X0089305Y0158511D01*
X0089305Y0158007D01*
X0088024Y0158007D01*
X0087263Y0157245D01*
X0082772Y0152754D01*
X0082772Y0149288D01*
X0082651Y0149167D01*
X0082651Y0147437D01*
X0082770Y0147317D01*
X0082651Y0147198D01*
X0082651Y0145468D01*
X0082770Y0145349D01*
X0082651Y0145230D01*
X0082651Y0143500D01*
X0082770Y0143380D01*
X0082651Y0143261D01*
X0082651Y0141531D01*
X0082770Y0141412D01*
X0082651Y0141293D01*
X0082651Y0139563D01*
X0083178Y0139036D01*
X0084589Y0139036D01*
X0087421Y0136203D01*
X0087421Y0135134D01*
X0088648Y0133908D01*
X0090382Y0133908D01*
X0091122Y0134648D01*
X0091613Y0134648D01*
X0091613Y0134388D01*
X0092140Y0133861D01*
X0095642Y0133861D01*
X0096169Y0134388D01*
X0096169Y0138677D01*
X0096032Y0138814D01*
X0096169Y0138951D01*
X0096169Y0143240D01*
X0096129Y0143279D01*
X0096169Y0143319D01*
X0096169Y0147608D01*
X0095642Y0148135D01*
X0092140Y0148135D01*
X0091613Y0147608D01*
X0091613Y0145668D01*
X0087157Y0145668D01*
X0087801Y0146313D01*
X0088563Y0147074D01*
X0088563Y0148683D01*
X0089538Y0149658D01*
X0089832Y0149364D01*
X0094121Y0149364D01*
X0094580Y0149824D01*
X0111204Y0149824D01*
X0122617Y0138410D01*
X0117597Y0133390D01*
X0100853Y0133413D01*
X0100853Y0133955D01*
X0101287Y0134388D01*
X0101287Y0138677D01*
X0101150Y0138814D01*
X0101287Y0138951D01*
X0101287Y0143240D01*
X0101247Y0143279D01*
X0101287Y0143319D01*
X0101287Y0143960D01*
X0103326Y0143960D01*
X0104436Y0145071D01*
X0104436Y0146313D01*
X0103558Y0147192D01*
X0102315Y0147192D01*
X0102083Y0146960D01*
X0101287Y0146960D01*
X0101287Y0147608D01*
X0100760Y0148135D01*
X0097258Y0148135D01*
X0096731Y0147608D01*
X0096731Y0143319D01*
X0096771Y0143279D01*
X0096731Y0143240D01*
X0096731Y0138951D01*
X0096868Y0138814D01*
X0096731Y0138677D01*
X0096731Y0134388D01*
X0097258Y0133861D01*
X0097453Y0133861D01*
X0097453Y0132638D01*
X0096989Y0132174D01*
X0096989Y0131046D01*
X0094496Y0128536D01*
X0085968Y0128536D01*
X0085958Y0128546D01*
X0086465Y0128546D01*
X0086992Y0129074D01*
X0086992Y0133362D01*
X0086465Y0133890D01*
X0083967Y0133890D01*
X0081665Y0136191D01*
X0081665Y0137351D01*
X0081138Y0137878D01*
X0079408Y0137878D01*
X0079289Y0137759D01*
X0079170Y0137878D01*
X0077440Y0137878D01*
X0077321Y0137759D01*
X0077201Y0137878D01*
X0075471Y0137878D01*
X0075352Y0137759D01*
X0075233Y0137878D01*
X0073503Y0137878D01*
X0073384Y0137759D01*
X0073264Y0137878D01*
X0071534Y0137878D01*
X0071007Y0137351D01*
X0071007Y0136252D01*
X0068508Y0133890D01*
X0066283Y0133890D01*
X0065756Y0133362D01*
X0065756Y0129074D01*
X0066094Y0128735D01*
X0066094Y0127239D01*
X0038928Y0127239D01*
X0038700Y0127461D01*
X0038700Y0128201D01*
X0038173Y0128728D01*
X0037400Y0128728D01*
X0037109Y0129011D01*
X0035370Y0128988D01*
X0035116Y0128728D01*
X0033884Y0128728D01*
X0033357Y0128201D01*
X0033357Y0124699D01*
X0036060Y0124170D02*
X0030539Y0124170D01*
X0030539Y0123571D02*
X0036672Y0123571D01*
X0030539Y0122973D02*
X0075255Y0122973D01*
X0075853Y0122374D02*
X0030539Y0122374D01*
X0030539Y0121776D02*
X0207993Y0121776D01*
X0207993Y0122374D02*
X0152478Y0122374D01*
X0153077Y0122973D02*
X0207993Y0122973D01*
X0207993Y0123571D02*
X0153675Y0123571D01*
X0154274Y0124170D02*
X0207993Y0124170D01*
X0207993Y0124768D02*
X0154872Y0124768D01*
X0155471Y0125367D02*
X0207993Y0125367D01*
X0207993Y0125965D02*
X0157325Y0125965D01*
X0157421Y0126564D02*
X0207993Y0126564D01*
X0207993Y0127162D02*
X0157421Y0127162D01*
X0157421Y0127761D02*
X0207993Y0127761D01*
X0207993Y0128359D02*
X0157421Y0128359D01*
X0157421Y0128958D02*
X0207993Y0128958D01*
X0207993Y0129556D02*
X0157421Y0129556D01*
X0157421Y0130155D02*
X0207993Y0130155D01*
X0207993Y0130753D02*
X0157421Y0130753D01*
X0157421Y0131352D02*
X0207993Y0131352D01*
X0207993Y0131950D02*
X0189105Y0131950D01*
X0188929Y0131774D02*
X0189457Y0132302D01*
X0189457Y0140923D01*
X0188929Y0141451D01*
X0176383Y0141451D01*
X0175855Y0140923D01*
X0175855Y0132302D01*
X0176383Y0131774D01*
X0188929Y0131774D01*
X0189457Y0132549D02*
X0194878Y0132549D01*
X0193925Y0133148D02*
X0189457Y0133148D01*
X0189457Y0133746D02*
X0193326Y0133746D01*
X0192900Y0134345D02*
X0189457Y0134345D01*
X0189457Y0134943D02*
X0192652Y0134943D01*
X0192405Y0135542D02*
X0189457Y0135542D01*
X0189457Y0136140D02*
X0192346Y0136140D01*
X0192346Y0136739D02*
X0189457Y0136739D01*
X0189457Y0137337D02*
X0192346Y0137337D01*
X0192499Y0137936D02*
X0189457Y0137936D01*
X0189457Y0138534D02*
X0191901Y0138534D01*
X0191302Y0139133D02*
X0189457Y0139133D01*
X0189457Y0139731D02*
X0190704Y0139731D01*
X0190105Y0140330D02*
X0189457Y0140330D01*
X0189452Y0140928D02*
X0189507Y0140928D01*
X0188908Y0141527D02*
X0167152Y0141527D01*
X0167750Y0142125D02*
X0188310Y0142125D01*
X0187711Y0142724D02*
X0168349Y0142724D01*
X0168947Y0143322D02*
X0187113Y0143322D01*
X0186514Y0143921D02*
X0169546Y0143921D01*
X0166553Y0140928D02*
X0175860Y0140928D01*
X0175855Y0140330D02*
X0165955Y0140330D01*
X0164204Y0144519D02*
X0143103Y0144519D01*
X0143103Y0145118D02*
X0164803Y0145118D01*
X0165402Y0145716D02*
X0143103Y0145716D01*
X0146843Y0146315D02*
X0148506Y0146315D01*
X0148350Y0146472D02*
X0148877Y0145944D01*
X0157496Y0145944D01*
X0158024Y0146472D01*
X0158024Y0146825D01*
X0159715Y0146825D01*
X0160945Y0148055D01*
X0162440Y0149550D01*
X0190673Y0149550D01*
X0192517Y0147707D01*
X0192346Y0147293D01*
X0192346Y0145526D01*
X0193022Y0143892D01*
X0194272Y0142643D01*
X0195905Y0141966D01*
X0197673Y0141966D01*
X0199306Y0142643D01*
X0200556Y0143892D01*
X0201233Y0145526D01*
X0201233Y0147293D01*
X0200556Y0148926D01*
X0199306Y0150176D01*
X0197673Y0150853D01*
X0195905Y0150853D01*
X0195485Y0150679D01*
X0193643Y0152520D01*
X0192413Y0153750D01*
X0173268Y0153750D01*
X0173265Y0153753D01*
X0166614Y0153753D01*
X0166611Y0153750D01*
X0160700Y0153750D01*
X0158024Y0151073D01*
X0158024Y0151942D01*
X0157496Y0152469D01*
X0148877Y0152469D01*
X0148350Y0151942D01*
X0148350Y0146472D01*
X0148350Y0146913D02*
X0147000Y0146913D01*
X0147000Y0147512D02*
X0148350Y0147512D01*
X0148350Y0148110D02*
X0147000Y0148110D01*
X0147000Y0148709D02*
X0148350Y0148709D01*
X0148350Y0149307D02*
X0147000Y0149307D01*
X0147000Y0149906D02*
X0148350Y0149906D01*
X0148350Y0150504D02*
X0147000Y0150504D01*
X0147000Y0151103D02*
X0148350Y0151103D01*
X0148350Y0151701D02*
X0147000Y0151701D01*
X0146642Y0152300D02*
X0148708Y0152300D01*
X0148551Y0154371D02*
X0152052Y0154371D01*
X0152580Y0154898D01*
X0152580Y0159187D01*
X0152188Y0159578D01*
X0152580Y0159970D01*
X0152580Y0164258D01*
X0152052Y0164786D01*
X0148551Y0164786D01*
X0148024Y0164258D01*
X0148024Y0163582D01*
X0134814Y0163582D01*
X0124541Y0153309D01*
X0123605Y0153309D01*
X0122378Y0152082D01*
X0122378Y0150348D01*
X0123605Y0149121D01*
X0125339Y0149121D01*
X0126566Y0150348D01*
X0126566Y0151091D01*
X0136057Y0160582D01*
X0148024Y0160582D01*
X0148024Y0159970D01*
X0148415Y0159578D01*
X0148024Y0159187D01*
X0148024Y0158581D01*
X0137216Y0158581D01*
X0128193Y0149558D01*
X0127449Y0149558D01*
X0126223Y0148331D01*
X0126223Y0146597D01*
X0127449Y0145371D01*
X0129184Y0145371D01*
X0130410Y0146597D01*
X0130410Y0147533D01*
X0138459Y0155581D01*
X0148024Y0155581D01*
X0148024Y0154898D01*
X0148551Y0154371D01*
X0148228Y0154694D02*
X0137571Y0154694D01*
X0136973Y0154095D02*
X0192873Y0154095D01*
X0193022Y0153735D02*
X0194272Y0152485D01*
X0195905Y0151809D01*
X0197673Y0151809D01*
X0199306Y0152485D01*
X0200556Y0153735D01*
X0201233Y0155368D01*
X0201233Y0157136D01*
X0200556Y0158769D01*
X0199306Y0160019D01*
X0197673Y0160695D01*
X0195905Y0160695D01*
X0194272Y0160019D01*
X0193022Y0158769D01*
X0192704Y0158000D01*
X0173792Y0158000D01*
X0173792Y0158226D01*
X0173265Y0158753D01*
X0166614Y0158753D01*
X0166086Y0158226D01*
X0166086Y0158000D01*
X0157698Y0158000D01*
X0157698Y0159187D01*
X0157306Y0159578D01*
X0157698Y0159970D01*
X0157698Y0160490D01*
X0166086Y0160490D01*
X0166086Y0160118D01*
X0166614Y0159591D01*
X0173265Y0159591D01*
X0173792Y0160118D01*
X0173792Y0160490D01*
X0193521Y0160490D01*
X0195041Y0162009D01*
X0195905Y0161651D01*
X0197673Y0161651D01*
X0199306Y0162328D01*
X0200556Y0163578D01*
X0201233Y0165211D01*
X0201233Y0166978D01*
X0200556Y0168611D01*
X0199306Y0169861D01*
X0197673Y0170538D01*
X0195905Y0170538D01*
X0194272Y0169861D01*
X0193022Y0168611D01*
X0192346Y0166978D01*
X0192346Y0165211D01*
X0192913Y0163842D01*
X0192361Y0163290D01*
X0173729Y0163290D01*
X0173265Y0163753D01*
X0166614Y0163753D01*
X0166150Y0163290D01*
X0157698Y0163290D01*
X0157698Y0164258D01*
X0157171Y0164786D01*
X0153669Y0164786D01*
X0153142Y0164258D01*
X0153142Y0159970D01*
X0153533Y0159578D01*
X0153142Y0159187D01*
X0153142Y0154898D01*
X0153669Y0154371D01*
X0157171Y0154371D01*
X0157698Y0154898D01*
X0157698Y0155200D01*
X0166086Y0155200D01*
X0166086Y0155118D01*
X0166614Y0154591D01*
X0173265Y0154591D01*
X0173792Y0155118D01*
X0173792Y0155200D01*
X0192415Y0155200D01*
X0193022Y0153735D01*
X0193261Y0153497D02*
X0192666Y0153497D01*
X0193265Y0152898D02*
X0193859Y0152898D01*
X0193863Y0152300D02*
X0194719Y0152300D01*
X0194462Y0151701D02*
X0207993Y0151701D01*
X0207993Y0151103D02*
X0195061Y0151103D01*
X0198514Y0150504D02*
X0207993Y0150504D01*
X0207993Y0149906D02*
X0199577Y0149906D01*
X0200175Y0149307D02*
X0207993Y0149307D01*
X0207993Y0148709D02*
X0200646Y0148709D01*
X0200894Y0148110D02*
X0207993Y0148110D01*
X0207993Y0147512D02*
X0201142Y0147512D01*
X0201233Y0146913D02*
X0207993Y0146913D01*
X0207993Y0146315D02*
X0201233Y0146315D01*
X0201233Y0145716D02*
X0207993Y0145716D01*
X0207993Y0145118D02*
X0201064Y0145118D01*
X0200816Y0144519D02*
X0207993Y0144519D01*
X0207993Y0143921D02*
X0200568Y0143921D01*
X0199986Y0143322D02*
X0207993Y0143322D01*
X0207993Y0142724D02*
X0199387Y0142724D01*
X0198057Y0142125D02*
X0207993Y0142125D01*
X0207993Y0141527D02*
X0194848Y0141527D01*
X0194249Y0142125D02*
X0195521Y0142125D01*
X0195446Y0140928D02*
X0195707Y0140928D01*
X0197871Y0140928D02*
X0207993Y0140928D01*
X0207993Y0140330D02*
X0199310Y0140330D01*
X0199909Y0139731D02*
X0207993Y0139731D01*
X0207993Y0139133D02*
X0200507Y0139133D01*
X0200784Y0138534D02*
X0207993Y0138534D01*
X0207993Y0137936D02*
X0201032Y0137936D01*
X0201233Y0137337D02*
X0207993Y0137337D01*
X0207993Y0136739D02*
X0201233Y0136739D01*
X0201233Y0136140D02*
X0207993Y0136140D01*
X0207993Y0135542D02*
X0201174Y0135542D01*
X0200926Y0134943D02*
X0207993Y0134943D01*
X0207993Y0134345D02*
X0200678Y0134345D01*
X0200252Y0133746D02*
X0207993Y0133746D01*
X0207993Y0133148D02*
X0199654Y0133148D01*
X0198700Y0132549D02*
X0207993Y0132549D01*
X0194191Y0142724D02*
X0193651Y0142724D01*
X0193593Y0143322D02*
X0193052Y0143322D01*
X0193011Y0143921D02*
X0192454Y0143921D01*
X0192763Y0144519D02*
X0191855Y0144519D01*
X0191257Y0145118D02*
X0192515Y0145118D01*
X0192346Y0145716D02*
X0190658Y0145716D01*
X0190060Y0146315D02*
X0192346Y0146315D01*
X0192346Y0146913D02*
X0189461Y0146913D01*
X0188863Y0147512D02*
X0192436Y0147512D01*
X0192113Y0148110D02*
X0188264Y0148110D01*
X0190916Y0149307D02*
X0162197Y0149307D01*
X0161599Y0148709D02*
X0166569Y0148709D01*
X0166086Y0148110D02*
X0161000Y0148110D01*
X0160402Y0147512D02*
X0166086Y0147512D01*
X0166086Y0146913D02*
X0159803Y0146913D01*
X0157867Y0146315D02*
X0166000Y0146315D01*
X0173309Y0148709D02*
X0191515Y0148709D01*
X0198859Y0152300D02*
X0207993Y0152300D01*
X0207993Y0152898D02*
X0199719Y0152898D01*
X0200318Y0153497D02*
X0207993Y0153497D01*
X0207993Y0154095D02*
X0200705Y0154095D01*
X0200953Y0154694D02*
X0207993Y0154694D01*
X0207993Y0155292D02*
X0201201Y0155292D01*
X0201233Y0155891D02*
X0207993Y0155891D01*
X0207993Y0156489D02*
X0201233Y0156489D01*
X0201233Y0157088D02*
X0207993Y0157088D01*
X0207993Y0157686D02*
X0201004Y0157686D01*
X0200757Y0158285D02*
X0207993Y0158285D01*
X0207993Y0158883D02*
X0200441Y0158883D01*
X0199843Y0159482D02*
X0207993Y0159482D01*
X0207993Y0160081D02*
X0199157Y0160081D01*
X0197712Y0160679D02*
X0207993Y0160679D01*
X0207993Y0161278D02*
X0194309Y0161278D01*
X0194907Y0161876D02*
X0195362Y0161876D01*
X0195866Y0160679D02*
X0193710Y0160679D01*
X0194421Y0160081D02*
X0173754Y0160081D01*
X0173733Y0158285D02*
X0192822Y0158285D01*
X0193137Y0158883D02*
X0157698Y0158883D01*
X0157698Y0158285D02*
X0166145Y0158285D01*
X0166124Y0160081D02*
X0157698Y0160081D01*
X0157403Y0159482D02*
X0193736Y0159482D01*
X0192625Y0154694D02*
X0173367Y0154694D01*
X0166511Y0154694D02*
X0157494Y0154694D01*
X0157665Y0152300D02*
X0159250Y0152300D01*
X0159848Y0152898D02*
X0135776Y0152898D01*
X0135177Y0152300D02*
X0137684Y0152300D01*
X0137326Y0151701D02*
X0134579Y0151701D01*
X0133980Y0151103D02*
X0137326Y0151103D01*
X0137326Y0150504D02*
X0133382Y0150504D01*
X0132783Y0149906D02*
X0137326Y0149906D01*
X0137326Y0149307D02*
X0132185Y0149307D01*
X0131586Y0148709D02*
X0137326Y0148709D01*
X0137326Y0148110D02*
X0130988Y0148110D01*
X0130410Y0147512D02*
X0137326Y0147512D01*
X0137326Y0146913D02*
X0130410Y0146913D01*
X0130128Y0146315D02*
X0137483Y0146315D01*
X0138903Y0145716D02*
X0129529Y0145716D01*
X0128128Y0143921D02*
X0121915Y0143921D01*
X0121317Y0144519D02*
X0138903Y0144519D01*
X0138903Y0145118D02*
X0120718Y0145118D01*
X0120120Y0145716D02*
X0127104Y0145716D01*
X0126505Y0146315D02*
X0119521Y0146315D01*
X0118923Y0146913D02*
X0126223Y0146913D01*
X0126223Y0147512D02*
X0118324Y0147512D01*
X0117726Y0148110D02*
X0126223Y0148110D01*
X0126600Y0148709D02*
X0117127Y0148709D01*
X0116529Y0149307D02*
X0123419Y0149307D01*
X0122820Y0149906D02*
X0115930Y0149906D01*
X0115332Y0150504D02*
X0122378Y0150504D01*
X0122378Y0151103D02*
X0114733Y0151103D01*
X0114135Y0151701D02*
X0122378Y0151701D01*
X0122596Y0152300D02*
X0113536Y0152300D01*
X0112938Y0152898D02*
X0123195Y0152898D01*
X0124729Y0153497D02*
X0094544Y0153497D01*
X0094332Y0154694D02*
X0125926Y0154694D01*
X0126525Y0155292D02*
X0104831Y0155292D01*
X0104831Y0155273D02*
X0104831Y0157949D01*
X0112100Y0165218D01*
X0166086Y0165218D01*
X0166086Y0165118D01*
X0166614Y0164591D01*
X0173265Y0164591D01*
X0173792Y0165118D01*
X0173792Y0165218D01*
X0187835Y0165218D01*
X0194636Y0172020D01*
X0195905Y0171494D01*
X0197673Y0171494D01*
X0199306Y0172170D01*
X0200556Y0173420D01*
X0201233Y0175053D01*
X0201233Y0176821D01*
X0200556Y0178454D01*
X0199306Y0179704D01*
X0197673Y0180380D01*
X0195905Y0180380D01*
X0194272Y0179704D01*
X0193022Y0178454D01*
X0192346Y0176821D01*
X0192346Y0175053D01*
X0192745Y0174089D01*
X0186675Y0168018D01*
X0173792Y0168018D01*
X0173792Y0168226D01*
X0173265Y0168753D01*
X0166614Y0168753D01*
X0166086Y0168226D01*
X0166086Y0168018D01*
X0110941Y0168018D01*
X0110121Y0167198D01*
X0103012Y0160089D01*
X0100802Y0160089D01*
X0100275Y0159562D01*
X0100275Y0155273D01*
X0100802Y0154746D01*
X0104303Y0154746D01*
X0104831Y0155273D01*
X0104831Y0155891D02*
X0127123Y0155891D01*
X0127722Y0156489D02*
X0104831Y0156489D01*
X0104831Y0157088D02*
X0128320Y0157088D01*
X0128919Y0157686D02*
X0104831Y0157686D01*
X0105167Y0158285D02*
X0129517Y0158285D01*
X0130116Y0158883D02*
X0105766Y0158883D01*
X0106364Y0159482D02*
X0130714Y0159482D01*
X0131313Y0160081D02*
X0106963Y0160081D01*
X0107561Y0160679D02*
X0131911Y0160679D01*
X0132510Y0161278D02*
X0108160Y0161278D01*
X0108758Y0161876D02*
X0133108Y0161876D01*
X0133707Y0162475D02*
X0109357Y0162475D01*
X0109955Y0163073D02*
X0134305Y0163073D01*
X0135555Y0160081D02*
X0148024Y0160081D01*
X0148319Y0159482D02*
X0134957Y0159482D01*
X0134358Y0158883D02*
X0148024Y0158883D01*
X0148024Y0155292D02*
X0138170Y0155292D01*
X0136374Y0153497D02*
X0160447Y0153497D01*
X0158651Y0151701D02*
X0158024Y0151701D01*
X0158024Y0151103D02*
X0158053Y0151103D01*
X0153346Y0154694D02*
X0152375Y0154694D01*
X0152580Y0155292D02*
X0153142Y0155292D01*
X0153142Y0155891D02*
X0152580Y0155891D01*
X0152580Y0156489D02*
X0153142Y0156489D01*
X0153142Y0157088D02*
X0152580Y0157088D01*
X0152580Y0157686D02*
X0153142Y0157686D01*
X0153142Y0158285D02*
X0152580Y0158285D01*
X0152580Y0158883D02*
X0153142Y0158883D01*
X0153437Y0159482D02*
X0152285Y0159482D01*
X0152580Y0160081D02*
X0153142Y0160081D01*
X0153142Y0160679D02*
X0152580Y0160679D01*
X0152580Y0161278D02*
X0153142Y0161278D01*
X0153142Y0161876D02*
X0152580Y0161876D01*
X0152580Y0162475D02*
X0153142Y0162475D01*
X0153142Y0163073D02*
X0152580Y0163073D01*
X0152580Y0163672D02*
X0153142Y0163672D01*
X0153153Y0164270D02*
X0152568Y0164270D01*
X0148035Y0164270D02*
X0111152Y0164270D01*
X0110554Y0163672D02*
X0148024Y0163672D01*
X0157698Y0163672D02*
X0166532Y0163672D01*
X0166336Y0164869D02*
X0111751Y0164869D01*
X0109587Y0166664D02*
X0096776Y0166664D01*
X0096776Y0166066D02*
X0108988Y0166066D01*
X0108389Y0165467D02*
X0096776Y0165467D01*
X0096776Y0164869D02*
X0107791Y0164869D01*
X0107192Y0164270D02*
X0096776Y0164270D01*
X0096776Y0163672D02*
X0106594Y0163672D01*
X0105995Y0163073D02*
X0096776Y0163073D01*
X0096776Y0162475D02*
X0105397Y0162475D01*
X0104798Y0161876D02*
X0096776Y0161876D01*
X0096776Y0161566D02*
X0096248Y0161039D01*
X0087627Y0161039D01*
X0087099Y0161566D01*
X0087099Y0174113D01*
X0087627Y0174640D01*
X0096248Y0174640D01*
X0096776Y0174113D01*
X0096776Y0161566D01*
X0096487Y0161278D02*
X0104200Y0161278D01*
X0103601Y0160679D02*
X0081472Y0160679D01*
X0081869Y0160282D02*
X0078114Y0164038D01*
X0078114Y0174862D01*
X0078342Y0174862D01*
X0078869Y0175389D01*
X0078869Y0182040D01*
X0078342Y0182568D01*
X0075234Y0182568D01*
X0074707Y0182040D01*
X0074707Y0175389D01*
X0075234Y0174862D01*
X0075514Y0174862D01*
X0075514Y0162961D01*
X0080031Y0158444D01*
X0080031Y0156904D01*
X0081430Y0155504D01*
X0083409Y0155504D01*
X0084809Y0156904D01*
X0084809Y0158883D01*
X0083409Y0160282D01*
X0081869Y0160282D01*
X0080874Y0161278D02*
X0087388Y0161278D01*
X0087099Y0161876D02*
X0080275Y0161876D01*
X0079677Y0162475D02*
X0087099Y0162475D01*
X0087099Y0163073D02*
X0079078Y0163073D01*
X0078480Y0163672D02*
X0087099Y0163672D01*
X0087099Y0164270D02*
X0078114Y0164270D01*
X0078114Y0164869D02*
X0087099Y0164869D01*
X0087099Y0165467D02*
X0078114Y0165467D01*
X0078114Y0166066D02*
X0087099Y0166066D01*
X0087099Y0166664D02*
X0078114Y0166664D01*
X0078114Y0167263D02*
X0087099Y0167263D01*
X0087099Y0167861D02*
X0078114Y0167861D01*
X0078114Y0168460D02*
X0087099Y0168460D01*
X0087099Y0169058D02*
X0078114Y0169058D01*
X0078114Y0169657D02*
X0087099Y0169657D01*
X0087099Y0170255D02*
X0078114Y0170255D01*
X0078114Y0170854D02*
X0087099Y0170854D01*
X0087099Y0171452D02*
X0078114Y0171452D01*
X0078114Y0172051D02*
X0087099Y0172051D01*
X0087099Y0172649D02*
X0078114Y0172649D01*
X0078114Y0173248D02*
X0087099Y0173248D01*
X0087099Y0173846D02*
X0078114Y0173846D01*
X0078114Y0174445D02*
X0087431Y0174445D01*
X0083869Y0175389D02*
X0083342Y0174862D01*
X0080234Y0174862D01*
X0079707Y0175389D01*
X0079707Y0182040D01*
X0080234Y0182568D01*
X0083342Y0182568D01*
X0083869Y0182040D01*
X0083869Y0175389D01*
X0083869Y0175642D02*
X0175853Y0175642D01*
X0175853Y0176240D02*
X0083869Y0176240D01*
X0083869Y0176839D02*
X0175853Y0176839D01*
X0175853Y0177437D02*
X0083869Y0177437D01*
X0083869Y0178036D02*
X0175853Y0178036D01*
X0175853Y0178634D02*
X0083869Y0178634D01*
X0083869Y0179233D02*
X0175853Y0179233D01*
X0175853Y0179831D02*
X0083869Y0179831D01*
X0083869Y0180430D02*
X0175853Y0180430D01*
X0175853Y0181028D02*
X0083869Y0181028D01*
X0083869Y0181627D02*
X0207993Y0181627D01*
X0207993Y0182225D02*
X0083684Y0182225D01*
X0079892Y0182225D02*
X0078684Y0182225D01*
X0078869Y0181627D02*
X0079707Y0181627D01*
X0079707Y0181028D02*
X0078869Y0181028D01*
X0078869Y0180430D02*
X0079707Y0180430D01*
X0079707Y0179831D02*
X0078869Y0179831D01*
X0078869Y0179233D02*
X0079707Y0179233D01*
X0079707Y0178634D02*
X0078869Y0178634D01*
X0078869Y0178036D02*
X0079707Y0178036D01*
X0079707Y0177437D02*
X0078869Y0177437D01*
X0078869Y0176839D02*
X0079707Y0176839D01*
X0079707Y0176240D02*
X0078869Y0176240D01*
X0078869Y0175642D02*
X0079707Y0175642D01*
X0080053Y0175043D02*
X0078523Y0175043D01*
X0075514Y0174445D02*
X0070885Y0174445D01*
X0070689Y0174640D02*
X0062068Y0174640D01*
X0061540Y0174113D01*
X0061540Y0161566D01*
X0062068Y0161039D01*
X0070689Y0161039D01*
X0071217Y0161566D01*
X0071217Y0174113D01*
X0070689Y0174640D01*
X0071217Y0173846D02*
X0075514Y0173846D01*
X0075514Y0173248D02*
X0071217Y0173248D01*
X0071217Y0172649D02*
X0075514Y0172649D01*
X0075514Y0172051D02*
X0071217Y0172051D01*
X0071217Y0171452D02*
X0075514Y0171452D01*
X0075514Y0170854D02*
X0071217Y0170854D01*
X0071217Y0170255D02*
X0075514Y0170255D01*
X0075514Y0169657D02*
X0071217Y0169657D01*
X0071217Y0169058D02*
X0075514Y0169058D01*
X0075514Y0168460D02*
X0071217Y0168460D01*
X0071217Y0167861D02*
X0075514Y0167861D01*
X0075514Y0167263D02*
X0071217Y0167263D01*
X0071217Y0166664D02*
X0075514Y0166664D01*
X0075514Y0166066D02*
X0071217Y0166066D01*
X0071217Y0165467D02*
X0075514Y0165467D01*
X0075514Y0164869D02*
X0071217Y0164869D01*
X0071217Y0164270D02*
X0075514Y0164270D01*
X0075514Y0163672D02*
X0071217Y0163672D01*
X0071217Y0163073D02*
X0075514Y0163073D01*
X0076000Y0162475D02*
X0071217Y0162475D01*
X0071217Y0161876D02*
X0076598Y0161876D01*
X0077197Y0161278D02*
X0070928Y0161278D01*
X0071362Y0154447D02*
X0070835Y0153920D01*
X0070835Y0151206D01*
X0071362Y0150679D01*
X0073092Y0150679D01*
X0073212Y0150798D01*
X0073331Y0150679D01*
X0075061Y0150679D01*
X0075180Y0150798D01*
X0075299Y0150679D01*
X0077029Y0150679D01*
X0077149Y0150798D01*
X0077268Y0150679D01*
X0078998Y0150679D01*
X0079117Y0150798D01*
X0079236Y0150679D01*
X0080966Y0150679D01*
X0081493Y0151206D01*
X0081493Y0153920D01*
X0080966Y0154447D01*
X0079236Y0154447D01*
X0079117Y0154328D01*
X0078998Y0154447D01*
X0077268Y0154447D01*
X0077149Y0154328D01*
X0077029Y0154447D01*
X0075299Y0154447D01*
X0075180Y0154328D01*
X0075061Y0154447D01*
X0073331Y0154447D01*
X0073212Y0154328D01*
X0073092Y0154447D01*
X0071362Y0154447D01*
X0071010Y0154095D02*
X0063413Y0154095D01*
X0064012Y0153497D02*
X0070835Y0153497D01*
X0070835Y0152898D02*
X0064610Y0152898D01*
X0065209Y0152300D02*
X0070835Y0152300D01*
X0070835Y0151701D02*
X0065807Y0151701D01*
X0066406Y0151103D02*
X0070939Y0151103D01*
X0071851Y0149093D02*
X0071324Y0148566D01*
X0071324Y0139947D01*
X0071851Y0139419D01*
X0080471Y0139419D01*
X0080998Y0139947D01*
X0080998Y0148566D01*
X0080471Y0149093D01*
X0071851Y0149093D01*
X0071467Y0148709D02*
X0069850Y0148709D01*
X0069850Y0148995D02*
X0069323Y0149522D01*
X0067987Y0149522D01*
X0060651Y0156857D01*
X0058399Y0156857D01*
X0058132Y0157124D01*
X0056902Y0157124D01*
X0053910Y0160116D01*
X0045260Y0160116D01*
X0039934Y0165442D01*
X0039934Y0174678D01*
X0040217Y0174678D01*
X0040744Y0175205D01*
X0040744Y0181857D01*
X0040217Y0182384D01*
X0037109Y0182384D01*
X0036582Y0181857D01*
X0036582Y0175205D01*
X0037109Y0174678D01*
X0037334Y0174678D01*
X0037334Y0164365D01*
X0040262Y0161437D01*
X0039454Y0161437D01*
X0034968Y0165922D01*
X0034968Y0174678D01*
X0035217Y0174678D01*
X0035744Y0175205D01*
X0035744Y0181857D01*
X0035217Y0182384D01*
X0032109Y0182384D01*
X0031582Y0181857D01*
X0031582Y0175205D01*
X0032109Y0174678D01*
X0032368Y0174678D01*
X0032368Y0164845D01*
X0037728Y0159486D01*
X0037728Y0158058D01*
X0039127Y0156659D01*
X0041106Y0156659D01*
X0042506Y0158058D01*
X0042506Y0159193D01*
X0043421Y0158277D01*
X0044183Y0157516D01*
X0052833Y0157516D01*
X0054104Y0156245D01*
X0054104Y0152308D01*
X0054631Y0151781D01*
X0058132Y0151781D01*
X0058660Y0152308D01*
X0058660Y0154257D01*
X0059574Y0154257D01*
X0066081Y0147750D01*
X0066081Y0147482D01*
X0055014Y0147482D01*
X0055014Y0147688D01*
X0053788Y0148914D01*
X0052287Y0148914D01*
X0051573Y0149628D01*
X0051573Y0151124D01*
X0051046Y0151651D01*
X0047545Y0151651D01*
X0047018Y0151124D01*
X0047018Y0146835D01*
X0047545Y0146308D01*
X0050827Y0146308D01*
X0050827Y0145953D01*
X0051291Y0145489D01*
X0048703Y0145489D01*
X0047942Y0144727D01*
X0041797Y0138582D01*
X0038700Y0138582D01*
X0038700Y0139749D01*
X0038173Y0140276D01*
X0033884Y0140276D01*
X0033357Y0139749D01*
X0033357Y0138582D01*
X0016716Y0138582D01*
X0016716Y0138877D01*
X0016188Y0139404D01*
X0009537Y0139404D01*
X0009010Y0138877D01*
X0009010Y0135769D01*
X0009537Y0135242D01*
X0016188Y0135242D01*
X0016716Y0135769D01*
X0016716Y0135982D01*
X0033622Y0135982D01*
X0033884Y0135720D01*
X0038173Y0135720D01*
X0038435Y0135982D01*
X0042874Y0135982D01*
X0049780Y0142889D01*
X0053380Y0142889D01*
X0053271Y0142780D01*
X0043743Y0133252D01*
X0038700Y0133252D01*
X0038700Y0133319D01*
X0038173Y0133846D01*
X0033884Y0133846D01*
X0033357Y0133319D01*
X0033357Y0133252D01*
X0016716Y0133252D01*
X0016716Y0133877D01*
X0016188Y0134404D01*
X0009537Y0134404D01*
X0009010Y0133877D01*
X0009010Y0130769D01*
X0009537Y0130242D01*
X0016188Y0130242D01*
X0016599Y0130652D01*
X0033357Y0130652D01*
X0033357Y0129817D01*
X0033884Y0129290D01*
X0038173Y0129290D01*
X0038700Y0129817D01*
X0038700Y0130652D01*
X0044820Y0130652D01*
X0055110Y0140942D01*
X0066081Y0140942D01*
X0066081Y0139391D01*
X0066609Y0138863D01*
X0069323Y0138863D01*
X0069850Y0139391D01*
X0069850Y0141121D01*
X0069731Y0141240D01*
X0069850Y0141359D01*
X0069850Y0143089D01*
X0069731Y0143208D01*
X0069850Y0143328D01*
X0069850Y0145058D01*
X0069731Y0145177D01*
X0069850Y0145296D01*
X0069850Y0147026D01*
X0069731Y0147145D01*
X0069850Y0147265D01*
X0069850Y0148995D01*
X0069537Y0149307D02*
X0082772Y0149307D01*
X0082772Y0149906D02*
X0067603Y0149906D01*
X0067004Y0150504D02*
X0082772Y0150504D01*
X0082772Y0151103D02*
X0081390Y0151103D01*
X0081493Y0151701D02*
X0082772Y0151701D01*
X0082772Y0152300D02*
X0081493Y0152300D01*
X0081493Y0152898D02*
X0082916Y0152898D01*
X0083514Y0153497D02*
X0081493Y0153497D01*
X0081318Y0154095D02*
X0084113Y0154095D01*
X0084711Y0154694D02*
X0062814Y0154694D01*
X0062216Y0155292D02*
X0085310Y0155292D01*
X0085908Y0155891D02*
X0083796Y0155891D01*
X0084394Y0156489D02*
X0086507Y0156489D01*
X0087105Y0157088D02*
X0084809Y0157088D01*
X0084809Y0157686D02*
X0087704Y0157686D01*
X0089305Y0158285D02*
X0084809Y0158285D01*
X0084808Y0158883D02*
X0089677Y0158883D01*
X0094276Y0158883D02*
X0095157Y0158883D01*
X0095157Y0158285D02*
X0094648Y0158285D01*
X0095157Y0159482D02*
X0084209Y0159482D01*
X0083611Y0160081D02*
X0095675Y0160081D01*
X0099194Y0160081D02*
X0100793Y0160081D01*
X0100275Y0159482D02*
X0099713Y0159482D01*
X0099713Y0158883D02*
X0100275Y0158883D01*
X0100275Y0158285D02*
X0099713Y0158285D01*
X0099713Y0157686D02*
X0100275Y0157686D01*
X0100275Y0157088D02*
X0099713Y0157088D01*
X0099713Y0156489D02*
X0100275Y0156489D01*
X0100275Y0155891D02*
X0099713Y0155891D01*
X0099713Y0155292D02*
X0100275Y0155292D01*
X0095157Y0155292D02*
X0094648Y0155292D01*
X0089620Y0154694D02*
X0088388Y0154694D01*
X0087790Y0154095D02*
X0125328Y0154095D01*
X0127176Y0151701D02*
X0130336Y0151701D01*
X0129738Y0151103D02*
X0126578Y0151103D01*
X0126566Y0150504D02*
X0129139Y0150504D01*
X0128541Y0149906D02*
X0126124Y0149906D01*
X0125526Y0149307D02*
X0127199Y0149307D01*
X0127775Y0152300D02*
X0130935Y0152300D01*
X0131533Y0152898D02*
X0128373Y0152898D01*
X0128972Y0153497D02*
X0132132Y0153497D01*
X0132730Y0154095D02*
X0129570Y0154095D01*
X0130169Y0154694D02*
X0133329Y0154694D01*
X0133927Y0155292D02*
X0130767Y0155292D01*
X0131366Y0155891D02*
X0134526Y0155891D01*
X0135124Y0156489D02*
X0131964Y0156489D01*
X0132563Y0157088D02*
X0135723Y0157088D01*
X0136321Y0157686D02*
X0133161Y0157686D01*
X0133760Y0158285D02*
X0136920Y0158285D01*
X0127529Y0143322D02*
X0122514Y0143322D01*
X0123112Y0142724D02*
X0126931Y0142724D01*
X0126332Y0142125D02*
X0123711Y0142125D01*
X0124309Y0141527D02*
X0125734Y0141527D01*
X0125135Y0140928D02*
X0124908Y0140928D01*
X0122494Y0138534D02*
X0101287Y0138534D01*
X0101287Y0137936D02*
X0122143Y0137936D01*
X0121544Y0137337D02*
X0101287Y0137337D01*
X0101287Y0136739D02*
X0120945Y0136739D01*
X0120347Y0136140D02*
X0101287Y0136140D01*
X0101287Y0135542D02*
X0119748Y0135542D01*
X0119150Y0134943D02*
X0101287Y0134943D01*
X0101243Y0134345D02*
X0118551Y0134345D01*
X0117953Y0133746D02*
X0100853Y0133746D01*
X0097453Y0133746D02*
X0091726Y0133746D01*
X0091583Y0133890D02*
X0088081Y0133890D01*
X0087554Y0133362D01*
X0087554Y0129074D01*
X0088081Y0128546D01*
X0091583Y0128546D01*
X0092110Y0129074D01*
X0092110Y0129301D01*
X0093403Y0129301D01*
X0094514Y0130412D01*
X0094514Y0131654D01*
X0093635Y0132533D01*
X0092392Y0132533D01*
X0092161Y0132301D01*
X0092110Y0132301D01*
X0092110Y0133362D01*
X0091583Y0133890D01*
X0091657Y0134345D02*
X0090819Y0134345D01*
X0092110Y0133148D02*
X0097453Y0133148D01*
X0097364Y0132549D02*
X0092110Y0132549D01*
X0094217Y0131950D02*
X0096989Y0131950D01*
X0096989Y0131352D02*
X0094514Y0131352D01*
X0094514Y0130753D02*
X0096698Y0130753D01*
X0096104Y0130155D02*
X0094257Y0130155D01*
X0093658Y0129556D02*
X0095509Y0129556D01*
X0094915Y0128958D02*
X0091994Y0128958D01*
X0087670Y0128958D02*
X0086876Y0128958D01*
X0086992Y0129556D02*
X0087554Y0129556D01*
X0087554Y0130155D02*
X0086992Y0130155D01*
X0086992Y0130753D02*
X0087554Y0130753D01*
X0087554Y0131352D02*
X0086992Y0131352D01*
X0086992Y0131950D02*
X0087554Y0131950D01*
X0087554Y0132549D02*
X0086992Y0132549D01*
X0086992Y0133148D02*
X0087554Y0133148D01*
X0087938Y0133746D02*
X0086608Y0133746D01*
X0087613Y0134943D02*
X0082913Y0134943D01*
X0082315Y0135542D02*
X0087421Y0135542D01*
X0087421Y0136140D02*
X0081716Y0136140D01*
X0081665Y0136739D02*
X0086886Y0136739D01*
X0086288Y0137337D02*
X0081665Y0137337D01*
X0083081Y0139133D02*
X0069592Y0139133D01*
X0069850Y0139731D02*
X0071540Y0139731D01*
X0071324Y0140330D02*
X0069850Y0140330D01*
X0069850Y0140928D02*
X0071324Y0140928D01*
X0071324Y0141527D02*
X0069850Y0141527D01*
X0069850Y0142125D02*
X0071324Y0142125D01*
X0071324Y0142724D02*
X0069850Y0142724D01*
X0069844Y0143322D02*
X0071324Y0143322D01*
X0071324Y0143921D02*
X0069850Y0143921D01*
X0069850Y0144519D02*
X0071324Y0144519D01*
X0071324Y0145118D02*
X0069790Y0145118D01*
X0069850Y0145716D02*
X0071324Y0145716D01*
X0071324Y0146315D02*
X0069850Y0146315D01*
X0069850Y0146913D02*
X0071324Y0146913D01*
X0071324Y0147512D02*
X0069850Y0147512D01*
X0069850Y0148110D02*
X0071324Y0148110D01*
X0066081Y0147512D02*
X0055014Y0147512D01*
X0054591Y0148110D02*
X0065721Y0148110D01*
X0065123Y0148709D02*
X0053993Y0148709D01*
X0051894Y0149307D02*
X0064524Y0149307D01*
X0063926Y0149906D02*
X0051573Y0149906D01*
X0051573Y0150504D02*
X0063327Y0150504D01*
X0062729Y0151103D02*
X0051573Y0151103D01*
X0053014Y0151781D02*
X0049513Y0151781D01*
X0048986Y0152308D01*
X0048986Y0152337D01*
X0045544Y0152337D01*
X0045544Y0151651D01*
X0045928Y0151651D01*
X0046455Y0151124D01*
X0046455Y0146835D01*
X0045928Y0146308D01*
X0042427Y0146308D01*
X0041899Y0146835D01*
X0041899Y0151124D01*
X0042427Y0151651D01*
X0042744Y0151651D01*
X0042744Y0152337D01*
X0041442Y0152337D01*
X0040748Y0151643D01*
X0039676Y0151643D01*
X0037342Y0149310D01*
X0037342Y0145394D01*
X0038173Y0145394D01*
X0038700Y0144867D01*
X0038700Y0141366D01*
X0038173Y0140838D01*
X0033884Y0140838D01*
X0033357Y0141366D01*
X0033357Y0144867D01*
X0033884Y0145394D01*
X0034542Y0145394D01*
X0034542Y0150470D01*
X0035362Y0151290D01*
X0037787Y0153715D01*
X0037787Y0154604D01*
X0039014Y0155831D01*
X0040748Y0155831D01*
X0041442Y0155137D01*
X0048986Y0155137D01*
X0048986Y0156597D01*
X0049513Y0157124D01*
X0053014Y0157124D01*
X0053541Y0156597D01*
X0053541Y0152308D01*
X0053014Y0151781D01*
X0053534Y0152300D02*
X0054112Y0152300D01*
X0054104Y0152898D02*
X0053541Y0152898D01*
X0053541Y0153497D02*
X0054104Y0153497D01*
X0054104Y0154095D02*
X0053541Y0154095D01*
X0053541Y0154694D02*
X0054104Y0154694D01*
X0054104Y0155292D02*
X0053541Y0155292D01*
X0053541Y0155891D02*
X0054104Y0155891D01*
X0053859Y0156489D02*
X0053541Y0156489D01*
X0053261Y0157088D02*
X0053050Y0157088D01*
X0055142Y0158883D02*
X0079591Y0158883D01*
X0080031Y0158285D02*
X0055741Y0158285D01*
X0056339Y0157686D02*
X0080031Y0157686D01*
X0080031Y0157088D02*
X0058168Y0157088D01*
X0061019Y0156489D02*
X0080445Y0156489D01*
X0081043Y0155891D02*
X0061617Y0155891D01*
X0059736Y0154095D02*
X0058660Y0154095D01*
X0058660Y0153497D02*
X0060335Y0153497D01*
X0060933Y0152898D02*
X0058660Y0152898D01*
X0058652Y0152300D02*
X0061532Y0152300D01*
X0062130Y0151701D02*
X0045544Y0151701D01*
X0045544Y0152300D02*
X0048993Y0152300D01*
X0047018Y0151103D02*
X0046455Y0151103D01*
X0046455Y0150504D02*
X0047018Y0150504D01*
X0047018Y0149906D02*
X0046455Y0149906D01*
X0046455Y0149307D02*
X0047018Y0149307D01*
X0047018Y0148709D02*
X0046455Y0148709D01*
X0046455Y0148110D02*
X0047018Y0148110D01*
X0047018Y0147512D02*
X0046455Y0147512D01*
X0046455Y0146913D02*
X0047018Y0146913D01*
X0047538Y0146315D02*
X0045935Y0146315D01*
X0047734Y0144519D02*
X0038700Y0144519D01*
X0038700Y0143921D02*
X0047136Y0143921D01*
X0046537Y0143322D02*
X0038700Y0143322D01*
X0038700Y0142724D02*
X0045939Y0142724D01*
X0045340Y0142125D02*
X0038700Y0142125D01*
X0038700Y0141527D02*
X0044742Y0141527D01*
X0044143Y0140928D02*
X0038263Y0140928D01*
X0038700Y0139731D02*
X0042946Y0139731D01*
X0042347Y0139133D02*
X0038700Y0139133D01*
X0043544Y0140330D02*
X0001300Y0140330D01*
X0001300Y0140928D02*
X0033794Y0140928D01*
X0033357Y0141527D02*
X0001300Y0141527D01*
X0001300Y0142125D02*
X0033357Y0142125D01*
X0033357Y0142724D02*
X0030101Y0142724D01*
X0030012Y0142634D02*
X0030539Y0143161D01*
X0030539Y0151783D01*
X0030012Y0152310D01*
X0017465Y0152310D01*
X0016938Y0151783D01*
X0016938Y0143161D01*
X0017465Y0142634D01*
X0030012Y0142634D01*
X0030539Y0143322D02*
X0033357Y0143322D01*
X0033357Y0143921D02*
X0030539Y0143921D01*
X0030539Y0144519D02*
X0033357Y0144519D01*
X0033608Y0145118D02*
X0030539Y0145118D01*
X0030539Y0145716D02*
X0034542Y0145716D01*
X0034542Y0146315D02*
X0030539Y0146315D01*
X0030539Y0146913D02*
X0034542Y0146913D01*
X0034542Y0147512D02*
X0030539Y0147512D01*
X0030539Y0148110D02*
X0034542Y0148110D01*
X0034542Y0148709D02*
X0030539Y0148709D01*
X0030539Y0149307D02*
X0034542Y0149307D01*
X0034542Y0149906D02*
X0030539Y0149906D01*
X0030539Y0150504D02*
X0034577Y0150504D01*
X0035175Y0151103D02*
X0030539Y0151103D01*
X0030539Y0151701D02*
X0035774Y0151701D01*
X0036372Y0152300D02*
X0030022Y0152300D01*
X0036971Y0152898D02*
X0001300Y0152898D01*
X0001300Y0152300D02*
X0017454Y0152300D01*
X0016938Y0151701D02*
X0001300Y0151701D01*
X0001300Y0151103D02*
X0016938Y0151103D01*
X0016938Y0150504D02*
X0001300Y0150504D01*
X0001300Y0149906D02*
X0016938Y0149906D01*
X0016938Y0149307D02*
X0001300Y0149307D01*
X0001300Y0148709D02*
X0016938Y0148709D01*
X0016938Y0148110D02*
X0001300Y0148110D01*
X0001300Y0147512D02*
X0016938Y0147512D01*
X0016938Y0146913D02*
X0001300Y0146913D01*
X0001300Y0146315D02*
X0016938Y0146315D01*
X0016938Y0145716D02*
X0001300Y0145716D01*
X0001300Y0145118D02*
X0016938Y0145118D01*
X0016938Y0144519D02*
X0001300Y0144519D01*
X0001300Y0143921D02*
X0016938Y0143921D01*
X0016938Y0143322D02*
X0001300Y0143322D01*
X0001300Y0142724D02*
X0017375Y0142724D01*
X0016460Y0139133D02*
X0033357Y0139133D01*
X0033357Y0139731D02*
X0001300Y0139731D01*
X0001300Y0139133D02*
X0009266Y0139133D01*
X0009010Y0138534D02*
X0001300Y0138534D01*
X0001300Y0137936D02*
X0009010Y0137936D01*
X0009010Y0137337D02*
X0001300Y0137337D01*
X0001300Y0136739D02*
X0009010Y0136739D01*
X0009010Y0136140D02*
X0001300Y0136140D01*
X0001300Y0135542D02*
X0009238Y0135542D01*
X0009478Y0134345D02*
X0001300Y0134345D01*
X0001300Y0134943D02*
X0045434Y0134943D01*
X0046032Y0135542D02*
X0016488Y0135542D01*
X0016248Y0134345D02*
X0044835Y0134345D01*
X0044237Y0133746D02*
X0038273Y0133746D01*
X0038700Y0130155D02*
X0060638Y0130155D01*
X0060638Y0130753D02*
X0044921Y0130753D01*
X0045520Y0131352D02*
X0060638Y0131352D01*
X0060638Y0131385D02*
X0060638Y0129074D01*
X0061165Y0128546D01*
X0064666Y0128546D01*
X0065193Y0129074D01*
X0065193Y0133362D01*
X0064666Y0133890D01*
X0062376Y0133890D01*
X0060040Y0136225D01*
X0058798Y0136225D01*
X0057919Y0135347D01*
X0057919Y0134104D01*
X0060638Y0131385D01*
X0060072Y0131950D02*
X0046118Y0131950D01*
X0046717Y0132549D02*
X0059474Y0132549D01*
X0058875Y0133148D02*
X0047315Y0133148D01*
X0047914Y0133746D02*
X0058277Y0133746D01*
X0057919Y0134345D02*
X0048512Y0134345D01*
X0049111Y0134943D02*
X0057919Y0134943D01*
X0058114Y0135542D02*
X0049709Y0135542D01*
X0050308Y0136140D02*
X0058713Y0136140D01*
X0060126Y0136140D02*
X0070889Y0136140D01*
X0071007Y0136739D02*
X0050906Y0136739D01*
X0051505Y0137337D02*
X0071007Y0137337D01*
X0070256Y0135542D02*
X0060724Y0135542D01*
X0061323Y0134943D02*
X0069623Y0134943D01*
X0068989Y0134345D02*
X0061921Y0134345D01*
X0064810Y0133746D02*
X0066139Y0133746D01*
X0065756Y0133148D02*
X0065193Y0133148D01*
X0065193Y0132549D02*
X0065756Y0132549D01*
X0065756Y0131950D02*
X0065193Y0131950D01*
X0065193Y0131352D02*
X0065756Y0131352D01*
X0065756Y0130753D02*
X0065193Y0130753D01*
X0065193Y0130155D02*
X0065756Y0130155D01*
X0065756Y0129556D02*
X0065193Y0129556D01*
X0065078Y0128958D02*
X0065871Y0128958D01*
X0066094Y0128359D02*
X0038541Y0128359D01*
X0038700Y0127761D02*
X0066094Y0127761D01*
X0070294Y0127761D02*
X0073063Y0127761D01*
X0073063Y0128359D02*
X0070294Y0128359D01*
X0070294Y0128958D02*
X0073063Y0128958D01*
X0073063Y0129556D02*
X0070312Y0129556D01*
X0070312Y0130155D02*
X0073063Y0130155D01*
X0073063Y0130753D02*
X0070312Y0130753D01*
X0070312Y0131352D02*
X0073063Y0131352D01*
X0073063Y0131950D02*
X0070824Y0131950D01*
X0071457Y0132549D02*
X0073063Y0132549D01*
X0073063Y0133148D02*
X0072090Y0133148D01*
X0072723Y0133746D02*
X0073063Y0133746D01*
X0076326Y0135927D02*
X0076326Y0138034D01*
X0080783Y0139731D02*
X0082651Y0139731D01*
X0082651Y0140330D02*
X0080998Y0140330D01*
X0080998Y0140928D02*
X0082651Y0140928D01*
X0082655Y0141527D02*
X0080998Y0141527D01*
X0080998Y0142125D02*
X0082651Y0142125D01*
X0082651Y0142724D02*
X0080998Y0142724D01*
X0080998Y0143322D02*
X0082712Y0143322D01*
X0082651Y0143921D02*
X0080998Y0143921D01*
X0080998Y0144519D02*
X0082651Y0144519D01*
X0082651Y0145118D02*
X0080998Y0145118D01*
X0080998Y0145716D02*
X0082651Y0145716D01*
X0082651Y0146315D02*
X0080998Y0146315D01*
X0080998Y0146913D02*
X0082651Y0146913D01*
X0082651Y0147512D02*
X0080998Y0147512D01*
X0080998Y0148110D02*
X0082651Y0148110D01*
X0082651Y0148709D02*
X0080856Y0148709D01*
X0085372Y0149906D02*
X0086109Y0149906D01*
X0086707Y0150504D02*
X0085372Y0150504D01*
X0085372Y0151103D02*
X0087306Y0151103D01*
X0087904Y0151701D02*
X0085396Y0151701D01*
X0085994Y0152300D02*
X0088503Y0152300D01*
X0089305Y0152898D02*
X0086593Y0152898D01*
X0087191Y0153497D02*
X0089409Y0153497D01*
X0089305Y0155292D02*
X0088987Y0155292D01*
X0089187Y0149307D02*
X0111720Y0149307D01*
X0112319Y0148709D02*
X0088589Y0148709D01*
X0088563Y0148110D02*
X0092115Y0148110D01*
X0091613Y0147512D02*
X0088563Y0147512D01*
X0088402Y0146913D02*
X0091613Y0146913D01*
X0091613Y0146315D02*
X0087803Y0146315D01*
X0087205Y0145716D02*
X0091613Y0145716D01*
X0096169Y0145716D02*
X0096731Y0145716D01*
X0096731Y0145118D02*
X0096169Y0145118D01*
X0096169Y0144519D02*
X0096731Y0144519D01*
X0096731Y0143921D02*
X0096169Y0143921D01*
X0096169Y0143322D02*
X0096731Y0143322D01*
X0096731Y0142724D02*
X0096169Y0142724D01*
X0096169Y0142125D02*
X0096731Y0142125D01*
X0096731Y0141527D02*
X0096169Y0141527D01*
X0096169Y0140928D02*
X0096731Y0140928D01*
X0096731Y0140330D02*
X0096169Y0140330D01*
X0096169Y0139731D02*
X0096731Y0139731D01*
X0096731Y0139133D02*
X0096169Y0139133D01*
X0096169Y0138534D02*
X0096731Y0138534D01*
X0096731Y0137936D02*
X0096169Y0137936D01*
X0096169Y0137337D02*
X0096731Y0137337D01*
X0096731Y0136739D02*
X0096169Y0136739D01*
X0096169Y0136140D02*
X0096731Y0136140D01*
X0096731Y0135542D02*
X0096169Y0135542D01*
X0096169Y0134943D02*
X0096731Y0134943D01*
X0096775Y0134345D02*
X0096125Y0134345D01*
X0101287Y0139133D02*
X0121895Y0139133D01*
X0121297Y0139731D02*
X0101287Y0139731D01*
X0101287Y0140330D02*
X0120698Y0140330D01*
X0120099Y0140928D02*
X0101287Y0140928D01*
X0101287Y0141527D02*
X0119501Y0141527D01*
X0118902Y0142125D02*
X0101287Y0142125D01*
X0101287Y0142724D02*
X0118304Y0142724D01*
X0117705Y0143322D02*
X0101287Y0143322D01*
X0101287Y0143921D02*
X0117107Y0143921D01*
X0116508Y0144519D02*
X0103885Y0144519D01*
X0104436Y0145118D02*
X0115910Y0145118D01*
X0115311Y0145716D02*
X0104436Y0145716D01*
X0104435Y0146315D02*
X0114713Y0146315D01*
X0114114Y0146913D02*
X0103836Y0146913D01*
X0101287Y0147512D02*
X0113516Y0147512D01*
X0112917Y0148110D02*
X0100785Y0148110D01*
X0097233Y0148110D02*
X0095666Y0148110D01*
X0096169Y0147512D02*
X0096731Y0147512D01*
X0096731Y0146913D02*
X0096169Y0146913D01*
X0096169Y0146315D02*
X0096731Y0146315D01*
X0085689Y0137936D02*
X0052103Y0137936D01*
X0052702Y0138534D02*
X0085091Y0138534D01*
X0083512Y0134345D02*
X0088211Y0134345D01*
X0097078Y0127162D02*
X0140667Y0127162D01*
X0141266Y0127761D02*
X0097672Y0127761D01*
X0098267Y0128359D02*
X0141864Y0128359D01*
X0142463Y0128958D02*
X0098861Y0128958D01*
X0119703Y0129556D02*
X0143061Y0129556D01*
X0143660Y0130155D02*
X0120303Y0130155D01*
X0120900Y0130753D02*
X0143817Y0130753D01*
X0143817Y0131352D02*
X0121499Y0131352D01*
X0122097Y0131950D02*
X0143817Y0131950D01*
X0143817Y0132549D02*
X0122696Y0132549D01*
X0123294Y0133148D02*
X0143817Y0133148D01*
X0143817Y0133746D02*
X0123893Y0133746D01*
X0124491Y0134345D02*
X0143817Y0134345D01*
X0143817Y0134943D02*
X0125090Y0134943D01*
X0125688Y0135542D02*
X0143817Y0135542D01*
X0143817Y0136140D02*
X0126287Y0136140D01*
X0126885Y0136739D02*
X0143817Y0136739D01*
X0143817Y0137337D02*
X0127484Y0137337D01*
X0128082Y0137936D02*
X0143817Y0137936D01*
X0143817Y0138534D02*
X0128681Y0138534D01*
X0129279Y0139133D02*
X0144343Y0139133D01*
X0149052Y0139133D02*
X0152178Y0139133D01*
X0151660Y0138534D02*
X0149578Y0138534D01*
X0149578Y0137936D02*
X0151660Y0137936D01*
X0151660Y0137337D02*
X0149578Y0137337D01*
X0149578Y0136739D02*
X0151660Y0136739D01*
X0151660Y0136140D02*
X0149578Y0136140D01*
X0149578Y0135542D02*
X0151660Y0135542D01*
X0151660Y0134943D02*
X0149578Y0134943D01*
X0149578Y0134345D02*
X0151660Y0134345D01*
X0151660Y0133746D02*
X0149578Y0133746D01*
X0149578Y0133148D02*
X0151660Y0133148D01*
X0151660Y0132549D02*
X0149578Y0132549D01*
X0149578Y0131950D02*
X0151660Y0131950D01*
X0151660Y0131352D02*
X0149578Y0131352D01*
X0149578Y0130753D02*
X0151660Y0130753D01*
X0151660Y0130155D02*
X0149578Y0130155D01*
X0149578Y0129556D02*
X0151660Y0129556D01*
X0151660Y0128958D02*
X0149578Y0128958D01*
X0149578Y0128359D02*
X0151660Y0128359D01*
X0151660Y0127761D02*
X0149578Y0127761D01*
X0149578Y0127162D02*
X0151660Y0127162D01*
X0151660Y0126564D02*
X0149578Y0126564D01*
X0149489Y0125965D02*
X0151756Y0125965D01*
X0151794Y0125367D02*
X0142549Y0125367D01*
X0143147Y0125965D02*
X0143906Y0125965D01*
X0143817Y0126564D02*
X0143746Y0126564D01*
X0157421Y0131950D02*
X0176207Y0131950D01*
X0175855Y0132549D02*
X0157421Y0132549D01*
X0157421Y0133148D02*
X0175855Y0133148D01*
X0175855Y0133746D02*
X0157421Y0133746D01*
X0157421Y0134345D02*
X0175855Y0134345D01*
X0175855Y0134943D02*
X0157421Y0134943D01*
X0157421Y0135542D02*
X0175855Y0135542D01*
X0175855Y0136140D02*
X0157421Y0136140D01*
X0157421Y0136739D02*
X0175855Y0136739D01*
X0175855Y0137337D02*
X0157421Y0137337D01*
X0157421Y0137936D02*
X0175855Y0137936D01*
X0175855Y0138534D02*
X0157421Y0138534D01*
X0156902Y0139133D02*
X0175855Y0139133D01*
X0175855Y0139731D02*
X0129878Y0139731D01*
X0157686Y0164270D02*
X0192736Y0164270D01*
X0192743Y0163672D02*
X0173347Y0163672D01*
X0173542Y0164869D02*
X0192488Y0164869D01*
X0192346Y0165467D02*
X0188083Y0165467D01*
X0188682Y0166066D02*
X0192346Y0166066D01*
X0192346Y0166664D02*
X0189280Y0166664D01*
X0189879Y0167263D02*
X0192464Y0167263D01*
X0192712Y0167861D02*
X0190477Y0167861D01*
X0191076Y0168460D02*
X0192960Y0168460D01*
X0193469Y0169058D02*
X0191675Y0169058D01*
X0192273Y0169657D02*
X0194068Y0169657D01*
X0195223Y0170255D02*
X0192872Y0170255D01*
X0193470Y0170854D02*
X0207993Y0170854D01*
X0207993Y0171452D02*
X0194069Y0171452D01*
X0191904Y0173248D02*
X0189454Y0173248D01*
X0189454Y0173846D02*
X0192503Y0173846D01*
X0192598Y0174445D02*
X0189454Y0174445D01*
X0189454Y0175043D02*
X0192350Y0175043D01*
X0192346Y0175642D02*
X0189454Y0175642D01*
X0189454Y0176240D02*
X0192346Y0176240D01*
X0192353Y0176839D02*
X0189454Y0176839D01*
X0189454Y0177437D02*
X0192601Y0177437D01*
X0192849Y0178036D02*
X0189454Y0178036D01*
X0189454Y0178634D02*
X0193203Y0178634D01*
X0193801Y0179233D02*
X0189454Y0179233D01*
X0189454Y0179831D02*
X0194580Y0179831D01*
X0197523Y0184978D02*
X0197658Y0184976D01*
X0197792Y0184970D01*
X0197927Y0184960D01*
X0198061Y0184947D01*
X0198194Y0184929D01*
X0198328Y0184908D01*
X0198460Y0184882D01*
X0198591Y0184853D01*
X0198722Y0184820D01*
X0198852Y0184783D01*
X0198980Y0184743D01*
X0199108Y0184699D01*
X0199234Y0184651D01*
X0199358Y0184599D01*
X0199481Y0184544D01*
X0199602Y0184485D01*
X0199722Y0184423D01*
X0199840Y0184357D01*
X0199955Y0184288D01*
X0200069Y0184216D01*
X0200180Y0184140D01*
X0200290Y0184061D01*
X0200397Y0183979D01*
X0200501Y0183894D01*
X0200603Y0183806D01*
X0200702Y0183715D01*
X0200799Y0183621D01*
X0200893Y0183524D01*
X0200984Y0183425D01*
X0201072Y0183323D01*
X0201157Y0183219D01*
X0201239Y0183112D01*
X0201318Y0183002D01*
X0201394Y0182891D01*
X0201466Y0182777D01*
X0201535Y0182662D01*
X0201601Y0182544D01*
X0201663Y0182424D01*
X0201722Y0182303D01*
X0201777Y0182180D01*
X0201829Y0182056D01*
X0201877Y0181930D01*
X0201921Y0181802D01*
X0201961Y0181674D01*
X0201998Y0181544D01*
X0202031Y0181413D01*
X0202060Y0181282D01*
X0202086Y0181150D01*
X0202107Y0181016D01*
X0202125Y0180883D01*
X0202138Y0180749D01*
X0202148Y0180614D01*
X0202154Y0180480D01*
X0202156Y0180345D01*
X0202112Y0180400D02*
X0202151Y0105538D01*
X0202155Y0105655D02*
X0202153Y0105520D01*
X0202147Y0105386D01*
X0202137Y0105251D01*
X0202124Y0105117D01*
X0202106Y0104984D01*
X0202085Y0104850D01*
X0202059Y0104718D01*
X0202030Y0104587D01*
X0201997Y0104456D01*
X0201960Y0104326D01*
X0201920Y0104198D01*
X0201876Y0104070D01*
X0201828Y0103944D01*
X0201776Y0103820D01*
X0201721Y0103697D01*
X0201662Y0103576D01*
X0201600Y0103456D01*
X0201534Y0103338D01*
X0201465Y0103223D01*
X0201393Y0103109D01*
X0201317Y0102998D01*
X0201238Y0102888D01*
X0201156Y0102781D01*
X0201071Y0102677D01*
X0200983Y0102575D01*
X0200892Y0102476D01*
X0200798Y0102379D01*
X0200701Y0102285D01*
X0200602Y0102194D01*
X0200500Y0102106D01*
X0200396Y0102021D01*
X0200289Y0101939D01*
X0200179Y0101860D01*
X0200068Y0101784D01*
X0199954Y0101712D01*
X0199838Y0101643D01*
X0199721Y0101577D01*
X0199601Y0101515D01*
X0199480Y0101456D01*
X0199357Y0101401D01*
X0199233Y0101349D01*
X0199107Y0101301D01*
X0198979Y0101257D01*
X0198851Y0101217D01*
X0198721Y0101180D01*
X0198590Y0101147D01*
X0198459Y0101118D01*
X0198327Y0101092D01*
X0198193Y0101071D01*
X0198060Y0101053D01*
X0197926Y0101040D01*
X0197791Y0101030D01*
X0197657Y0101024D01*
X0197522Y0101022D01*
X0197588Y0101037D02*
X0137537Y0100924D01*
X0137565Y0100919D02*
X0137430Y0100917D01*
X0137296Y0100911D01*
X0137161Y0100901D01*
X0137027Y0100888D01*
X0136894Y0100870D01*
X0136760Y0100849D01*
X0136628Y0100823D01*
X0136497Y0100794D01*
X0136366Y0100761D01*
X0136236Y0100724D01*
X0136108Y0100684D01*
X0135980Y0100640D01*
X0135854Y0100592D01*
X0135730Y0100540D01*
X0135607Y0100485D01*
X0135486Y0100426D01*
X0135366Y0100364D01*
X0135249Y0100298D01*
X0135133Y0100229D01*
X0135019Y0100157D01*
X0134908Y0100081D01*
X0134798Y0100002D01*
X0134691Y0099920D01*
X0134587Y0099835D01*
X0134485Y0099747D01*
X0134386Y0099656D01*
X0134289Y0099562D01*
X0134195Y0099465D01*
X0134104Y0099366D01*
X0134016Y0099264D01*
X0133931Y0099160D01*
X0133849Y0099053D01*
X0133770Y0098943D01*
X0133694Y0098832D01*
X0133622Y0098718D01*
X0133553Y0098603D01*
X0133487Y0098485D01*
X0133425Y0098365D01*
X0133366Y0098244D01*
X0133311Y0098121D01*
X0133259Y0097997D01*
X0133211Y0097871D01*
X0133167Y0097743D01*
X0133127Y0097615D01*
X0133090Y0097485D01*
X0133057Y0097354D01*
X0133028Y0097223D01*
X0133002Y0097091D01*
X0132981Y0096957D01*
X0132963Y0096824D01*
X0132950Y0096690D01*
X0132940Y0096555D01*
X0132934Y0096421D01*
X0132932Y0096286D01*
X0132929Y0096228D02*
X0132929Y0012656D01*
X0132932Y0012753D02*
X0132930Y0012618D01*
X0132924Y0012484D01*
X0132914Y0012349D01*
X0132901Y0012215D01*
X0132883Y0012082D01*
X0132862Y0011948D01*
X0132836Y0011816D01*
X0132807Y0011685D01*
X0132774Y0011554D01*
X0132737Y0011424D01*
X0132697Y0011296D01*
X0132653Y0011168D01*
X0132605Y0011042D01*
X0132553Y0010918D01*
X0132498Y0010795D01*
X0132439Y0010674D01*
X0132377Y0010554D01*
X0132311Y0010436D01*
X0132242Y0010321D01*
X0132170Y0010207D01*
X0132094Y0010096D01*
X0132015Y0009986D01*
X0131933Y0009879D01*
X0131848Y0009775D01*
X0131760Y0009673D01*
X0131669Y0009574D01*
X0131575Y0009477D01*
X0131478Y0009383D01*
X0131379Y0009292D01*
X0131277Y0009204D01*
X0131173Y0009119D01*
X0131066Y0009037D01*
X0130956Y0008958D01*
X0130845Y0008882D01*
X0130731Y0008810D01*
X0130615Y0008741D01*
X0130498Y0008675D01*
X0130378Y0008613D01*
X0130257Y0008554D01*
X0130134Y0008499D01*
X0130010Y0008447D01*
X0129884Y0008399D01*
X0129756Y0008355D01*
X0129628Y0008315D01*
X0129498Y0008278D01*
X0129367Y0008245D01*
X0129236Y0008216D01*
X0129104Y0008190D01*
X0128970Y0008169D01*
X0128837Y0008151D01*
X0128703Y0008138D01*
X0128568Y0008128D01*
X0128434Y0008122D01*
X0128299Y0008120D01*
X0128330Y0008113D02*
X0010011Y0007670D01*
X0010093Y0007684D02*
X0009958Y0007686D01*
X0009824Y0007692D01*
X0009689Y0007702D01*
X0009555Y0007715D01*
X0009422Y0007733D01*
X0009288Y0007754D01*
X0009156Y0007780D01*
X0009025Y0007809D01*
X0008894Y0007842D01*
X0008764Y0007879D01*
X0008636Y0007919D01*
X0008508Y0007963D01*
X0008382Y0008011D01*
X0008258Y0008063D01*
X0008135Y0008118D01*
X0008014Y0008177D01*
X0007894Y0008239D01*
X0007777Y0008305D01*
X0007661Y0008374D01*
X0007547Y0008446D01*
X0007436Y0008522D01*
X0007326Y0008601D01*
X0007219Y0008683D01*
X0007115Y0008768D01*
X0007013Y0008856D01*
X0006914Y0008947D01*
X0006817Y0009041D01*
X0006723Y0009138D01*
X0006632Y0009237D01*
X0006544Y0009339D01*
X0006459Y0009443D01*
X0006377Y0009550D01*
X0006298Y0009660D01*
X0006222Y0009771D01*
X0006150Y0009885D01*
X0006081Y0010000D01*
X0006015Y0010118D01*
X0005953Y0010238D01*
X0005894Y0010359D01*
X0005839Y0010482D01*
X0005787Y0010606D01*
X0005739Y0010732D01*
X0005695Y0010860D01*
X0005655Y0010988D01*
X0005618Y0011118D01*
X0005585Y0011249D01*
X0005556Y0011380D01*
X0005530Y0011512D01*
X0005509Y0011646D01*
X0005491Y0011779D01*
X0005478Y0011913D01*
X0005468Y0012048D01*
X0005462Y0012182D01*
X0005460Y0012317D01*
X0005459Y0012177D02*
X0005580Y0180197D01*
X0001300Y0180430D02*
X0031582Y0180430D01*
X0031582Y0181028D02*
X0001300Y0181028D01*
X0001300Y0181627D02*
X0031582Y0181627D01*
X0031950Y0182225D02*
X0001300Y0182225D01*
X0001300Y0182824D02*
X0207993Y0182824D01*
X0207993Y0183422D02*
X0001300Y0183422D01*
X0001300Y0184021D02*
X0207993Y0184021D01*
X0207993Y0184619D02*
X0001300Y0184619D01*
X0001300Y0185218D02*
X0207993Y0185218D01*
X0207993Y0185816D02*
X0001300Y0185816D01*
X0001300Y0186415D02*
X0207993Y0186415D01*
X0207993Y0187014D02*
X0001300Y0187014D01*
X0001300Y0187612D02*
X0207993Y0187612D01*
X0207993Y0188211D02*
X0001300Y0188211D01*
X0001300Y0188809D02*
X0207993Y0188809D01*
X0207993Y0189408D02*
X0001300Y0189408D01*
X0001300Y0190006D02*
X0207993Y0190006D01*
X0207993Y0190605D02*
X0001300Y0190605D01*
X0001300Y0191203D02*
X0207993Y0191203D01*
X0207993Y0191802D02*
X0001300Y0191802D01*
X0001300Y0192400D02*
X0207993Y0192400D01*
X0207993Y0192999D02*
X0001300Y0192999D01*
X0001300Y0193597D02*
X0207993Y0193597D01*
X0207993Y0194196D02*
X0001300Y0194196D01*
X0001300Y0194794D02*
X0207993Y0194794D01*
X0207993Y0195393D02*
X0001300Y0195393D01*
X0001300Y0195991D02*
X0207993Y0195991D01*
X0207993Y0196590D02*
X0001300Y0196590D01*
X0001300Y0197188D02*
X0207993Y0197188D01*
X0207993Y0197787D02*
X0001300Y0197787D01*
X0010192Y0184795D02*
X0010596Y0184795D01*
X0010591Y0184776D02*
X0182624Y0184834D01*
X0182619Y0184836D02*
X0197522Y0184979D01*
X0198998Y0179831D02*
X0207993Y0179831D01*
X0207993Y0179233D02*
X0199777Y0179233D01*
X0200376Y0178634D02*
X0207993Y0178634D01*
X0207993Y0178036D02*
X0200729Y0178036D01*
X0200977Y0177437D02*
X0207993Y0177437D01*
X0207993Y0176839D02*
X0201225Y0176839D01*
X0201233Y0176240D02*
X0207993Y0176240D01*
X0207993Y0175642D02*
X0201233Y0175642D01*
X0201228Y0175043D02*
X0207993Y0175043D01*
X0207993Y0174445D02*
X0200981Y0174445D01*
X0200733Y0173846D02*
X0207993Y0173846D01*
X0207993Y0173248D02*
X0200384Y0173248D01*
X0199785Y0172649D02*
X0207993Y0172649D01*
X0207993Y0172051D02*
X0199018Y0172051D01*
X0198355Y0170255D02*
X0207993Y0170255D01*
X0207993Y0169657D02*
X0199511Y0169657D01*
X0200109Y0169058D02*
X0207993Y0169058D01*
X0207993Y0168460D02*
X0200619Y0168460D01*
X0200867Y0167861D02*
X0207993Y0167861D01*
X0207993Y0167263D02*
X0201115Y0167263D01*
X0201233Y0166664D02*
X0207993Y0166664D01*
X0207993Y0166066D02*
X0201233Y0166066D01*
X0201233Y0165467D02*
X0207993Y0165467D01*
X0207993Y0164869D02*
X0201091Y0164869D01*
X0200843Y0164270D02*
X0207993Y0164270D01*
X0207993Y0163672D02*
X0200595Y0163672D01*
X0200052Y0163073D02*
X0207993Y0163073D01*
X0207993Y0162475D02*
X0199453Y0162475D01*
X0198216Y0161876D02*
X0207993Y0161876D01*
X0191306Y0172649D02*
X0189454Y0172649D01*
X0189454Y0172453D02*
X0189454Y0181075D01*
X0188927Y0181602D01*
X0176380Y0181602D01*
X0175853Y0181075D01*
X0175853Y0172453D01*
X0176380Y0171926D01*
X0188927Y0171926D01*
X0189454Y0172453D01*
X0189051Y0172051D02*
X0190707Y0172051D01*
X0190109Y0171452D02*
X0096776Y0171452D01*
X0096776Y0170854D02*
X0189510Y0170854D01*
X0188912Y0170255D02*
X0096776Y0170255D01*
X0096776Y0169657D02*
X0188313Y0169657D01*
X0187715Y0169058D02*
X0096776Y0169058D01*
X0096776Y0168460D02*
X0166320Y0168460D01*
X0173558Y0168460D02*
X0187116Y0168460D01*
X0176256Y0172051D02*
X0096776Y0172051D01*
X0096776Y0172649D02*
X0175853Y0172649D01*
X0175853Y0173248D02*
X0096776Y0173248D01*
X0096776Y0173846D02*
X0175853Y0173846D01*
X0175853Y0174445D02*
X0096444Y0174445D01*
X0096776Y0167861D02*
X0110784Y0167861D01*
X0110185Y0167263D02*
X0096776Y0167263D01*
X0083523Y0175043D02*
X0175853Y0175043D01*
X0189454Y0180430D02*
X0207993Y0180430D01*
X0207993Y0181028D02*
X0189454Y0181028D01*
X0207993Y0121177D02*
X0030539Y0121177D01*
X0030539Y0120579D02*
X0207993Y0120579D01*
X0207993Y0119980D02*
X0030539Y0119980D01*
X0030539Y0119382D02*
X0207993Y0119382D01*
X0207993Y0118783D02*
X0030539Y0118783D01*
X0030539Y0118185D02*
X0207993Y0118185D01*
X0207993Y0117586D02*
X0030523Y0117586D01*
X0033357Y0127761D02*
X0001300Y0127761D01*
X0001300Y0128359D02*
X0033516Y0128359D01*
X0033618Y0129556D02*
X0001300Y0129556D01*
X0001300Y0128958D02*
X0035340Y0128958D01*
X0037164Y0128958D02*
X0060753Y0128958D01*
X0060638Y0129556D02*
X0038439Y0129556D01*
X0033357Y0130155D02*
X0001300Y0130155D01*
X0001300Y0130753D02*
X0009026Y0130753D01*
X0009010Y0131352D02*
X0001300Y0131352D01*
X0001300Y0131950D02*
X0009010Y0131950D01*
X0009010Y0132549D02*
X0001300Y0132549D01*
X0001300Y0133148D02*
X0009010Y0133148D01*
X0009010Y0133746D02*
X0001300Y0133746D01*
X0016716Y0133746D02*
X0033784Y0133746D01*
X0043032Y0136140D02*
X0046631Y0136140D01*
X0047230Y0136739D02*
X0043630Y0136739D01*
X0044229Y0137337D02*
X0047828Y0137337D01*
X0048427Y0137936D02*
X0044827Y0137936D01*
X0045426Y0138534D02*
X0049025Y0138534D01*
X0049624Y0139133D02*
X0046024Y0139133D01*
X0046623Y0139731D02*
X0050222Y0139731D01*
X0050821Y0140330D02*
X0047221Y0140330D01*
X0047820Y0140928D02*
X0051419Y0140928D01*
X0052018Y0141527D02*
X0048418Y0141527D01*
X0049017Y0142125D02*
X0052616Y0142125D01*
X0053215Y0142724D02*
X0049615Y0142724D01*
X0048333Y0145118D02*
X0038450Y0145118D01*
X0037342Y0145716D02*
X0051064Y0145716D01*
X0055096Y0140928D02*
X0066081Y0140928D01*
X0066081Y0140330D02*
X0054498Y0140330D01*
X0053899Y0139731D02*
X0066081Y0139731D01*
X0066340Y0139133D02*
X0053300Y0139133D01*
X0042420Y0146315D02*
X0037342Y0146315D01*
X0037342Y0146913D02*
X0041899Y0146913D01*
X0041899Y0147512D02*
X0037342Y0147512D01*
X0037342Y0148110D02*
X0041899Y0148110D01*
X0041899Y0148709D02*
X0037342Y0148709D01*
X0037342Y0149307D02*
X0041899Y0149307D01*
X0041899Y0149906D02*
X0037938Y0149906D01*
X0038537Y0150504D02*
X0041899Y0150504D01*
X0041899Y0151103D02*
X0039135Y0151103D01*
X0040807Y0151701D02*
X0042744Y0151701D01*
X0042744Y0152300D02*
X0041405Y0152300D01*
X0041287Y0155292D02*
X0048986Y0155292D01*
X0048986Y0155891D02*
X0001300Y0155891D01*
X0001300Y0156489D02*
X0048986Y0156489D01*
X0049477Y0157088D02*
X0041536Y0157088D01*
X0042134Y0157686D02*
X0044012Y0157686D01*
X0043414Y0158285D02*
X0042506Y0158285D01*
X0042506Y0158883D02*
X0042815Y0158883D01*
X0044697Y0160679D02*
X0077795Y0160679D01*
X0078394Y0160081D02*
X0053945Y0160081D01*
X0054544Y0159482D02*
X0078992Y0159482D01*
X0061829Y0161278D02*
X0056009Y0161278D01*
X0056120Y0161388D02*
X0055593Y0160861D01*
X0046971Y0160861D01*
X0046444Y0161388D01*
X0046444Y0173935D01*
X0046971Y0174462D01*
X0055593Y0174462D01*
X0056120Y0173935D01*
X0056120Y0161388D01*
X0056120Y0161876D02*
X0061540Y0161876D01*
X0061540Y0162475D02*
X0056120Y0162475D01*
X0056120Y0163073D02*
X0061540Y0163073D01*
X0061540Y0163672D02*
X0056120Y0163672D01*
X0056120Y0164270D02*
X0061540Y0164270D01*
X0061540Y0164869D02*
X0056120Y0164869D01*
X0056120Y0165467D02*
X0061540Y0165467D01*
X0061540Y0166066D02*
X0056120Y0166066D01*
X0056120Y0166664D02*
X0061540Y0166664D01*
X0061540Y0167263D02*
X0056120Y0167263D01*
X0056120Y0167861D02*
X0061540Y0167861D01*
X0061540Y0168460D02*
X0056120Y0168460D01*
X0056120Y0169058D02*
X0061540Y0169058D01*
X0061540Y0169657D02*
X0056120Y0169657D01*
X0056120Y0170255D02*
X0061540Y0170255D01*
X0061540Y0170854D02*
X0056120Y0170854D01*
X0056120Y0171452D02*
X0061540Y0171452D01*
X0061540Y0172051D02*
X0056120Y0172051D01*
X0056120Y0172649D02*
X0061540Y0172649D01*
X0061540Y0173248D02*
X0056120Y0173248D01*
X0056120Y0173846D02*
X0061540Y0173846D01*
X0061872Y0174445D02*
X0055610Y0174445D01*
X0046954Y0174445D02*
X0039934Y0174445D01*
X0039934Y0173846D02*
X0046444Y0173846D01*
X0046444Y0173248D02*
X0039934Y0173248D01*
X0039934Y0172649D02*
X0046444Y0172649D01*
X0046444Y0172051D02*
X0039934Y0172051D01*
X0039934Y0171452D02*
X0046444Y0171452D01*
X0046444Y0170854D02*
X0039934Y0170854D01*
X0039934Y0170255D02*
X0046444Y0170255D01*
X0046444Y0169657D02*
X0039934Y0169657D01*
X0039934Y0169058D02*
X0046444Y0169058D01*
X0046444Y0168460D02*
X0039934Y0168460D01*
X0039934Y0167861D02*
X0046444Y0167861D01*
X0046444Y0167263D02*
X0039934Y0167263D01*
X0039934Y0166664D02*
X0046444Y0166664D01*
X0046444Y0166066D02*
X0039934Y0166066D01*
X0039934Y0165467D02*
X0046444Y0165467D01*
X0046444Y0164869D02*
X0040507Y0164869D01*
X0041106Y0164270D02*
X0046444Y0164270D01*
X0046444Y0163672D02*
X0041704Y0163672D01*
X0042303Y0163073D02*
X0046444Y0163073D01*
X0046444Y0162475D02*
X0042901Y0162475D01*
X0043500Y0161876D02*
X0046444Y0161876D01*
X0046554Y0161278D02*
X0044098Y0161278D01*
X0039823Y0161876D02*
X0039014Y0161876D01*
X0039224Y0162475D02*
X0038416Y0162475D01*
X0038626Y0163073D02*
X0037817Y0163073D01*
X0038027Y0163672D02*
X0037219Y0163672D01*
X0037429Y0164270D02*
X0036620Y0164270D01*
X0036022Y0164869D02*
X0037334Y0164869D01*
X0037334Y0165467D02*
X0035423Y0165467D01*
X0034968Y0166066D02*
X0037334Y0166066D01*
X0037334Y0166664D02*
X0034968Y0166664D01*
X0034968Y0167263D02*
X0037334Y0167263D01*
X0037334Y0167861D02*
X0034968Y0167861D01*
X0034968Y0168460D02*
X0037334Y0168460D01*
X0037334Y0169058D02*
X0034968Y0169058D01*
X0034968Y0169657D02*
X0037334Y0169657D01*
X0037334Y0170255D02*
X0034968Y0170255D01*
X0034968Y0170854D02*
X0037334Y0170854D01*
X0037334Y0171452D02*
X0034968Y0171452D01*
X0034968Y0172051D02*
X0037334Y0172051D01*
X0037334Y0172649D02*
X0034968Y0172649D01*
X0034968Y0173248D02*
X0037334Y0173248D01*
X0037334Y0173846D02*
X0034968Y0173846D01*
X0034968Y0174445D02*
X0037334Y0174445D01*
X0036744Y0175043D02*
X0035582Y0175043D01*
X0035744Y0175642D02*
X0036582Y0175642D01*
X0036582Y0176240D02*
X0035744Y0176240D01*
X0035744Y0176839D02*
X0036582Y0176839D01*
X0036582Y0177437D02*
X0035744Y0177437D01*
X0035744Y0178036D02*
X0036582Y0178036D01*
X0036582Y0178634D02*
X0035744Y0178634D01*
X0035744Y0179233D02*
X0036582Y0179233D01*
X0036582Y0179831D02*
X0035744Y0179831D01*
X0035744Y0180430D02*
X0036582Y0180430D01*
X0036582Y0181028D02*
X0035744Y0181028D01*
X0035744Y0181627D02*
X0036582Y0181627D01*
X0036950Y0182225D02*
X0035375Y0182225D01*
X0031582Y0179831D02*
X0001300Y0179831D01*
X0001300Y0179233D02*
X0031582Y0179233D01*
X0031582Y0178634D02*
X0001300Y0178634D01*
X0001300Y0178036D02*
X0031582Y0178036D01*
X0031582Y0177437D02*
X0001300Y0177437D01*
X0001300Y0176839D02*
X0031582Y0176839D01*
X0031582Y0176240D02*
X0001300Y0176240D01*
X0001300Y0175642D02*
X0031582Y0175642D01*
X0031744Y0175043D02*
X0001300Y0175043D01*
X0001300Y0174445D02*
X0021394Y0174445D01*
X0021412Y0174462D02*
X0020885Y0173935D01*
X0020885Y0161388D01*
X0021412Y0160861D01*
X0030034Y0160861D01*
X0030561Y0161388D01*
X0030561Y0173935D01*
X0030034Y0174462D01*
X0021412Y0174462D01*
X0020885Y0173846D02*
X0001300Y0173846D01*
X0001300Y0173248D02*
X0020885Y0173248D01*
X0020885Y0172649D02*
X0001300Y0172649D01*
X0001300Y0172051D02*
X0020885Y0172051D01*
X0020885Y0171452D02*
X0001300Y0171452D01*
X0001300Y0170854D02*
X0020885Y0170854D01*
X0020885Y0170255D02*
X0001300Y0170255D01*
X0001300Y0169657D02*
X0020885Y0169657D01*
X0020885Y0169058D02*
X0001300Y0169058D01*
X0001300Y0168460D02*
X0020885Y0168460D01*
X0020885Y0167861D02*
X0001300Y0167861D01*
X0001300Y0167263D02*
X0020885Y0167263D01*
X0020885Y0166664D02*
X0001300Y0166664D01*
X0001300Y0166066D02*
X0020885Y0166066D01*
X0020885Y0165467D02*
X0001300Y0165467D01*
X0001300Y0164869D02*
X0020885Y0164869D01*
X0020885Y0164270D02*
X0001300Y0164270D01*
X0001300Y0163672D02*
X0020885Y0163672D01*
X0020885Y0163073D02*
X0001300Y0163073D01*
X0001300Y0162475D02*
X0020885Y0162475D01*
X0020885Y0161876D02*
X0001300Y0161876D01*
X0001300Y0161278D02*
X0020995Y0161278D01*
X0030450Y0161278D02*
X0035936Y0161278D01*
X0035337Y0161876D02*
X0030561Y0161876D01*
X0030561Y0162475D02*
X0034739Y0162475D01*
X0034140Y0163073D02*
X0030561Y0163073D01*
X0030561Y0163672D02*
X0033542Y0163672D01*
X0032943Y0164270D02*
X0030561Y0164270D01*
X0030561Y0164869D02*
X0032368Y0164869D01*
X0032368Y0165467D02*
X0030561Y0165467D01*
X0030561Y0166066D02*
X0032368Y0166066D01*
X0032368Y0166664D02*
X0030561Y0166664D01*
X0030561Y0167263D02*
X0032368Y0167263D01*
X0032368Y0167861D02*
X0030561Y0167861D01*
X0030561Y0168460D02*
X0032368Y0168460D01*
X0032368Y0169058D02*
X0030561Y0169058D01*
X0030561Y0169657D02*
X0032368Y0169657D01*
X0032368Y0170255D02*
X0030561Y0170255D01*
X0030561Y0170854D02*
X0032368Y0170854D01*
X0032368Y0171452D02*
X0030561Y0171452D01*
X0030561Y0172051D02*
X0032368Y0172051D01*
X0032368Y0172649D02*
X0030561Y0172649D01*
X0030561Y0173248D02*
X0032368Y0173248D01*
X0032368Y0173846D02*
X0030561Y0173846D01*
X0030051Y0174445D02*
X0032368Y0174445D01*
X0040582Y0175043D02*
X0041744Y0175043D01*
X0041582Y0175205D02*
X0042109Y0174678D01*
X0045217Y0174678D01*
X0045744Y0175205D01*
X0045744Y0181857D01*
X0045217Y0182384D01*
X0042109Y0182384D01*
X0041582Y0181857D01*
X0041582Y0175205D01*
X0041582Y0175642D02*
X0040744Y0175642D01*
X0040744Y0176240D02*
X0041582Y0176240D01*
X0041582Y0176839D02*
X0040744Y0176839D01*
X0040744Y0177437D02*
X0041582Y0177437D01*
X0041582Y0178036D02*
X0040744Y0178036D01*
X0040744Y0178634D02*
X0041582Y0178634D01*
X0041582Y0179233D02*
X0040744Y0179233D01*
X0040744Y0179831D02*
X0041582Y0179831D01*
X0041582Y0180430D02*
X0040744Y0180430D01*
X0040744Y0181028D02*
X0041582Y0181028D01*
X0041582Y0181627D02*
X0040744Y0181627D01*
X0040375Y0182225D02*
X0041950Y0182225D01*
X0045375Y0182225D02*
X0074892Y0182225D01*
X0074707Y0181627D02*
X0045744Y0181627D01*
X0045744Y0181028D02*
X0074707Y0181028D01*
X0074707Y0180430D02*
X0045744Y0180430D01*
X0045744Y0179831D02*
X0074707Y0179831D01*
X0074707Y0179233D02*
X0045744Y0179233D01*
X0045744Y0178634D02*
X0074707Y0178634D01*
X0074707Y0178036D02*
X0045744Y0178036D01*
X0045744Y0177437D02*
X0074707Y0177437D01*
X0074707Y0176839D02*
X0045744Y0176839D01*
X0045744Y0176240D02*
X0074707Y0176240D01*
X0074707Y0175642D02*
X0045744Y0175642D01*
X0045582Y0175043D02*
X0075053Y0175043D01*
X0037728Y0159482D02*
X0001300Y0159482D01*
X0001300Y0158883D02*
X0037728Y0158883D01*
X0037728Y0158285D02*
X0001300Y0158285D01*
X0001300Y0157686D02*
X0038099Y0157686D01*
X0038698Y0157088D02*
X0001300Y0157088D01*
X0001300Y0155292D02*
X0038476Y0155292D01*
X0037877Y0154694D02*
X0001300Y0154694D01*
X0001300Y0154095D02*
X0037787Y0154095D01*
X0037569Y0153497D02*
X0001300Y0153497D01*
X0001300Y0160081D02*
X0037133Y0160081D01*
X0036534Y0160679D02*
X0001300Y0160679D01*
X0005559Y0180162D02*
X0005561Y0180297D01*
X0005567Y0180431D01*
X0005577Y0180566D01*
X0005590Y0180700D01*
X0005608Y0180833D01*
X0005629Y0180967D01*
X0005655Y0181099D01*
X0005684Y0181230D01*
X0005717Y0181361D01*
X0005754Y0181491D01*
X0005794Y0181619D01*
X0005838Y0181747D01*
X0005886Y0181873D01*
X0005938Y0181997D01*
X0005993Y0182120D01*
X0006052Y0182241D01*
X0006114Y0182361D01*
X0006180Y0182479D01*
X0006249Y0182594D01*
X0006321Y0182708D01*
X0006397Y0182819D01*
X0006476Y0182929D01*
X0006558Y0183036D01*
X0006643Y0183140D01*
X0006731Y0183242D01*
X0006822Y0183341D01*
X0006916Y0183438D01*
X0007013Y0183532D01*
X0007112Y0183623D01*
X0007214Y0183711D01*
X0007318Y0183796D01*
X0007425Y0183878D01*
X0007535Y0183957D01*
X0007646Y0184033D01*
X0007760Y0184105D01*
X0007876Y0184174D01*
X0007993Y0184240D01*
X0008113Y0184302D01*
X0008234Y0184361D01*
X0008357Y0184416D01*
X0008481Y0184468D01*
X0008607Y0184516D01*
X0008735Y0184560D01*
X0008863Y0184600D01*
X0008993Y0184637D01*
X0009124Y0184670D01*
X0009255Y0184699D01*
X0009387Y0184725D01*
X0009521Y0184746D01*
X0009654Y0184764D01*
X0009788Y0184777D01*
X0009923Y0184787D01*
X0010057Y0184793D01*
X0010192Y0184795D01*
X0065326Y0140252D02*
X0067433Y0140252D01*
X0070294Y0127162D02*
X0073063Y0127162D01*
X0073063Y0126564D02*
X0070294Y0126564D01*
X0070294Y0125965D02*
X0073063Y0125965D01*
X0073063Y0125367D02*
X0070294Y0125367D01*
X0070294Y0124768D02*
X0073459Y0124768D01*
X0074058Y0124170D02*
X0070195Y0124170D01*
X0069597Y0123571D02*
X0074656Y0123571D01*
X0019834Y0071365D02*
X0019849Y0072587D01*
X0019894Y0073808D01*
X0019969Y0075027D01*
X0020074Y0076245D01*
X0020208Y0077459D01*
X0020373Y0078670D01*
X0020567Y0079876D01*
X0020791Y0081077D01*
X0021044Y0082273D01*
X0021326Y0083462D01*
X0021637Y0084643D01*
X0021978Y0085817D01*
X0022347Y0086981D01*
X0022744Y0088137D01*
X0023170Y0089282D01*
X0023624Y0090417D01*
X0024105Y0091540D01*
X0024614Y0092650D01*
X0025150Y0093748D01*
X0025712Y0094833D01*
X0026302Y0095903D01*
X0026917Y0096959D01*
X0027558Y0097999D01*
X0028224Y0099024D01*
X0028915Y0100031D01*
X0029631Y0101021D01*
X0030371Y0101994D01*
X0031134Y0102948D01*
X0031921Y0103883D01*
X0032730Y0104798D01*
X0033562Y0105693D01*
X0034415Y0106568D01*
X0035290Y0107421D01*
X0036185Y0108253D01*
X0037100Y0109062D01*
X0038035Y0109849D01*
X0038989Y0110612D01*
X0039962Y0111352D01*
X0040952Y0112068D01*
X0041959Y0112759D01*
X0042984Y0113425D01*
X0044024Y0114066D01*
X0045080Y0114681D01*
X0046150Y0115271D01*
X0047235Y0115833D01*
X0048333Y0116369D01*
X0049443Y0116878D01*
X0050566Y0117359D01*
X0051701Y0117813D01*
X0052846Y0118239D01*
X0054002Y0118636D01*
X0055166Y0119005D01*
X0056340Y0119346D01*
X0057521Y0119657D01*
X0058710Y0119939D01*
X0059906Y0120192D01*
X0061107Y0120416D01*
X0062313Y0120610D01*
X0063524Y0120775D01*
X0064738Y0120909D01*
X0065956Y0121014D01*
X0067175Y0121089D01*
X0068396Y0121134D01*
X0069618Y0121149D01*
X0070840Y0121134D01*
X0072061Y0121089D01*
X0073280Y0121014D01*
X0074498Y0120909D01*
X0075712Y0120775D01*
X0076923Y0120610D01*
X0078129Y0120416D01*
X0079330Y0120192D01*
X0080526Y0119939D01*
X0081715Y0119657D01*
X0082896Y0119346D01*
X0084070Y0119005D01*
X0085234Y0118636D01*
X0086390Y0118239D01*
X0087535Y0117813D01*
X0088670Y0117359D01*
X0089793Y0116878D01*
X0090903Y0116369D01*
X0092001Y0115833D01*
X0093086Y0115271D01*
X0094156Y0114681D01*
X0095212Y0114066D01*
X0096252Y0113425D01*
X0097277Y0112759D01*
X0098284Y0112068D01*
X0099274Y0111352D01*
X0100247Y0110612D01*
X0101201Y0109849D01*
X0102136Y0109062D01*
X0103051Y0108253D01*
X0103946Y0107421D01*
X0104821Y0106568D01*
X0105674Y0105693D01*
X0106506Y0104798D01*
X0107315Y0103883D01*
X0108102Y0102948D01*
X0108865Y0101994D01*
X0109605Y0101021D01*
X0110321Y0100031D01*
X0111012Y0099024D01*
X0111678Y0097999D01*
X0112319Y0096959D01*
X0112934Y0095903D01*
X0113524Y0094833D01*
X0114086Y0093748D01*
X0114622Y0092650D01*
X0115131Y0091540D01*
X0115612Y0090417D01*
X0116066Y0089282D01*
X0116492Y0088137D01*
X0116889Y0086981D01*
X0117258Y0085817D01*
X0117599Y0084643D01*
X0117910Y0083462D01*
X0118192Y0082273D01*
X0118445Y0081077D01*
X0118669Y0079876D01*
X0118863Y0078670D01*
X0119028Y0077459D01*
X0119162Y0076245D01*
X0119267Y0075027D01*
X0119342Y0073808D01*
X0119387Y0072587D01*
X0119402Y0071365D01*
X0119387Y0070143D01*
X0119342Y0068922D01*
X0119267Y0067703D01*
X0119162Y0066485D01*
X0119028Y0065271D01*
X0118863Y0064060D01*
X0118669Y0062854D01*
X0118445Y0061653D01*
X0118192Y0060457D01*
X0117910Y0059268D01*
X0117599Y0058087D01*
X0117258Y0056913D01*
X0116889Y0055749D01*
X0116492Y0054593D01*
X0116066Y0053448D01*
X0115612Y0052313D01*
X0115131Y0051190D01*
X0114622Y0050080D01*
X0114086Y0048982D01*
X0113524Y0047897D01*
X0112934Y0046827D01*
X0112319Y0045771D01*
X0111678Y0044731D01*
X0111012Y0043706D01*
X0110321Y0042699D01*
X0109605Y0041709D01*
X0108865Y0040736D01*
X0108102Y0039782D01*
X0107315Y0038847D01*
X0106506Y0037932D01*
X0105674Y0037037D01*
X0104821Y0036162D01*
X0103946Y0035309D01*
X0103051Y0034477D01*
X0102136Y0033668D01*
X0101201Y0032881D01*
X0100247Y0032118D01*
X0099274Y0031378D01*
X0098284Y0030662D01*
X0097277Y0029971D01*
X0096252Y0029305D01*
X0095212Y0028664D01*
X0094156Y0028049D01*
X0093086Y0027459D01*
X0092001Y0026897D01*
X0090903Y0026361D01*
X0089793Y0025852D01*
X0088670Y0025371D01*
X0087535Y0024917D01*
X0086390Y0024491D01*
X0085234Y0024094D01*
X0084070Y0023725D01*
X0082896Y0023384D01*
X0081715Y0023073D01*
X0080526Y0022791D01*
X0079330Y0022538D01*
X0078129Y0022314D01*
X0076923Y0022120D01*
X0075712Y0021955D01*
X0074498Y0021821D01*
X0073280Y0021716D01*
X0072061Y0021641D01*
X0070840Y0021596D01*
X0069618Y0021581D01*
X0068396Y0021596D01*
X0067175Y0021641D01*
X0065956Y0021716D01*
X0064738Y0021821D01*
X0063524Y0021955D01*
X0062313Y0022120D01*
X0061107Y0022314D01*
X0059906Y0022538D01*
X0058710Y0022791D01*
X0057521Y0023073D01*
X0056340Y0023384D01*
X0055166Y0023725D01*
X0054002Y0024094D01*
X0052846Y0024491D01*
X0051701Y0024917D01*
X0050566Y0025371D01*
X0049443Y0025852D01*
X0048333Y0026361D01*
X0047235Y0026897D01*
X0046150Y0027459D01*
X0045080Y0028049D01*
X0044024Y0028664D01*
X0042984Y0029305D01*
X0041959Y0029971D01*
X0040952Y0030662D01*
X0039962Y0031378D01*
X0038989Y0032118D01*
X0038035Y0032881D01*
X0037100Y0033668D01*
X0036185Y0034477D01*
X0035290Y0035309D01*
X0034415Y0036162D01*
X0033562Y0037037D01*
X0032730Y0037932D01*
X0031921Y0038847D01*
X0031134Y0039782D01*
X0030371Y0040736D01*
X0029631Y0041709D01*
X0028915Y0042699D01*
X0028224Y0043706D01*
X0027558Y0044731D01*
X0026917Y0045771D01*
X0026302Y0046827D01*
X0025712Y0047897D01*
X0025150Y0048982D01*
X0024614Y0050080D01*
X0024105Y0051190D01*
X0023624Y0052313D01*
X0023170Y0053448D01*
X0022744Y0054593D01*
X0022347Y0055749D01*
X0021978Y0056913D01*
X0021637Y0058087D01*
X0021326Y0059268D01*
X0021044Y0060457D01*
X0020791Y0061653D01*
X0020567Y0062854D01*
X0020373Y0064060D01*
X0020208Y0065271D01*
X0020074Y0066485D01*
X0019969Y0067703D01*
X0019894Y0068922D01*
X0019849Y0070143D01*
X0019834Y0071365D01*
D11*
X0076161Y0144256D03*
D12*
X0076336Y0135994D03*
X0074368Y0135994D03*
X0072399Y0135994D03*
X0078305Y0135994D03*
X0080273Y0135994D03*
X0080101Y0152563D03*
X0078133Y0152563D03*
X0076164Y0152563D03*
X0074196Y0152563D03*
X0072227Y0152563D03*
D13*
X0067966Y0148130D03*
X0067966Y0146161D03*
X0067966Y0144193D03*
X0067966Y0142224D03*
X0067966Y0140256D03*
X0084535Y0140428D03*
X0084535Y0142396D03*
X0084535Y0144365D03*
X0084535Y0146333D03*
X0084535Y0148302D03*
D14*
X0023738Y0147472D03*
X0023738Y0121913D03*
X0182656Y0136613D03*
X0182654Y0176764D03*
D15*
X0169939Y0166672D03*
X0169939Y0161672D03*
X0169939Y0156672D03*
X0169939Y0151672D03*
X0169939Y0146672D03*
X0012863Y0137323D03*
X0012863Y0132323D03*
D16*
X0025723Y0167662D03*
X0051282Y0167662D03*
X0066378Y0167839D03*
X0091938Y0167839D03*
D17*
X0081788Y0178715D03*
X0076788Y0178715D03*
X0043663Y0178531D03*
X0038663Y0178531D03*
X0033663Y0178531D03*
D18*
X0137198Y0108765D03*
X0163958Y0108767D03*
D19*
X0154540Y0132338D03*
X0146697Y0132330D03*
D20*
X0150302Y0157043D03*
X0155420Y0157043D03*
X0155420Y0162114D03*
X0150302Y0162114D03*
X0102553Y0157418D03*
X0097435Y0157418D03*
X0099009Y0145464D03*
X0099009Y0141095D03*
X0099009Y0136533D03*
X0093891Y0136533D03*
X0093891Y0141095D03*
X0093891Y0145464D03*
X0089832Y0131218D03*
X0084714Y0131218D03*
X0068034Y0131218D03*
X0062916Y0131218D03*
X0049296Y0148979D03*
X0044177Y0148979D03*
X0051264Y0154452D03*
X0056382Y0154452D03*
D21*
X0036029Y0143116D03*
X0036029Y0137998D03*
X0036029Y0131568D03*
X0036029Y0126450D03*
X0091976Y0151642D03*
X0091976Y0156760D03*
D22*
X0142163Y0149207D03*
X0153187Y0149207D03*
D23*
X0196789Y0146409D03*
X0196789Y0136567D03*
X0196789Y0156252D03*
X0196789Y0166094D03*
X0196789Y0175937D03*
D24*
X0082420Y0157893D03*
X0077967Y0146355D03*
X0074113Y0146355D03*
X0074113Y0142472D03*
X0077967Y0142472D03*
X0040117Y0159048D03*
D25*
X0039881Y0153737D03*
X0052920Y0146820D03*
X0059436Y0134687D03*
X0068194Y0125278D03*
X0089515Y0136002D03*
X0089972Y0141713D03*
X0103013Y0145769D03*
X0099082Y0131307D03*
X0093091Y0131110D03*
X0124472Y0151215D03*
X0128317Y0147464D03*
X0161654Y0151682D03*
X0164307Y0151666D03*
X0177688Y0151655D03*
X0180342Y0151640D03*
X0048077Y0177757D03*
D26*
X0048173Y0177757D01*
X0048077Y0177757D02*
X0043751Y0177757D01*
X0059419Y0134725D02*
X0062393Y0131751D01*
X0068055Y0131397D02*
X0068055Y0130283D01*
X0068055Y0131397D02*
X0072274Y0135385D01*
X0090040Y0130801D02*
X0092782Y0130801D01*
X0093014Y0131033D01*
X0099963Y0145460D02*
X0102705Y0145460D01*
X0102936Y0145692D01*
X0124568Y0151215D02*
X0135435Y0162082D01*
X0150325Y0162082D01*
X0150229Y0157081D02*
X0137837Y0157081D01*
X0128220Y0147464D01*
D27*
X0145322Y0129979D02*
X0140997Y0125653D01*
X0080204Y0125653D01*
X0078334Y0127523D01*
X0078334Y0135707D01*
X0074363Y0135474D02*
X0074363Y0125703D01*
X0076564Y0123502D01*
X0151767Y0123502D01*
X0155180Y0126915D01*
X0097165Y0156707D02*
X0088563Y0156707D01*
X0084072Y0152216D01*
X0084072Y0148394D01*
X0084769Y0146272D02*
X0085922Y0146272D01*
X0087263Y0147613D01*
X0087263Y0149222D01*
X0089220Y0151179D01*
X0091446Y0151179D01*
X0093591Y0144368D02*
X0084957Y0144368D01*
X0085091Y0142384D02*
X0086485Y0142384D01*
X0087075Y0141794D01*
X0093457Y0141794D01*
X0093242Y0135948D02*
X0089515Y0135948D01*
X0085064Y0140399D01*
X0068170Y0142242D02*
X0054571Y0142242D01*
X0044281Y0131952D01*
X0014719Y0131952D01*
X0014627Y0137282D02*
X0042336Y0137282D01*
X0049242Y0144189D01*
X0068123Y0144189D01*
X0067731Y0146182D02*
X0053181Y0146182D01*
X0049983Y0149380D01*
X0056656Y0155532D02*
X0053372Y0158816D01*
X0044721Y0158816D01*
X0038634Y0164903D01*
X0038634Y0176999D01*
X0033668Y0176839D02*
X0033668Y0165384D01*
X0039996Y0159056D01*
X0057257Y0155557D02*
X0060113Y0155557D01*
X0067451Y0148219D01*
X0082353Y0157960D02*
X0076814Y0163499D01*
X0076814Y0176983D01*
D28*
X0102402Y0157500D02*
X0111521Y0166618D01*
X0187255Y0166618D01*
X0195909Y0175273D01*
X0196788Y0165736D02*
X0192941Y0161890D01*
X0156029Y0161890D01*
X0156126Y0156600D02*
X0196692Y0156600D01*
X0099230Y0131316D02*
X0095078Y0127136D01*
X0085388Y0127136D01*
X0084513Y0128011D01*
X0084513Y0131364D01*
X0080268Y0135609D01*
X0051002Y0153737D02*
X0039881Y0153737D01*
X0039789Y0153737D01*
X0035942Y0149890D01*
X0035942Y0143308D01*
X0044144Y0148963D02*
X0044144Y0153552D01*
D29*
X0068194Y0130423D02*
X0068194Y0125139D01*
X0038075Y0125139D01*
X0036267Y0126900D01*
X0099230Y0131316D02*
X0118466Y0131289D01*
X0129539Y0142362D01*
X0165017Y0142362D01*
X0169189Y0146533D01*
X0186871Y0146533D01*
X0196938Y0136466D01*
X0196827Y0146367D02*
X0191543Y0151650D01*
X0161570Y0151650D01*
X0158845Y0148925D01*
X0153729Y0148925D01*
X0141003Y0149484D02*
X0141003Y0142943D01*
D30*
X0125297Y0138135D02*
X0111908Y0151524D01*
X0091837Y0151524D01*
X0099153Y0141113D02*
X0099153Y0131303D01*
M02*
