G75*
%MOIN*%
%OFA0B0*%
%FSLAX25Y25*%
%IPPOS*%
%LPD*%
%AMOC8*
5,1,8,0,0,1.08239X$1,22.5*
%
%ADD10C,0.00600*%
%ADD11R,0.00120X0.00030*%
%ADD12R,0.01350X0.00030*%
%ADD13R,0.01920X0.00030*%
%ADD14R,0.02370X0.00030*%
%ADD15R,0.02760X0.00030*%
%ADD16R,0.03360X0.00030*%
%ADD17R,0.03600X0.00030*%
%ADD18R,0.03840X0.00030*%
%ADD19R,0.04080X0.00030*%
%ADD20R,0.04500X0.00030*%
%ADD21R,0.04680X0.00030*%
%ADD22R,0.04920X0.00030*%
%ADD23R,0.05100X0.00030*%
%ADD24R,0.05340X0.00030*%
%ADD25R,0.05580X0.00030*%
%ADD26R,0.05760X0.00030*%
%ADD27R,0.05910X0.00030*%
%ADD28R,0.06060X0.00030*%
%ADD29R,0.06330X0.00030*%
%ADD30R,0.06480X0.00030*%
%ADD31R,0.06600X0.00030*%
%ADD32R,0.06780X0.00030*%
%ADD33R,0.07020X0.00030*%
%ADD34R,0.07140X0.00030*%
%ADD35R,0.07260X0.00030*%
%ADD36R,0.07380X0.00030*%
%ADD37R,0.07560X0.00030*%
%ADD38R,0.07740X0.00030*%
%ADD39R,0.07800X0.00030*%
%ADD40R,0.07920X0.00030*%
%ADD41R,0.08070X0.00030*%
%ADD42R,0.08280X0.00030*%
%ADD43R,0.08340X0.00030*%
%ADD44R,0.08460X0.00030*%
%ADD45R,0.08580X0.00030*%
%ADD46R,0.08760X0.00030*%
%ADD47R,0.08850X0.00030*%
%ADD48R,0.03870X0.00030*%
%ADD49R,0.03750X0.00030*%
%ADD50R,0.03660X0.00030*%
%ADD51R,0.03540X0.00030*%
%ADD52R,0.03240X0.00030*%
%ADD53R,0.03270X0.00030*%
%ADD54R,0.03120X0.00030*%
%ADD55R,0.03150X0.00030*%
%ADD56R,0.03060X0.00030*%
%ADD57R,0.02940X0.00030*%
%ADD58R,0.02820X0.00030*%
%ADD59R,0.02880X0.00030*%
%ADD60R,0.02850X0.00030*%
%ADD61R,0.02700X0.00030*%
%ADD62R,0.02640X0.00030*%
%ADD63R,0.02730X0.00030*%
%ADD64R,0.02610X0.00030*%
%ADD65R,0.02520X0.00030*%
%ADD66R,0.02580X0.00030*%
%ADD67R,0.02460X0.00030*%
%ADD68R,0.02430X0.00030*%
%ADD69R,0.02400X0.00030*%
%ADD70R,0.02310X0.00030*%
%ADD71R,0.02280X0.00030*%
%ADD72R,0.02220X0.00030*%
%ADD73R,0.02190X0.00030*%
%ADD74R,0.02160X0.00030*%
%ADD75R,0.02130X0.00030*%
%ADD76R,0.02250X0.00030*%
%ADD77R,0.02190X0.00030*%
%ADD78R,0.02100X0.00030*%
%ADD79R,0.02070X0.00030*%
%ADD80R,0.02040X0.00030*%
%ADD81R,0.02010X0.00030*%
%ADD82R,0.01980X0.00030*%
%ADD83R,0.01950X0.00030*%
%ADD84R,0.02040X0.00030*%
%ADD85R,0.01920X0.00030*%
%ADD86R,0.01860X0.00030*%
%ADD87R,0.01830X0.00030*%
%ADD88R,0.01770X0.00030*%
%ADD89R,0.01800X0.00030*%
%ADD90R,0.01770X0.00030*%
%ADD91R,0.01740X0.00030*%
%ADD92R,0.01740X0.00030*%
%ADD93R,0.01680X0.00030*%
%ADD94R,0.01650X0.00030*%
%ADD95R,0.01620X0.00030*%
%ADD96R,0.01620X0.00030*%
%ADD97R,0.01710X0.00030*%
%ADD98R,0.01590X0.00030*%
%ADD99R,0.01590X0.00030*%
%ADD100R,0.01560X0.00030*%
%ADD101R,0.01530X0.00030*%
%ADD102R,0.01500X0.00030*%
%ADD103R,0.01470X0.00030*%
%ADD104R,0.01470X0.00030*%
%ADD105R,0.01440X0.00030*%
%ADD106R,0.01440X0.00030*%
%ADD107R,0.01410X0.00030*%
%ADD108R,0.00360X0.00030*%
%ADD109R,0.00330X0.00030*%
%ADD110R,0.00600X0.00030*%
%ADD111R,0.01380X0.00030*%
%ADD112R,0.00840X0.00030*%
%ADD113R,0.00810X0.00030*%
%ADD114R,0.00900X0.00030*%
%ADD115R,0.00990X0.00030*%
%ADD116R,0.01050X0.00030*%
%ADD117R,0.01170X0.00030*%
%ADD118R,0.01140X0.00030*%
%ADD119R,0.01260X0.00030*%
%ADD120R,0.01230X0.00030*%
%ADD121R,0.01320X0.00030*%
%ADD122R,0.01290X0.00030*%
%ADD123R,0.01890X0.00030*%
%ADD124R,0.01890X0.00030*%
%ADD125R,0.02370X0.00030*%
%ADD126R,0.02490X0.00030*%
%ADD127R,0.02220X0.00030*%
%ADD128R,0.01320X0.00030*%
%ADD129R,0.02820X0.00030*%
%ADD130R,0.02910X0.00030*%
%ADD131R,0.02970X0.00030*%
%ADD132R,0.03000X0.00030*%
%ADD133R,0.03030X0.00030*%
%ADD134R,0.03090X0.00030*%
%ADD135R,0.03180X0.00030*%
%ADD136R,0.01290X0.00030*%
%ADD137R,0.03330X0.00030*%
%ADD138R,0.03390X0.00030*%
%ADD139R,0.03420X0.00030*%
%ADD140R,0.02340X0.00030*%
%ADD141R,0.03450X0.00030*%
%ADD142R,0.01170X0.00030*%
%ADD143R,0.01140X0.00030*%
%ADD144R,0.01110X0.00030*%
%ADD145R,0.01200X0.00030*%
%ADD146R,0.01080X0.00030*%
%ADD147R,0.02340X0.00030*%
%ADD148R,0.04620X0.00030*%
%ADD149R,0.04560X0.00030*%
%ADD150R,0.04440X0.00030*%
%ADD151R,0.04410X0.00030*%
%ADD152R,0.04380X0.00030*%
%ADD153R,0.04320X0.00030*%
%ADD154R,0.04260X0.00030*%
%ADD155R,0.04200X0.00030*%
%ADD156R,0.04140X0.00030*%
%ADD157R,0.01020X0.00030*%
%ADD158R,0.04020X0.00030*%
%ADD159R,0.03960X0.00030*%
%ADD160R,0.03900X0.00030*%
%ADD161R,0.03780X0.00030*%
%ADD162R,0.03720X0.00030*%
%ADD163R,0.03630X0.00030*%
%ADD164R,0.03570X0.00030*%
%ADD165R,0.03480X0.00030*%
%ADD166R,0.01020X0.00030*%
%ADD167R,0.03300X0.00030*%
%ADD168R,0.03210X0.00030*%
%ADD169R,0.02970X0.00030*%
%ADD170R,0.02790X0.00030*%
%ADD171R,0.02670X0.00030*%
%ADD172R,0.02550X0.00030*%
%ADD173R,0.02520X0.00030*%
%ADD174R,0.03510X0.00030*%
%ADD175R,0.03690X0.00030*%
%ADD176R,0.03810X0.00030*%
%ADD177R,0.03930X0.00030*%
%ADD178R,0.03990X0.00030*%
%ADD179R,0.04290X0.00030*%
%ADD180R,0.04350X0.00030*%
%ADD181R,0.04470X0.00030*%
%ADD182R,0.04530X0.00030*%
%ADD183R,0.04590X0.00030*%
%ADD184R,0.06210X0.00030*%
%ADD185R,0.06510X0.00030*%
%ADD186R,0.06690X0.00030*%
%ADD187R,0.06870X0.00030*%
%ADD188R,0.06960X0.00030*%
%ADD189R,0.07050X0.00030*%
%ADD190R,0.07140X0.00030*%
%ADD191R,0.07290X0.00030*%
%ADD192R,0.07350X0.00030*%
%ADD193R,0.07410X0.00030*%
%ADD194R,0.09810X0.00030*%
%ADD195R,0.09780X0.00030*%
%ADD196R,0.11100X0.00030*%
%ADD197R,0.11040X0.00030*%
%ADD198R,0.03270X0.00030*%
%ADD199R,0.10980X0.00030*%
%ADD200R,0.10950X0.00030*%
%ADD201R,0.10890X0.00030*%
%ADD202R,0.03090X0.00030*%
%ADD203R,0.10830X0.00030*%
%ADD204R,0.10770X0.00030*%
%ADD205R,0.10710X0.00030*%
%ADD206R,0.10650X0.00030*%
%ADD207R,0.10620X0.00030*%
%ADD208R,0.10590X0.00030*%
%ADD209R,0.10560X0.00030*%
%ADD210R,0.10530X0.00030*%
%ADD211R,0.10500X0.00030*%
%ADD212R,0.10440X0.00030*%
%ADD213R,0.10380X0.00030*%
%ADD214R,0.10320X0.00030*%
%ADD215R,0.10290X0.00030*%
%ADD216R,0.10230X0.00030*%
%ADD217R,0.10170X0.00030*%
%ADD218R,0.10110X0.00030*%
%ADD219R,0.10050X0.00030*%
%ADD220R,0.10020X0.00030*%
%ADD221R,0.09960X0.00030*%
%ADD222R,0.08400X0.00030*%
%ADD223R,0.08370X0.00030*%
%ADD224R,0.02070X0.00030*%
%ADD225R,0.08310X0.00030*%
%ADD226R,0.08250X0.00030*%
%ADD227R,0.08160X0.00030*%
%ADD228R,0.08070X0.00030*%
%ADD229R,0.00960X0.00030*%
%ADD230R,0.00840X0.00030*%
%ADD231R,0.08010X0.00030*%
%ADD232R,0.00750X0.00030*%
%ADD233R,0.07830X0.00030*%
%ADD234R,0.00570X0.00030*%
%ADD235R,0.07740X0.00030*%
%ADD236R,0.00390X0.00030*%
%ADD237R,0.02670X0.00030*%
%ADD238R,0.04020X0.00030*%
%ADD239R,0.09060X0.00030*%
%ADD240R,0.08940X0.00030*%
%ADD241C,0.00400*%
%ADD242C,0.00300*%
%ADD243C,0.00200*%
%ADD244C,0.00800*%
D10*
X0010011Y0007670D02*
X0128330Y0008113D01*
X0128299Y0008120D02*
X0128434Y0008122D01*
X0128568Y0008128D01*
X0128703Y0008138D01*
X0128837Y0008151D01*
X0128970Y0008169D01*
X0129104Y0008190D01*
X0129236Y0008216D01*
X0129367Y0008245D01*
X0129498Y0008278D01*
X0129628Y0008315D01*
X0129756Y0008355D01*
X0129884Y0008399D01*
X0130010Y0008447D01*
X0130134Y0008499D01*
X0130257Y0008554D01*
X0130378Y0008613D01*
X0130498Y0008675D01*
X0130615Y0008741D01*
X0130731Y0008810D01*
X0130845Y0008882D01*
X0130956Y0008958D01*
X0131066Y0009037D01*
X0131173Y0009119D01*
X0131277Y0009204D01*
X0131379Y0009292D01*
X0131478Y0009383D01*
X0131575Y0009477D01*
X0131669Y0009574D01*
X0131760Y0009673D01*
X0131848Y0009775D01*
X0131933Y0009879D01*
X0132015Y0009986D01*
X0132094Y0010096D01*
X0132170Y0010207D01*
X0132242Y0010321D01*
X0132311Y0010436D01*
X0132377Y0010554D01*
X0132439Y0010674D01*
X0132498Y0010795D01*
X0132553Y0010918D01*
X0132605Y0011042D01*
X0132653Y0011168D01*
X0132697Y0011296D01*
X0132737Y0011424D01*
X0132774Y0011554D01*
X0132807Y0011685D01*
X0132836Y0011816D01*
X0132862Y0011948D01*
X0132883Y0012082D01*
X0132901Y0012215D01*
X0132914Y0012349D01*
X0132924Y0012484D01*
X0132930Y0012618D01*
X0132932Y0012753D01*
X0132929Y0012656D02*
X0132929Y0096228D01*
X0132932Y0096286D02*
X0132934Y0096421D01*
X0132940Y0096555D01*
X0132950Y0096690D01*
X0132963Y0096824D01*
X0132981Y0096957D01*
X0133002Y0097091D01*
X0133028Y0097223D01*
X0133057Y0097354D01*
X0133090Y0097485D01*
X0133127Y0097615D01*
X0133167Y0097743D01*
X0133211Y0097871D01*
X0133259Y0097997D01*
X0133311Y0098121D01*
X0133366Y0098244D01*
X0133425Y0098365D01*
X0133487Y0098485D01*
X0133553Y0098603D01*
X0133622Y0098718D01*
X0133694Y0098832D01*
X0133770Y0098943D01*
X0133849Y0099053D01*
X0133931Y0099160D01*
X0134016Y0099264D01*
X0134104Y0099366D01*
X0134195Y0099465D01*
X0134289Y0099562D01*
X0134386Y0099656D01*
X0134485Y0099747D01*
X0134587Y0099835D01*
X0134691Y0099920D01*
X0134798Y0100002D01*
X0134908Y0100081D01*
X0135019Y0100157D01*
X0135133Y0100229D01*
X0135249Y0100298D01*
X0135366Y0100364D01*
X0135486Y0100426D01*
X0135607Y0100485D01*
X0135730Y0100540D01*
X0135854Y0100592D01*
X0135980Y0100640D01*
X0136108Y0100684D01*
X0136236Y0100724D01*
X0136366Y0100761D01*
X0136497Y0100794D01*
X0136628Y0100823D01*
X0136760Y0100849D01*
X0136894Y0100870D01*
X0137027Y0100888D01*
X0137161Y0100901D01*
X0137296Y0100911D01*
X0137430Y0100917D01*
X0137565Y0100919D01*
X0137537Y0100924D02*
X0197588Y0101037D01*
X0197522Y0101022D02*
X0197657Y0101024D01*
X0197791Y0101030D01*
X0197926Y0101040D01*
X0198060Y0101053D01*
X0198193Y0101071D01*
X0198327Y0101092D01*
X0198459Y0101118D01*
X0198590Y0101147D01*
X0198721Y0101180D01*
X0198851Y0101217D01*
X0198979Y0101257D01*
X0199107Y0101301D01*
X0199233Y0101349D01*
X0199357Y0101401D01*
X0199480Y0101456D01*
X0199601Y0101515D01*
X0199721Y0101577D01*
X0199838Y0101643D01*
X0199954Y0101712D01*
X0200068Y0101784D01*
X0200179Y0101860D01*
X0200289Y0101939D01*
X0200396Y0102021D01*
X0200500Y0102106D01*
X0200602Y0102194D01*
X0200701Y0102285D01*
X0200798Y0102379D01*
X0200892Y0102476D01*
X0200983Y0102575D01*
X0201071Y0102677D01*
X0201156Y0102781D01*
X0201238Y0102888D01*
X0201317Y0102998D01*
X0201393Y0103109D01*
X0201465Y0103223D01*
X0201534Y0103338D01*
X0201600Y0103456D01*
X0201662Y0103576D01*
X0201721Y0103697D01*
X0201776Y0103820D01*
X0201828Y0103944D01*
X0201876Y0104070D01*
X0201920Y0104198D01*
X0201960Y0104326D01*
X0201997Y0104456D01*
X0202030Y0104587D01*
X0202059Y0104718D01*
X0202085Y0104850D01*
X0202106Y0104984D01*
X0202124Y0105117D01*
X0202137Y0105251D01*
X0202147Y0105386D01*
X0202153Y0105520D01*
X0202155Y0105655D01*
X0202151Y0105538D02*
X0202112Y0180400D01*
X0202156Y0180345D02*
X0202154Y0180480D01*
X0202148Y0180614D01*
X0202138Y0180749D01*
X0202125Y0180883D01*
X0202107Y0181016D01*
X0202086Y0181150D01*
X0202060Y0181282D01*
X0202031Y0181413D01*
X0201998Y0181544D01*
X0201961Y0181674D01*
X0201921Y0181802D01*
X0201877Y0181930D01*
X0201829Y0182056D01*
X0201777Y0182180D01*
X0201722Y0182303D01*
X0201663Y0182424D01*
X0201601Y0182544D01*
X0201535Y0182662D01*
X0201466Y0182777D01*
X0201394Y0182891D01*
X0201318Y0183002D01*
X0201239Y0183112D01*
X0201157Y0183219D01*
X0201072Y0183323D01*
X0200984Y0183425D01*
X0200893Y0183524D01*
X0200799Y0183621D01*
X0200702Y0183715D01*
X0200603Y0183806D01*
X0200501Y0183894D01*
X0200397Y0183979D01*
X0200290Y0184061D01*
X0200180Y0184140D01*
X0200069Y0184216D01*
X0199955Y0184288D01*
X0199840Y0184357D01*
X0199722Y0184423D01*
X0199602Y0184485D01*
X0199481Y0184544D01*
X0199358Y0184599D01*
X0199234Y0184651D01*
X0199108Y0184699D01*
X0198980Y0184743D01*
X0198852Y0184783D01*
X0198722Y0184820D01*
X0198591Y0184853D01*
X0198460Y0184882D01*
X0198328Y0184908D01*
X0198194Y0184929D01*
X0198061Y0184947D01*
X0197927Y0184960D01*
X0197792Y0184970D01*
X0197658Y0184976D01*
X0197523Y0184978D01*
X0197522Y0184979D02*
X0182619Y0184836D01*
X0182624Y0184834D02*
X0010591Y0184776D01*
X0010596Y0184795D02*
X0010192Y0184795D01*
X0010057Y0184793D01*
X0009923Y0184787D01*
X0009788Y0184777D01*
X0009654Y0184764D01*
X0009521Y0184746D01*
X0009387Y0184725D01*
X0009255Y0184699D01*
X0009124Y0184670D01*
X0008993Y0184637D01*
X0008863Y0184600D01*
X0008735Y0184560D01*
X0008607Y0184516D01*
X0008481Y0184468D01*
X0008357Y0184416D01*
X0008234Y0184361D01*
X0008113Y0184302D01*
X0007993Y0184240D01*
X0007876Y0184174D01*
X0007760Y0184105D01*
X0007646Y0184033D01*
X0007535Y0183957D01*
X0007425Y0183878D01*
X0007318Y0183796D01*
X0007214Y0183711D01*
X0007112Y0183623D01*
X0007013Y0183532D01*
X0006916Y0183438D01*
X0006822Y0183341D01*
X0006731Y0183242D01*
X0006643Y0183140D01*
X0006558Y0183036D01*
X0006476Y0182929D01*
X0006397Y0182819D01*
X0006321Y0182708D01*
X0006249Y0182594D01*
X0006180Y0182479D01*
X0006114Y0182361D01*
X0006052Y0182241D01*
X0005993Y0182120D01*
X0005938Y0181997D01*
X0005886Y0181873D01*
X0005838Y0181747D01*
X0005794Y0181619D01*
X0005754Y0181491D01*
X0005717Y0181361D01*
X0005684Y0181230D01*
X0005655Y0181099D01*
X0005629Y0180967D01*
X0005608Y0180833D01*
X0005590Y0180700D01*
X0005577Y0180566D01*
X0005567Y0180431D01*
X0005561Y0180297D01*
X0005559Y0180162D01*
X0005580Y0180197D02*
X0005459Y0012177D01*
X0005460Y0012317D02*
X0005462Y0012182D01*
X0005468Y0012048D01*
X0005478Y0011913D01*
X0005491Y0011779D01*
X0005509Y0011646D01*
X0005530Y0011512D01*
X0005556Y0011380D01*
X0005585Y0011249D01*
X0005618Y0011118D01*
X0005655Y0010988D01*
X0005695Y0010860D01*
X0005739Y0010732D01*
X0005787Y0010606D01*
X0005839Y0010482D01*
X0005894Y0010359D01*
X0005953Y0010238D01*
X0006015Y0010118D01*
X0006081Y0010000D01*
X0006150Y0009885D01*
X0006222Y0009771D01*
X0006298Y0009660D01*
X0006377Y0009550D01*
X0006459Y0009443D01*
X0006544Y0009339D01*
X0006632Y0009237D01*
X0006723Y0009138D01*
X0006817Y0009041D01*
X0006914Y0008947D01*
X0007013Y0008856D01*
X0007115Y0008768D01*
X0007219Y0008683D01*
X0007326Y0008601D01*
X0007436Y0008522D01*
X0007547Y0008446D01*
X0007661Y0008374D01*
X0007777Y0008305D01*
X0007894Y0008239D01*
X0008014Y0008177D01*
X0008135Y0008118D01*
X0008258Y0008063D01*
X0008382Y0008011D01*
X0008508Y0007963D01*
X0008636Y0007919D01*
X0008764Y0007879D01*
X0008894Y0007842D01*
X0009025Y0007809D01*
X0009156Y0007780D01*
X0009288Y0007754D01*
X0009422Y0007733D01*
X0009555Y0007715D01*
X0009689Y0007702D01*
X0009824Y0007692D01*
X0009958Y0007686D01*
X0010093Y0007684D01*
X0019834Y0071365D02*
X0019849Y0072587D01*
X0019894Y0073808D01*
X0019969Y0075027D01*
X0020074Y0076245D01*
X0020208Y0077459D01*
X0020373Y0078670D01*
X0020567Y0079876D01*
X0020791Y0081077D01*
X0021044Y0082273D01*
X0021326Y0083462D01*
X0021637Y0084643D01*
X0021978Y0085817D01*
X0022347Y0086981D01*
X0022744Y0088137D01*
X0023170Y0089282D01*
X0023624Y0090417D01*
X0024105Y0091540D01*
X0024614Y0092650D01*
X0025150Y0093748D01*
X0025712Y0094833D01*
X0026302Y0095903D01*
X0026917Y0096959D01*
X0027558Y0097999D01*
X0028224Y0099024D01*
X0028915Y0100031D01*
X0029631Y0101021D01*
X0030371Y0101994D01*
X0031134Y0102948D01*
X0031921Y0103883D01*
X0032730Y0104798D01*
X0033562Y0105693D01*
X0034415Y0106568D01*
X0035290Y0107421D01*
X0036185Y0108253D01*
X0037100Y0109062D01*
X0038035Y0109849D01*
X0038989Y0110612D01*
X0039962Y0111352D01*
X0040952Y0112068D01*
X0041959Y0112759D01*
X0042984Y0113425D01*
X0044024Y0114066D01*
X0045080Y0114681D01*
X0046150Y0115271D01*
X0047235Y0115833D01*
X0048333Y0116369D01*
X0049443Y0116878D01*
X0050566Y0117359D01*
X0051701Y0117813D01*
X0052846Y0118239D01*
X0054002Y0118636D01*
X0055166Y0119005D01*
X0056340Y0119346D01*
X0057521Y0119657D01*
X0058710Y0119939D01*
X0059906Y0120192D01*
X0061107Y0120416D01*
X0062313Y0120610D01*
X0063524Y0120775D01*
X0064738Y0120909D01*
X0065956Y0121014D01*
X0067175Y0121089D01*
X0068396Y0121134D01*
X0069618Y0121149D01*
X0070840Y0121134D01*
X0072061Y0121089D01*
X0073280Y0121014D01*
X0074498Y0120909D01*
X0075712Y0120775D01*
X0076923Y0120610D01*
X0078129Y0120416D01*
X0079330Y0120192D01*
X0080526Y0119939D01*
X0081715Y0119657D01*
X0082896Y0119346D01*
X0084070Y0119005D01*
X0085234Y0118636D01*
X0086390Y0118239D01*
X0087535Y0117813D01*
X0088670Y0117359D01*
X0089793Y0116878D01*
X0090903Y0116369D01*
X0092001Y0115833D01*
X0093086Y0115271D01*
X0094156Y0114681D01*
X0095212Y0114066D01*
X0096252Y0113425D01*
X0097277Y0112759D01*
X0098284Y0112068D01*
X0099274Y0111352D01*
X0100247Y0110612D01*
X0101201Y0109849D01*
X0102136Y0109062D01*
X0103051Y0108253D01*
X0103946Y0107421D01*
X0104821Y0106568D01*
X0105674Y0105693D01*
X0106506Y0104798D01*
X0107315Y0103883D01*
X0108102Y0102948D01*
X0108865Y0101994D01*
X0109605Y0101021D01*
X0110321Y0100031D01*
X0111012Y0099024D01*
X0111678Y0097999D01*
X0112319Y0096959D01*
X0112934Y0095903D01*
X0113524Y0094833D01*
X0114086Y0093748D01*
X0114622Y0092650D01*
X0115131Y0091540D01*
X0115612Y0090417D01*
X0116066Y0089282D01*
X0116492Y0088137D01*
X0116889Y0086981D01*
X0117258Y0085817D01*
X0117599Y0084643D01*
X0117910Y0083462D01*
X0118192Y0082273D01*
X0118445Y0081077D01*
X0118669Y0079876D01*
X0118863Y0078670D01*
X0119028Y0077459D01*
X0119162Y0076245D01*
X0119267Y0075027D01*
X0119342Y0073808D01*
X0119387Y0072587D01*
X0119402Y0071365D01*
X0119387Y0070143D01*
X0119342Y0068922D01*
X0119267Y0067703D01*
X0119162Y0066485D01*
X0119028Y0065271D01*
X0118863Y0064060D01*
X0118669Y0062854D01*
X0118445Y0061653D01*
X0118192Y0060457D01*
X0117910Y0059268D01*
X0117599Y0058087D01*
X0117258Y0056913D01*
X0116889Y0055749D01*
X0116492Y0054593D01*
X0116066Y0053448D01*
X0115612Y0052313D01*
X0115131Y0051190D01*
X0114622Y0050080D01*
X0114086Y0048982D01*
X0113524Y0047897D01*
X0112934Y0046827D01*
X0112319Y0045771D01*
X0111678Y0044731D01*
X0111012Y0043706D01*
X0110321Y0042699D01*
X0109605Y0041709D01*
X0108865Y0040736D01*
X0108102Y0039782D01*
X0107315Y0038847D01*
X0106506Y0037932D01*
X0105674Y0037037D01*
X0104821Y0036162D01*
X0103946Y0035309D01*
X0103051Y0034477D01*
X0102136Y0033668D01*
X0101201Y0032881D01*
X0100247Y0032118D01*
X0099274Y0031378D01*
X0098284Y0030662D01*
X0097277Y0029971D01*
X0096252Y0029305D01*
X0095212Y0028664D01*
X0094156Y0028049D01*
X0093086Y0027459D01*
X0092001Y0026897D01*
X0090903Y0026361D01*
X0089793Y0025852D01*
X0088670Y0025371D01*
X0087535Y0024917D01*
X0086390Y0024491D01*
X0085234Y0024094D01*
X0084070Y0023725D01*
X0082896Y0023384D01*
X0081715Y0023073D01*
X0080526Y0022791D01*
X0079330Y0022538D01*
X0078129Y0022314D01*
X0076923Y0022120D01*
X0075712Y0021955D01*
X0074498Y0021821D01*
X0073280Y0021716D01*
X0072061Y0021641D01*
X0070840Y0021596D01*
X0069618Y0021581D01*
X0068396Y0021596D01*
X0067175Y0021641D01*
X0065956Y0021716D01*
X0064738Y0021821D01*
X0063524Y0021955D01*
X0062313Y0022120D01*
X0061107Y0022314D01*
X0059906Y0022538D01*
X0058710Y0022791D01*
X0057521Y0023073D01*
X0056340Y0023384D01*
X0055166Y0023725D01*
X0054002Y0024094D01*
X0052846Y0024491D01*
X0051701Y0024917D01*
X0050566Y0025371D01*
X0049443Y0025852D01*
X0048333Y0026361D01*
X0047235Y0026897D01*
X0046150Y0027459D01*
X0045080Y0028049D01*
X0044024Y0028664D01*
X0042984Y0029305D01*
X0041959Y0029971D01*
X0040952Y0030662D01*
X0039962Y0031378D01*
X0038989Y0032118D01*
X0038035Y0032881D01*
X0037100Y0033668D01*
X0036185Y0034477D01*
X0035290Y0035309D01*
X0034415Y0036162D01*
X0033562Y0037037D01*
X0032730Y0037932D01*
X0031921Y0038847D01*
X0031134Y0039782D01*
X0030371Y0040736D01*
X0029631Y0041709D01*
X0028915Y0042699D01*
X0028224Y0043706D01*
X0027558Y0044731D01*
X0026917Y0045771D01*
X0026302Y0046827D01*
X0025712Y0047897D01*
X0025150Y0048982D01*
X0024614Y0050080D01*
X0024105Y0051190D01*
X0023624Y0052313D01*
X0023170Y0053448D01*
X0022744Y0054593D01*
X0022347Y0055749D01*
X0021978Y0056913D01*
X0021637Y0058087D01*
X0021326Y0059268D01*
X0021044Y0060457D01*
X0020791Y0061653D01*
X0020567Y0062854D01*
X0020373Y0064060D01*
X0020208Y0065271D01*
X0020074Y0066485D01*
X0019969Y0067703D01*
X0019894Y0068922D01*
X0019849Y0070143D01*
X0019834Y0071365D01*
D11*
X0183934Y0107158D03*
X0183934Y0126658D03*
D12*
X0183949Y0126628D03*
X0184819Y0121978D03*
X0191179Y0122548D03*
X0191209Y0122518D03*
X0191269Y0122428D03*
X0191299Y0122398D03*
X0190879Y0110878D03*
X0190849Y0110818D03*
X0184819Y0110908D03*
X0183949Y0107188D03*
X0176539Y0111508D03*
X0176479Y0111598D03*
X0176419Y0111688D03*
X0176389Y0111718D03*
X0176359Y0111748D03*
X0176359Y0111778D03*
X0176329Y0111808D03*
X0176269Y0111898D03*
X0176239Y0111958D03*
D13*
X0178684Y0109408D03*
X0183934Y0107218D03*
X0188914Y0109198D03*
X0191224Y0122068D03*
X0189214Y0124378D03*
X0189184Y0124408D03*
X0189124Y0124438D03*
X0183934Y0126598D03*
X0178474Y0124198D03*
X0178414Y0124168D03*
D14*
X0179539Y0124858D03*
X0183949Y0126568D03*
X0188239Y0124948D03*
X0187849Y0116548D03*
X0179749Y0108808D03*
X0183949Y0107248D03*
D15*
X0183934Y0107278D03*
X0180364Y0108538D03*
X0187414Y0108478D03*
X0190894Y0111898D03*
X0190894Y0111928D03*
X0187834Y0116848D03*
X0191164Y0121408D03*
X0191164Y0121438D03*
X0187624Y0125218D03*
X0183934Y0126538D03*
D16*
X0183934Y0126508D03*
X0186994Y0125398D03*
X0187834Y0117328D03*
X0187834Y0117298D03*
X0187834Y0115588D03*
X0187834Y0115558D03*
X0190864Y0112408D03*
X0183934Y0107308D03*
X0181024Y0108328D03*
D17*
X0183934Y0107338D03*
X0187834Y0115378D03*
X0187834Y0117508D03*
X0181054Y0125428D03*
X0183934Y0126478D03*
D18*
X0183934Y0126448D03*
X0187834Y0117718D03*
X0187834Y0115198D03*
X0187834Y0115168D03*
X0183934Y0107368D03*
D19*
X0183934Y0107398D03*
X0187834Y0114988D03*
X0187834Y0117898D03*
X0183934Y0126418D03*
D20*
X0183934Y0126388D03*
X0187834Y0114658D03*
X0187834Y0114628D03*
X0183934Y0107428D03*
D21*
X0183934Y0107458D03*
X0183934Y0126358D03*
D22*
X0183934Y0126328D03*
X0183934Y0107488D03*
D23*
X0183934Y0107518D03*
X0183934Y0126298D03*
D24*
X0183934Y0126268D03*
X0183934Y0107548D03*
D25*
X0183934Y0107578D03*
X0183934Y0126238D03*
D26*
X0183934Y0126208D03*
X0183934Y0107608D03*
D27*
X0183949Y0107638D03*
X0183949Y0126178D03*
D28*
X0183934Y0126148D03*
X0183934Y0107668D03*
D29*
X0183949Y0107698D03*
X0183949Y0126118D03*
D30*
X0183934Y0126088D03*
X0183934Y0107728D03*
D31*
X0183934Y0107758D03*
X0183934Y0126058D03*
D32*
X0183934Y0126028D03*
X0183934Y0107788D03*
D33*
X0183934Y0107818D03*
X0183934Y0125998D03*
D34*
X0183934Y0125968D03*
X0183934Y0107848D03*
D35*
X0183934Y0107878D03*
X0180304Y0120538D03*
X0183934Y0125938D03*
D36*
X0183934Y0125908D03*
X0183934Y0107908D03*
D37*
X0183934Y0107938D03*
X0183934Y0125878D03*
D38*
X0183934Y0125848D03*
X0183934Y0107968D03*
D39*
X0183934Y0107998D03*
X0183934Y0125818D03*
D40*
X0183934Y0125788D03*
X0183934Y0108028D03*
D41*
X0183949Y0108058D03*
X0183949Y0125758D03*
D42*
X0183934Y0125728D03*
X0183934Y0108088D03*
D43*
X0183934Y0108118D03*
X0183934Y0125698D03*
D44*
X0183934Y0125668D03*
X0183934Y0108148D03*
D45*
X0183934Y0108178D03*
X0183934Y0125638D03*
D46*
X0183934Y0125608D03*
X0183934Y0108208D03*
D47*
X0183949Y0108238D03*
X0183949Y0125578D03*
D48*
X0181399Y0108268D03*
D49*
X0186529Y0108268D03*
X0187819Y0115258D03*
D50*
X0187834Y0115318D03*
X0187834Y0117568D03*
X0186754Y0125458D03*
X0181234Y0108298D03*
D51*
X0186694Y0108298D03*
X0187834Y0115438D03*
X0187834Y0117478D03*
D52*
X0187834Y0117238D03*
X0191134Y0121018D03*
X0190894Y0112318D03*
X0190894Y0112288D03*
X0186904Y0108328D03*
D53*
X0190879Y0112348D03*
X0187819Y0115648D03*
X0180919Y0108358D03*
D54*
X0187024Y0108358D03*
X0187834Y0115738D03*
X0187834Y0115768D03*
X0187834Y0117118D03*
X0187834Y0117148D03*
X0191134Y0121108D03*
D55*
X0190879Y0112228D03*
X0180829Y0108388D03*
X0180589Y0125308D03*
D56*
X0180514Y0125278D03*
X0187834Y0117088D03*
X0187834Y0115798D03*
X0187114Y0108388D03*
X0180724Y0108418D03*
D57*
X0180604Y0108448D03*
X0187204Y0108418D03*
X0190894Y0112048D03*
X0187834Y0116998D03*
X0191164Y0121288D03*
X0187414Y0125278D03*
D58*
X0191164Y0121378D03*
X0187834Y0116878D03*
X0187834Y0116008D03*
X0187324Y0108448D03*
X0180184Y0125158D03*
D59*
X0187834Y0116938D03*
X0187834Y0115948D03*
X0191164Y0121318D03*
X0180514Y0108478D03*
D60*
X0180439Y0108508D03*
X0187849Y0115978D03*
X0187849Y0116908D03*
X0191149Y0121348D03*
X0190879Y0111988D03*
D61*
X0190894Y0111868D03*
X0190894Y0111838D03*
X0187504Y0108508D03*
X0187834Y0116098D03*
X0187834Y0116788D03*
X0187834Y0116818D03*
X0191164Y0121468D03*
X0191164Y0121498D03*
X0187684Y0125188D03*
D62*
X0179944Y0125068D03*
X0187834Y0116758D03*
X0187834Y0116158D03*
X0190894Y0111808D03*
X0187564Y0108538D03*
X0180184Y0108598D03*
D63*
X0180289Y0108568D03*
X0187819Y0116068D03*
X0180109Y0125128D03*
D64*
X0179899Y0125038D03*
X0187819Y0125128D03*
X0191179Y0121558D03*
X0187849Y0116728D03*
X0190879Y0111778D03*
X0187639Y0108568D03*
D65*
X0187744Y0108598D03*
X0190894Y0111718D03*
X0180004Y0108688D03*
D66*
X0180064Y0108658D03*
X0180124Y0108628D03*
X0187834Y0116188D03*
X0187834Y0116698D03*
X0190894Y0111748D03*
X0191164Y0121588D03*
D67*
X0191164Y0121678D03*
X0188044Y0125038D03*
X0179584Y0124888D03*
X0187834Y0116608D03*
X0190894Y0111658D03*
X0190894Y0111628D03*
X0187804Y0108628D03*
X0179914Y0108718D03*
D68*
X0179839Y0108748D03*
X0187879Y0108658D03*
X0187819Y0116308D03*
X0187849Y0116578D03*
X0191179Y0121708D03*
X0191179Y0121738D03*
X0188089Y0125008D03*
X0179629Y0124918D03*
D69*
X0188164Y0124978D03*
X0187834Y0116338D03*
X0187924Y0108688D03*
X0179794Y0108778D03*
D70*
X0179659Y0108838D03*
X0185239Y0112258D03*
X0185269Y0112318D03*
X0185299Y0112378D03*
X0185329Y0112408D03*
X0185359Y0112468D03*
X0185389Y0112528D03*
X0185419Y0112558D03*
X0185449Y0112618D03*
X0185479Y0112648D03*
X0185509Y0112678D03*
X0185509Y0112708D03*
X0185539Y0112768D03*
X0185569Y0112798D03*
X0185629Y0112888D03*
X0185749Y0113068D03*
X0186139Y0113698D03*
X0186169Y0113728D03*
X0186289Y0113938D03*
X0186409Y0114118D03*
X0186439Y0114178D03*
X0186529Y0114328D03*
X0186559Y0114358D03*
X0186649Y0114508D03*
X0187849Y0116458D03*
X0187849Y0116488D03*
X0188989Y0118348D03*
X0189019Y0118378D03*
X0189139Y0118558D03*
X0189169Y0118618D03*
X0189259Y0118768D03*
X0189409Y0119008D03*
X0189559Y0119248D03*
X0189799Y0119638D03*
X0190039Y0119998D03*
X0190069Y0120028D03*
X0190069Y0120058D03*
X0190129Y0120148D03*
X0190159Y0120178D03*
X0190189Y0120238D03*
X0190219Y0120298D03*
X0190249Y0120328D03*
X0190279Y0120388D03*
X0190309Y0120418D03*
X0190309Y0120448D03*
X0190339Y0120478D03*
X0190429Y0120628D03*
X0190459Y0120658D03*
X0190459Y0120688D03*
X0191179Y0121798D03*
X0188359Y0124888D03*
X0188299Y0124918D03*
X0185239Y0120628D03*
X0185359Y0120418D03*
X0185389Y0120388D03*
X0185509Y0120178D03*
X0185629Y0119998D03*
X0185749Y0119818D03*
X0185749Y0119788D03*
X0185779Y0119758D03*
X0185869Y0119608D03*
X0185899Y0119578D03*
X0185899Y0119548D03*
X0185989Y0119428D03*
X0186019Y0119368D03*
X0186079Y0119278D03*
X0186139Y0119188D03*
X0186169Y0119128D03*
X0186229Y0119038D03*
X0186289Y0118948D03*
X0186319Y0118888D03*
X0186379Y0118798D03*
X0186409Y0118768D03*
X0186409Y0118738D03*
X0186439Y0118708D03*
X0186469Y0118648D03*
X0186529Y0118558D03*
X0186559Y0118528D03*
X0186559Y0118498D03*
X0186619Y0118408D03*
X0186649Y0118378D03*
X0189019Y0114508D03*
X0189049Y0114478D03*
X0189139Y0114328D03*
X0189169Y0114298D03*
X0189169Y0114268D03*
X0189259Y0114148D03*
X0189289Y0114088D03*
X0189349Y0113998D03*
X0189409Y0113908D03*
X0189409Y0113878D03*
X0189439Y0113848D03*
X0189499Y0113758D03*
X0189529Y0113698D03*
X0189559Y0113668D03*
X0189589Y0113608D03*
X0189649Y0113518D03*
X0189679Y0113488D03*
X0189679Y0113458D03*
X0189739Y0113368D03*
X0189799Y0113278D03*
X0189829Y0113218D03*
X0189919Y0113068D03*
X0189949Y0113038D03*
X0190039Y0112888D03*
X0190069Y0112858D03*
X0190069Y0112828D03*
X0190189Y0112648D03*
X0190879Y0111538D03*
X0188089Y0108748D03*
X0188029Y0108718D03*
X0179359Y0124768D03*
D71*
X0179314Y0124738D03*
X0185254Y0120598D03*
X0185284Y0120568D03*
X0185284Y0120538D03*
X0185314Y0120508D03*
X0185344Y0120478D03*
X0185344Y0120448D03*
X0185404Y0120358D03*
X0185434Y0120298D03*
X0185464Y0120268D03*
X0185494Y0120238D03*
X0185494Y0120208D03*
X0185524Y0120148D03*
X0185554Y0120118D03*
X0185584Y0120088D03*
X0185584Y0120058D03*
X0185614Y0120028D03*
X0185644Y0119968D03*
X0185674Y0119938D03*
X0185674Y0119908D03*
X0185704Y0119878D03*
X0185734Y0119848D03*
X0185794Y0119728D03*
X0185824Y0119698D03*
X0185824Y0119668D03*
X0185854Y0119638D03*
X0185914Y0119518D03*
X0185944Y0119488D03*
X0185974Y0119458D03*
X0186004Y0119398D03*
X0186034Y0119338D03*
X0186064Y0119308D03*
X0186094Y0119248D03*
X0186124Y0119218D03*
X0186184Y0119098D03*
X0186214Y0119068D03*
X0186244Y0119008D03*
X0186274Y0118978D03*
X0186304Y0118918D03*
X0186334Y0118858D03*
X0186364Y0118828D03*
X0186454Y0118678D03*
X0186484Y0118618D03*
X0186514Y0118588D03*
X0186574Y0118468D03*
X0186604Y0118438D03*
X0186664Y0118348D03*
X0187834Y0116428D03*
X0186664Y0114538D03*
X0186634Y0114478D03*
X0186604Y0114448D03*
X0186574Y0114418D03*
X0186574Y0114388D03*
X0186514Y0114298D03*
X0186484Y0114238D03*
X0186454Y0114208D03*
X0186424Y0114148D03*
X0186394Y0114088D03*
X0186364Y0114058D03*
X0186334Y0113998D03*
X0186304Y0113968D03*
X0186274Y0113908D03*
X0186244Y0113878D03*
X0186244Y0113848D03*
X0186214Y0113818D03*
X0186184Y0113788D03*
X0186184Y0113758D03*
X0186124Y0113668D03*
X0186064Y0113578D03*
X0186034Y0113548D03*
X0186034Y0113518D03*
X0186004Y0113488D03*
X0186004Y0113458D03*
X0185974Y0113428D03*
X0185914Y0113338D03*
X0185914Y0113308D03*
X0185884Y0113278D03*
X0185824Y0113188D03*
X0185794Y0113158D03*
X0185794Y0113128D03*
X0185764Y0113098D03*
X0185734Y0113038D03*
X0185704Y0113008D03*
X0185674Y0112978D03*
X0185674Y0112948D03*
X0185644Y0112918D03*
X0185614Y0112858D03*
X0185584Y0112828D03*
X0185524Y0112738D03*
X0185434Y0112588D03*
X0185344Y0112438D03*
X0185284Y0112348D03*
X0185254Y0112288D03*
X0185224Y0112228D03*
X0185194Y0112198D03*
X0185194Y0112168D03*
X0185164Y0112138D03*
X0185134Y0112108D03*
X0185134Y0112078D03*
X0185104Y0112048D03*
X0185104Y0112018D03*
X0188134Y0108778D03*
X0190864Y0111508D03*
X0190264Y0112528D03*
X0190234Y0112558D03*
X0190234Y0112588D03*
X0190204Y0112618D03*
X0190174Y0112678D03*
X0190144Y0112708D03*
X0190144Y0112738D03*
X0190114Y0112768D03*
X0190084Y0112798D03*
X0190024Y0112918D03*
X0189994Y0112948D03*
X0189994Y0112978D03*
X0189964Y0113008D03*
X0189904Y0113098D03*
X0189904Y0113128D03*
X0189874Y0113158D03*
X0189844Y0113188D03*
X0189814Y0113248D03*
X0189784Y0113308D03*
X0189754Y0113338D03*
X0189724Y0113398D03*
X0189694Y0113428D03*
X0189634Y0113548D03*
X0189604Y0113578D03*
X0189574Y0113638D03*
X0189514Y0113728D03*
X0189484Y0113788D03*
X0189454Y0113818D03*
X0189394Y0113938D03*
X0189364Y0113968D03*
X0189334Y0114028D03*
X0189304Y0114058D03*
X0189274Y0114118D03*
X0189244Y0114178D03*
X0189214Y0114208D03*
X0189184Y0114238D03*
X0189124Y0114358D03*
X0189094Y0114388D03*
X0189094Y0114418D03*
X0189064Y0114448D03*
X0189034Y0118408D03*
X0189064Y0118438D03*
X0189064Y0118468D03*
X0189094Y0118498D03*
X0189124Y0118528D03*
X0189154Y0118588D03*
X0189184Y0118648D03*
X0189214Y0118678D03*
X0189214Y0118708D03*
X0189244Y0118738D03*
X0189274Y0118798D03*
X0189304Y0118828D03*
X0189304Y0118858D03*
X0189334Y0118888D03*
X0189364Y0118948D03*
X0189394Y0118978D03*
X0189424Y0119038D03*
X0189454Y0119068D03*
X0189484Y0119128D03*
X0189514Y0119188D03*
X0189544Y0119218D03*
X0189574Y0119278D03*
X0189634Y0119368D03*
X0189664Y0119398D03*
X0189664Y0119428D03*
X0189694Y0119458D03*
X0189724Y0119518D03*
X0189754Y0119578D03*
X0189784Y0119608D03*
X0189814Y0119668D03*
X0189874Y0119758D03*
X0189904Y0119788D03*
X0189904Y0119818D03*
X0189934Y0119848D03*
X0189964Y0119878D03*
X0189964Y0119908D03*
X0189994Y0119938D03*
X0190024Y0119968D03*
X0190084Y0120088D03*
X0190114Y0120118D03*
X0190174Y0120208D03*
X0190204Y0120268D03*
X0190264Y0120358D03*
X0190354Y0120508D03*
X0190384Y0120538D03*
X0190384Y0120568D03*
X0190414Y0120598D03*
X0190474Y0120718D03*
X0191164Y0121828D03*
X0188404Y0124858D03*
X0179554Y0108898D03*
X0179584Y0108868D03*
D72*
X0185044Y0111898D03*
X0185044Y0111928D03*
X0188194Y0108808D03*
X0179254Y0124708D03*
X0179194Y0124678D03*
D73*
X0179089Y0124618D03*
X0188539Y0124798D03*
X0188569Y0124768D03*
X0191179Y0121918D03*
X0191179Y0121888D03*
X0184969Y0111748D03*
X0184939Y0111688D03*
X0188269Y0108838D03*
X0190879Y0111448D03*
D74*
X0190894Y0111418D03*
X0188344Y0108868D03*
X0184924Y0111628D03*
X0184924Y0111658D03*
X0184954Y0111718D03*
X0179374Y0108988D03*
X0179314Y0109018D03*
X0179044Y0124588D03*
X0188614Y0124738D03*
D75*
X0188689Y0124708D03*
X0178999Y0124558D03*
X0178939Y0124528D03*
X0184909Y0111598D03*
X0188389Y0108898D03*
X0188449Y0108928D03*
X0190879Y0111388D03*
X0179269Y0109048D03*
X0179239Y0109078D03*
D76*
X0179479Y0108928D03*
X0185029Y0111868D03*
X0185059Y0111958D03*
X0185089Y0111988D03*
X0185839Y0113218D03*
X0185869Y0113248D03*
X0185929Y0113368D03*
X0185959Y0113398D03*
X0186079Y0113608D03*
X0186109Y0113638D03*
X0186349Y0114028D03*
X0186499Y0114268D03*
X0190879Y0111478D03*
X0189349Y0118918D03*
X0189469Y0119098D03*
X0189499Y0119158D03*
X0189589Y0119308D03*
X0189619Y0119338D03*
X0189709Y0119488D03*
X0189739Y0119548D03*
X0189829Y0119698D03*
X0189859Y0119728D03*
X0190489Y0120748D03*
X0191179Y0121858D03*
X0188479Y0124828D03*
X0185419Y0120328D03*
D77*
X0179149Y0124648D03*
X0179449Y0108958D03*
D78*
X0184894Y0111568D03*
X0188494Y0108958D03*
X0190864Y0111358D03*
X0191194Y0121948D03*
X0178894Y0124498D03*
X0178864Y0124468D03*
D79*
X0188779Y0124648D03*
X0184879Y0111538D03*
X0184879Y0111508D03*
X0188569Y0108988D03*
X0179179Y0109108D03*
X0179119Y0109138D03*
D80*
X0179014Y0109198D03*
X0178984Y0109228D03*
X0184864Y0111448D03*
X0184864Y0111478D03*
X0188614Y0109018D03*
X0190864Y0111328D03*
X0188884Y0124588D03*
X0178804Y0124438D03*
X0178744Y0124408D03*
X0178714Y0124378D03*
D81*
X0188989Y0124528D03*
X0191209Y0122008D03*
X0190879Y0111298D03*
X0188659Y0109048D03*
X0184849Y0111418D03*
D82*
X0184864Y0111388D03*
X0188704Y0109078D03*
X0180304Y0111658D03*
X0180304Y0111688D03*
X0180304Y0111718D03*
X0180304Y0111748D03*
X0180304Y0111778D03*
X0180304Y0111808D03*
X0180304Y0111838D03*
X0180304Y0111868D03*
X0180304Y0111898D03*
X0180304Y0111928D03*
X0180304Y0111958D03*
X0180304Y0111988D03*
X0180304Y0112018D03*
X0180304Y0112048D03*
X0180304Y0112078D03*
X0180304Y0112108D03*
X0180304Y0112138D03*
X0180304Y0112168D03*
X0180304Y0112198D03*
X0180304Y0112228D03*
X0180304Y0112258D03*
X0180304Y0112288D03*
X0180304Y0112318D03*
X0180304Y0112348D03*
X0180304Y0112378D03*
X0180304Y0112408D03*
X0180304Y0112438D03*
X0180304Y0112468D03*
X0180304Y0112498D03*
X0180304Y0112528D03*
X0180304Y0112558D03*
X0180304Y0112588D03*
X0180304Y0112618D03*
X0180304Y0112648D03*
X0180304Y0112678D03*
X0180304Y0112708D03*
X0180304Y0112738D03*
X0180304Y0112768D03*
X0180304Y0112798D03*
X0180304Y0112828D03*
X0180304Y0112858D03*
X0180304Y0112888D03*
X0180304Y0112918D03*
X0180304Y0112948D03*
X0180304Y0112978D03*
X0180304Y0113008D03*
X0180304Y0113038D03*
X0180304Y0113068D03*
X0180304Y0113098D03*
X0180304Y0113128D03*
X0180304Y0113158D03*
X0180304Y0113188D03*
X0180304Y0113218D03*
X0180304Y0113248D03*
X0180304Y0113278D03*
X0180304Y0113308D03*
X0180304Y0113338D03*
X0180304Y0113368D03*
X0180304Y0113398D03*
X0180304Y0113428D03*
X0180304Y0113458D03*
X0180304Y0113488D03*
X0180304Y0113518D03*
X0180304Y0113548D03*
X0180304Y0113578D03*
X0180304Y0113608D03*
X0180304Y0113638D03*
X0180304Y0113668D03*
X0180304Y0113698D03*
X0180304Y0113728D03*
X0180304Y0113758D03*
X0180304Y0113788D03*
X0180304Y0113818D03*
X0180304Y0113848D03*
X0180304Y0113878D03*
X0180304Y0113908D03*
X0180304Y0113938D03*
X0180304Y0113968D03*
X0180304Y0113998D03*
X0180304Y0114028D03*
X0180304Y0114058D03*
X0180304Y0114088D03*
X0180304Y0114118D03*
X0180304Y0114148D03*
X0180304Y0114178D03*
X0180304Y0114208D03*
X0180304Y0114238D03*
X0180304Y0114268D03*
X0180304Y0114298D03*
X0180304Y0114328D03*
X0180304Y0114358D03*
X0180304Y0114388D03*
X0180304Y0114418D03*
X0180304Y0114448D03*
X0180304Y0114478D03*
X0180304Y0114508D03*
X0180304Y0114538D03*
X0180304Y0114568D03*
X0180304Y0114598D03*
X0180304Y0114628D03*
X0180304Y0114658D03*
X0180304Y0114688D03*
X0180304Y0114718D03*
X0180304Y0114748D03*
X0180304Y0114778D03*
X0180304Y0114808D03*
X0180304Y0114838D03*
X0180304Y0114868D03*
X0180304Y0114898D03*
X0180304Y0114928D03*
X0180304Y0114958D03*
X0180304Y0114988D03*
X0180304Y0115018D03*
X0180304Y0115048D03*
X0180304Y0115078D03*
X0180304Y0115108D03*
X0180304Y0115138D03*
X0180304Y0115168D03*
X0180304Y0115198D03*
X0180304Y0115228D03*
X0180304Y0115258D03*
X0180304Y0115288D03*
X0180304Y0115318D03*
X0180304Y0115348D03*
X0180304Y0115378D03*
X0180304Y0115408D03*
X0180304Y0115438D03*
X0180304Y0115468D03*
X0180304Y0115498D03*
X0180304Y0115528D03*
X0180304Y0115558D03*
X0180304Y0115588D03*
X0180304Y0115618D03*
X0180304Y0115648D03*
X0180304Y0115678D03*
X0180304Y0115708D03*
X0180304Y0115738D03*
X0180304Y0115768D03*
X0180304Y0115798D03*
X0180304Y0115828D03*
X0180304Y0115858D03*
X0180304Y0115888D03*
X0180304Y0115918D03*
X0180304Y0115948D03*
X0180304Y0115978D03*
X0180304Y0116008D03*
X0180304Y0116038D03*
X0180304Y0116068D03*
X0180304Y0116098D03*
X0180304Y0116128D03*
X0180304Y0116158D03*
X0180304Y0116188D03*
X0180304Y0116218D03*
X0180304Y0116248D03*
X0180304Y0116278D03*
X0180304Y0116308D03*
X0180304Y0116338D03*
X0180304Y0116368D03*
X0180304Y0116398D03*
X0180304Y0116428D03*
X0180304Y0116458D03*
X0180304Y0116488D03*
X0180304Y0116518D03*
X0180304Y0116548D03*
X0180304Y0116578D03*
X0180304Y0116608D03*
X0180304Y0116638D03*
X0180304Y0116668D03*
X0180304Y0116698D03*
X0180304Y0116728D03*
X0180304Y0116758D03*
X0180304Y0116788D03*
X0180304Y0116818D03*
X0180304Y0116848D03*
X0180304Y0116878D03*
X0180304Y0116908D03*
X0180304Y0116938D03*
X0180304Y0116968D03*
X0180304Y0116998D03*
X0180304Y0117028D03*
X0180304Y0117058D03*
X0180304Y0117088D03*
X0180304Y0117118D03*
X0180304Y0117148D03*
X0180304Y0117178D03*
X0180304Y0117208D03*
X0180304Y0117238D03*
X0180304Y0117268D03*
X0180304Y0117298D03*
X0180304Y0117328D03*
X0180304Y0117358D03*
X0180304Y0117388D03*
X0180304Y0117418D03*
X0180304Y0117448D03*
X0180304Y0117478D03*
X0180304Y0117508D03*
X0180304Y0117538D03*
X0180304Y0117568D03*
X0180304Y0117598D03*
X0180304Y0117628D03*
X0180304Y0117658D03*
X0180304Y0117688D03*
X0180304Y0117718D03*
X0180304Y0117748D03*
X0180304Y0117778D03*
X0180304Y0117808D03*
X0180304Y0117838D03*
X0180304Y0117868D03*
X0180304Y0117898D03*
X0180304Y0117928D03*
X0180304Y0117958D03*
X0180304Y0117988D03*
X0180304Y0118018D03*
X0180304Y0118048D03*
X0180304Y0118078D03*
X0180304Y0118108D03*
X0180304Y0118138D03*
X0180304Y0118168D03*
X0180304Y0118198D03*
X0180304Y0118228D03*
X0180304Y0118258D03*
X0180304Y0118288D03*
X0180304Y0118318D03*
X0180304Y0118348D03*
X0180304Y0118378D03*
X0180304Y0118408D03*
X0180304Y0118438D03*
X0180304Y0118468D03*
X0180304Y0118498D03*
X0180304Y0118528D03*
X0180304Y0118558D03*
X0180304Y0118588D03*
X0180304Y0118618D03*
X0180304Y0118648D03*
X0180304Y0118678D03*
X0180304Y0118708D03*
X0180304Y0118738D03*
X0180304Y0118768D03*
X0180304Y0118798D03*
X0180304Y0118828D03*
X0180304Y0118858D03*
X0180304Y0118888D03*
X0180304Y0118918D03*
X0180304Y0118948D03*
X0180304Y0118978D03*
X0180304Y0119008D03*
X0180304Y0119038D03*
X0180304Y0119068D03*
X0180304Y0119098D03*
X0180304Y0119128D03*
X0180304Y0119158D03*
X0180304Y0119188D03*
X0180304Y0119218D03*
X0180304Y0119248D03*
X0180304Y0119278D03*
X0180304Y0119308D03*
X0180304Y0119338D03*
X0180304Y0119368D03*
X0180304Y0119398D03*
X0180304Y0119428D03*
X0180304Y0119458D03*
X0180304Y0119488D03*
X0180304Y0119518D03*
X0180304Y0119548D03*
X0180304Y0119578D03*
X0180304Y0119608D03*
X0180304Y0119638D03*
X0180304Y0119668D03*
X0180304Y0119698D03*
X0180304Y0119728D03*
X0180304Y0119758D03*
X0180304Y0119788D03*
X0180304Y0119818D03*
X0180304Y0119848D03*
X0180304Y0119878D03*
X0180304Y0119908D03*
X0180304Y0119938D03*
X0180304Y0119968D03*
X0180304Y0119998D03*
X0180304Y0120028D03*
X0180304Y0120058D03*
X0180304Y0120088D03*
X0180304Y0120118D03*
X0180304Y0120148D03*
X0180304Y0120178D03*
X0180304Y0120208D03*
X0180304Y0120238D03*
X0180304Y0120268D03*
X0180304Y0120298D03*
X0178564Y0124288D03*
X0178624Y0124318D03*
X0178684Y0124348D03*
X0188944Y0124558D03*
X0189034Y0124498D03*
X0178924Y0109258D03*
X0178864Y0109288D03*
X0178834Y0109318D03*
D83*
X0178789Y0109348D03*
X0180289Y0111508D03*
X0180289Y0111538D03*
X0180289Y0111568D03*
X0180289Y0111598D03*
X0180289Y0111628D03*
X0184849Y0111358D03*
X0188779Y0109108D03*
X0188809Y0109138D03*
X0190879Y0111238D03*
X0190879Y0111268D03*
X0191209Y0122038D03*
X0189079Y0124468D03*
X0178549Y0124258D03*
X0178519Y0124228D03*
D84*
X0179074Y0109168D03*
D85*
X0178744Y0109378D03*
X0178654Y0109438D03*
X0180304Y0111478D03*
X0188854Y0109168D03*
X0188944Y0109228D03*
D86*
X0189004Y0109258D03*
X0189064Y0109288D03*
X0189094Y0109318D03*
X0184834Y0111268D03*
X0184834Y0111298D03*
X0180304Y0111358D03*
X0178624Y0109468D03*
X0178564Y0109498D03*
X0178504Y0109528D03*
X0178264Y0124048D03*
X0189304Y0124318D03*
X0189364Y0124288D03*
X0189394Y0124258D03*
D87*
X0189409Y0124228D03*
X0191239Y0122098D03*
X0178219Y0124018D03*
X0178189Y0123988D03*
X0178159Y0123958D03*
X0180289Y0111328D03*
X0178489Y0109558D03*
X0178459Y0109588D03*
X0184849Y0111238D03*
X0189139Y0109348D03*
X0190879Y0111178D03*
D88*
X0189199Y0109378D03*
X0178249Y0109738D03*
X0191239Y0122128D03*
X0189589Y0124108D03*
X0189559Y0124138D03*
X0178039Y0123868D03*
X0178009Y0123838D03*
D89*
X0178084Y0123898D03*
X0178114Y0123928D03*
X0189454Y0124198D03*
X0189514Y0124168D03*
X0190864Y0111148D03*
X0189274Y0109438D03*
X0189244Y0109408D03*
X0184834Y0111208D03*
X0180304Y0111238D03*
X0180304Y0111268D03*
X0180304Y0111298D03*
X0178414Y0109618D03*
X0178354Y0109648D03*
X0178324Y0109678D03*
D90*
X0178279Y0109708D03*
X0189319Y0109468D03*
X0177979Y0123808D03*
D91*
X0177934Y0123778D03*
X0177904Y0123748D03*
X0177844Y0123688D03*
X0189634Y0124078D03*
X0189664Y0124048D03*
X0191254Y0122158D03*
X0190864Y0111118D03*
X0189454Y0109558D03*
X0189364Y0109498D03*
X0184834Y0111178D03*
X0180304Y0111178D03*
X0180304Y0111208D03*
X0178204Y0109768D03*
X0178114Y0109858D03*
D92*
X0178174Y0109798D03*
X0189424Y0109528D03*
X0177874Y0123718D03*
D93*
X0177664Y0123538D03*
X0177634Y0123508D03*
X0177604Y0123478D03*
X0177574Y0123448D03*
X0177544Y0123418D03*
X0189814Y0123928D03*
X0189874Y0123898D03*
X0191284Y0122188D03*
X0184834Y0111118D03*
X0180304Y0111118D03*
X0180304Y0111148D03*
X0178024Y0109918D03*
X0177994Y0109948D03*
X0177964Y0109978D03*
X0177934Y0110008D03*
X0189484Y0109588D03*
X0189514Y0109618D03*
X0189574Y0109648D03*
X0189604Y0109678D03*
D94*
X0189649Y0109708D03*
X0189679Y0109738D03*
X0190879Y0111058D03*
X0184819Y0111088D03*
X0177889Y0110038D03*
X0177859Y0110068D03*
X0177499Y0123388D03*
X0189889Y0123868D03*
X0189919Y0123838D03*
X0189949Y0123808D03*
X0190009Y0123778D03*
D95*
X0190024Y0123748D03*
X0190084Y0123688D03*
X0177484Y0123358D03*
X0177424Y0123298D03*
X0177364Y0123238D03*
X0177634Y0110278D03*
X0177664Y0110248D03*
X0177724Y0110188D03*
X0177784Y0110128D03*
X0177814Y0110098D03*
X0189724Y0109768D03*
D96*
X0189754Y0109798D03*
X0180304Y0111088D03*
X0177754Y0110158D03*
X0177394Y0123268D03*
X0177454Y0123328D03*
D97*
X0177709Y0123568D03*
X0177739Y0123598D03*
X0177769Y0123628D03*
X0177799Y0123658D03*
X0189709Y0124018D03*
X0189739Y0123988D03*
X0189769Y0123958D03*
X0190879Y0111088D03*
X0184819Y0111148D03*
X0178129Y0109828D03*
X0178069Y0109888D03*
D98*
X0177499Y0110398D03*
X0189799Y0109828D03*
X0177199Y0123088D03*
D99*
X0177229Y0123118D03*
X0177289Y0123148D03*
X0177319Y0123208D03*
X0177169Y0123028D03*
X0190069Y0123718D03*
X0190129Y0123658D03*
X0190219Y0123568D03*
X0190879Y0111028D03*
X0189919Y0109918D03*
X0189859Y0109888D03*
X0189829Y0109858D03*
X0184819Y0111058D03*
X0180319Y0111058D03*
X0177679Y0110218D03*
X0177589Y0110308D03*
X0177559Y0110338D03*
X0177529Y0110368D03*
D100*
X0177454Y0110428D03*
X0177424Y0110488D03*
X0180304Y0110998D03*
X0180304Y0111028D03*
X0184834Y0111028D03*
X0189934Y0109948D03*
X0189964Y0109978D03*
X0189994Y0110008D03*
X0190054Y0110038D03*
X0190864Y0110998D03*
X0190354Y0123448D03*
X0190324Y0123478D03*
X0190324Y0123508D03*
X0190264Y0123538D03*
X0190204Y0123598D03*
X0190174Y0123628D03*
X0177304Y0123178D03*
X0177184Y0123058D03*
X0177124Y0122998D03*
X0177094Y0122968D03*
D101*
X0177079Y0122938D03*
X0177049Y0122908D03*
X0177019Y0122878D03*
X0176989Y0122848D03*
X0176929Y0122758D03*
X0176899Y0122728D03*
X0190399Y0123418D03*
X0190429Y0123388D03*
X0190459Y0123358D03*
X0190579Y0123238D03*
X0191299Y0122218D03*
X0190879Y0110968D03*
X0190069Y0110068D03*
X0177439Y0110458D03*
X0177379Y0110518D03*
X0177349Y0110548D03*
X0177319Y0110578D03*
X0177289Y0110608D03*
X0177199Y0110698D03*
X0177169Y0110728D03*
D102*
X0177154Y0110758D03*
X0177124Y0110788D03*
X0177094Y0110818D03*
X0177064Y0110848D03*
X0177244Y0110668D03*
X0177274Y0110638D03*
X0180304Y0110968D03*
X0184834Y0110998D03*
X0190114Y0110098D03*
X0190144Y0110128D03*
X0190174Y0110158D03*
X0190354Y0110308D03*
X0190534Y0123268D03*
X0190504Y0123298D03*
X0190474Y0123328D03*
X0176974Y0122818D03*
X0176944Y0122788D03*
X0176884Y0122698D03*
X0176854Y0122668D03*
X0176824Y0122638D03*
X0176764Y0122578D03*
D103*
X0176719Y0122488D03*
X0176629Y0122398D03*
X0176569Y0122278D03*
X0190729Y0123088D03*
X0190429Y0110398D03*
X0190279Y0110248D03*
X0190219Y0110188D03*
X0184819Y0110968D03*
X0177019Y0110908D03*
D104*
X0176989Y0110938D03*
X0176959Y0110968D03*
X0176899Y0111058D03*
X0177049Y0110878D03*
X0190249Y0110218D03*
X0190309Y0110278D03*
X0190399Y0110368D03*
X0190699Y0123118D03*
X0190639Y0123178D03*
X0190609Y0123208D03*
X0176809Y0122608D03*
X0176749Y0122548D03*
X0176689Y0122458D03*
X0176659Y0122428D03*
D105*
X0176614Y0122368D03*
X0176584Y0122338D03*
X0176584Y0122308D03*
X0176734Y0122518D03*
X0184804Y0121948D03*
X0190654Y0123148D03*
X0190744Y0123058D03*
X0190804Y0122998D03*
X0190834Y0122968D03*
X0191344Y0122248D03*
X0190894Y0110938D03*
X0190504Y0110458D03*
X0190384Y0110338D03*
X0180304Y0110938D03*
X0176944Y0110998D03*
X0176914Y0111028D03*
X0176854Y0111088D03*
X0176854Y0111118D03*
X0176794Y0111178D03*
X0176734Y0111238D03*
D106*
X0176824Y0111148D03*
X0190474Y0110428D03*
X0190624Y0110578D03*
X0190774Y0123028D03*
D107*
X0190849Y0122938D03*
X0190879Y0122908D03*
X0190909Y0122878D03*
X0190939Y0122848D03*
X0191029Y0122728D03*
X0190759Y0110728D03*
X0190669Y0110638D03*
X0190639Y0110608D03*
X0190579Y0110548D03*
X0190549Y0110518D03*
X0190519Y0110488D03*
X0184819Y0110938D03*
X0176779Y0111208D03*
X0176719Y0111268D03*
X0176719Y0111298D03*
X0176689Y0111328D03*
X0176629Y0111388D03*
X0176599Y0111418D03*
X0176599Y0111448D03*
X0176449Y0111628D03*
D108*
X0180274Y0110638D03*
D109*
X0184849Y0110638D03*
D110*
X0184834Y0110668D03*
X0180274Y0110668D03*
D111*
X0180304Y0110908D03*
X0176644Y0111358D03*
X0176554Y0111478D03*
X0176524Y0111538D03*
X0176494Y0111568D03*
X0176434Y0111658D03*
X0176314Y0111838D03*
X0190684Y0110668D03*
X0190744Y0110698D03*
X0190774Y0110758D03*
X0190804Y0110788D03*
X0190864Y0110848D03*
X0190894Y0110908D03*
X0191164Y0122578D03*
X0191134Y0122608D03*
X0191104Y0122638D03*
X0191074Y0122668D03*
X0191044Y0122698D03*
X0191014Y0122758D03*
X0190984Y0122788D03*
X0190954Y0122818D03*
D112*
X0180274Y0110698D03*
D113*
X0184819Y0110698D03*
D114*
X0184804Y0110728D03*
X0180274Y0110728D03*
D115*
X0180289Y0110758D03*
X0184819Y0110758D03*
D116*
X0184819Y0110788D03*
X0180289Y0110788D03*
X0192649Y0113938D03*
X0192679Y0114028D03*
X0192769Y0114298D03*
X0192769Y0114328D03*
X0192799Y0114388D03*
X0192799Y0114418D03*
X0192799Y0114448D03*
X0192829Y0114538D03*
X0192859Y0114628D03*
X0192889Y0114748D03*
X0192919Y0114838D03*
X0192919Y0114868D03*
X0192919Y0114898D03*
X0192919Y0114928D03*
X0192949Y0114988D03*
X0192949Y0115018D03*
X0192949Y0115048D03*
X0192949Y0115078D03*
X0192979Y0115168D03*
X0192979Y0115198D03*
X0192979Y0115228D03*
X0193009Y0115288D03*
X0193009Y0115318D03*
X0193009Y0115348D03*
X0193009Y0115378D03*
X0193039Y0115438D03*
X0193039Y0115468D03*
X0193039Y0115498D03*
X0193039Y0115528D03*
X0193039Y0115558D03*
X0193069Y0115738D03*
X0193069Y0115768D03*
X0193069Y0115798D03*
X0193069Y0115828D03*
X0193069Y0115858D03*
X0193069Y0115888D03*
X0193069Y0115918D03*
X0193099Y0115948D03*
X0193099Y0115978D03*
X0193099Y0116008D03*
X0193099Y0116038D03*
X0193099Y0116068D03*
X0193099Y0116098D03*
X0193099Y0116128D03*
X0193099Y0116158D03*
X0193099Y0116188D03*
X0193129Y0116248D03*
X0193129Y0116278D03*
X0193129Y0116308D03*
X0193129Y0116338D03*
X0193129Y0116368D03*
X0193129Y0116398D03*
X0193129Y0116428D03*
X0193129Y0116458D03*
X0193129Y0116488D03*
X0193129Y0116518D03*
X0193129Y0116548D03*
X0193129Y0116578D03*
X0193129Y0116608D03*
X0193129Y0116638D03*
X0193129Y0116668D03*
X0193129Y0116698D03*
X0193129Y0116728D03*
X0193129Y0116758D03*
X0193129Y0116788D03*
X0193129Y0116818D03*
X0193129Y0116998D03*
X0193129Y0117028D03*
X0193129Y0117058D03*
X0193129Y0117088D03*
X0193129Y0117118D03*
X0193129Y0117148D03*
X0193129Y0117178D03*
X0193129Y0117208D03*
X0193129Y0117238D03*
X0193129Y0117268D03*
X0193129Y0117298D03*
X0193129Y0117328D03*
X0193129Y0117358D03*
X0193129Y0117388D03*
X0193129Y0117418D03*
X0193129Y0117448D03*
X0193129Y0117478D03*
X0193129Y0117508D03*
X0193099Y0117598D03*
X0193099Y0117628D03*
X0193099Y0117658D03*
X0193099Y0117688D03*
X0193099Y0117718D03*
X0193099Y0117748D03*
X0193099Y0117778D03*
X0193069Y0117898D03*
X0193069Y0117928D03*
X0193069Y0117958D03*
X0193069Y0117988D03*
X0193069Y0118018D03*
X0193069Y0118048D03*
X0193069Y0118078D03*
X0193039Y0118168D03*
X0193039Y0118198D03*
X0193039Y0118228D03*
X0193039Y0118258D03*
X0193039Y0118288D03*
X0193039Y0118318D03*
X0193009Y0118438D03*
X0193009Y0118468D03*
X0192979Y0118588D03*
X0192949Y0118738D03*
X0192949Y0118768D03*
X0192949Y0118798D03*
X0192919Y0118858D03*
X0192919Y0118888D03*
X0192919Y0118918D03*
D117*
X0192349Y0120598D03*
X0192289Y0120748D03*
X0192199Y0112828D03*
X0192109Y0112678D03*
X0192049Y0112528D03*
X0180289Y0110818D03*
X0175159Y0114298D03*
X0175159Y0114328D03*
X0175099Y0114538D03*
X0175039Y0114748D03*
X0175039Y0114778D03*
X0175039Y0114808D03*
X0175039Y0114838D03*
X0175009Y0114868D03*
X0175009Y0114898D03*
X0175009Y0114928D03*
X0175009Y0114958D03*
X0174949Y0115168D03*
X0174949Y0115198D03*
X0174949Y0115228D03*
X0174889Y0115528D03*
X0174889Y0115558D03*
X0174889Y0115588D03*
X0174889Y0115618D03*
X0174889Y0115648D03*
X0174889Y0115678D03*
X0174889Y0115708D03*
X0174859Y0115738D03*
X0174859Y0115768D03*
X0174859Y0115798D03*
X0174859Y0115828D03*
X0174859Y0115858D03*
X0174859Y0115888D03*
X0174859Y0115918D03*
X0174799Y0116248D03*
X0174799Y0116278D03*
X0174799Y0116308D03*
X0174799Y0116338D03*
X0174799Y0116368D03*
X0174799Y0116398D03*
X0174799Y0116428D03*
X0174799Y0116458D03*
X0174799Y0116488D03*
X0174799Y0116518D03*
X0174799Y0116548D03*
X0174799Y0116578D03*
X0174799Y0116608D03*
X0174799Y0116638D03*
X0174799Y0116668D03*
X0174799Y0116698D03*
X0174799Y0116728D03*
X0174799Y0116758D03*
X0174799Y0116788D03*
X0174799Y0116818D03*
X0174799Y0116998D03*
X0174799Y0117028D03*
X0174799Y0117058D03*
X0174799Y0117088D03*
X0174799Y0117118D03*
X0174799Y0117148D03*
X0174799Y0117178D03*
X0174799Y0117208D03*
X0174799Y0117238D03*
X0174799Y0117268D03*
X0174799Y0117298D03*
X0174799Y0117328D03*
X0174799Y0117358D03*
X0174799Y0117388D03*
X0174799Y0117418D03*
X0174799Y0117448D03*
X0174799Y0117478D03*
X0174799Y0117508D03*
X0174859Y0117898D03*
X0174859Y0117928D03*
X0174859Y0117958D03*
X0174859Y0117988D03*
X0174889Y0118108D03*
X0174889Y0118138D03*
X0174889Y0118168D03*
X0174889Y0118198D03*
X0174889Y0118228D03*
X0174889Y0118258D03*
X0174889Y0118288D03*
X0174949Y0118588D03*
X0175009Y0118858D03*
X0175009Y0118888D03*
X0175039Y0118978D03*
X0175039Y0119008D03*
D118*
X0174904Y0115498D03*
X0174904Y0115468D03*
X0174904Y0115438D03*
X0184804Y0110818D03*
X0192064Y0112558D03*
X0192094Y0112648D03*
X0192154Y0112738D03*
X0192154Y0112768D03*
X0192184Y0112798D03*
X0192214Y0112858D03*
X0192214Y0112888D03*
X0192244Y0112948D03*
X0192304Y0113068D03*
X0192334Y0113128D03*
X0192334Y0113158D03*
X0192454Y0113428D03*
X0192604Y0119968D03*
X0192604Y0119998D03*
X0192544Y0120148D03*
X0192514Y0120208D03*
X0192484Y0120268D03*
X0192484Y0120298D03*
X0192454Y0120358D03*
X0192454Y0120388D03*
X0192394Y0120508D03*
X0192364Y0120538D03*
X0192364Y0120568D03*
X0192334Y0120628D03*
X0192334Y0120658D03*
X0192304Y0120718D03*
D119*
X0180304Y0110848D03*
X0175834Y0112648D03*
X0175804Y0112708D03*
X0175774Y0112738D03*
X0175774Y0112768D03*
X0175744Y0112798D03*
X0175744Y0112828D03*
X0175744Y0112858D03*
X0175714Y0112888D03*
X0175684Y0112948D03*
X0175654Y0113008D03*
X0175624Y0113068D03*
X0175624Y0113098D03*
X0175594Y0113128D03*
X0175594Y0113158D03*
X0175504Y0113338D03*
X0175504Y0113368D03*
X0175474Y0113428D03*
X0175204Y0119608D03*
X0175234Y0119698D03*
X0175354Y0120028D03*
X0175354Y0120058D03*
X0175384Y0120118D03*
X0175414Y0120208D03*
X0175444Y0120268D03*
X0175474Y0120328D03*
X0175474Y0120358D03*
X0175504Y0120418D03*
X0175504Y0120448D03*
X0175534Y0120508D03*
X0175564Y0120538D03*
X0175564Y0120568D03*
X0175594Y0120628D03*
X0175624Y0120718D03*
D120*
X0175459Y0120298D03*
X0175429Y0120238D03*
X0175399Y0120178D03*
X0175399Y0120148D03*
X0175369Y0120088D03*
X0175339Y0119998D03*
X0175339Y0119968D03*
X0175309Y0119938D03*
X0175309Y0119908D03*
X0175309Y0119878D03*
X0175279Y0119848D03*
X0175279Y0119818D03*
X0175249Y0119758D03*
X0175249Y0119728D03*
X0175219Y0119668D03*
X0175219Y0119638D03*
X0175189Y0119578D03*
X0175189Y0119548D03*
X0175159Y0119458D03*
X0175129Y0119338D03*
X0175129Y0119308D03*
X0175099Y0119248D03*
X0175099Y0119218D03*
X0175069Y0119158D03*
X0175069Y0119128D03*
X0175189Y0114208D03*
X0175219Y0114118D03*
X0175249Y0114058D03*
X0175339Y0113788D03*
X0175339Y0113758D03*
X0175369Y0113698D03*
X0175399Y0113608D03*
X0175429Y0113548D03*
X0175459Y0113458D03*
X0175489Y0113398D03*
X0175519Y0113308D03*
X0175549Y0113248D03*
X0175549Y0113218D03*
X0175579Y0113188D03*
X0175639Y0113038D03*
X0175669Y0112978D03*
X0175699Y0112918D03*
X0184819Y0110848D03*
X0184819Y0122038D03*
D121*
X0191254Y0122458D03*
X0191344Y0122338D03*
X0180304Y0110878D03*
X0176254Y0111928D03*
X0176194Y0112018D03*
X0176104Y0112168D03*
X0176044Y0112258D03*
D122*
X0176089Y0112198D03*
X0175969Y0112408D03*
X0175939Y0112438D03*
X0175939Y0112468D03*
X0175909Y0112498D03*
X0175879Y0112528D03*
X0175879Y0112558D03*
X0175879Y0112588D03*
X0175819Y0112678D03*
X0175489Y0120388D03*
X0175519Y0120478D03*
X0175579Y0120598D03*
X0175609Y0120658D03*
X0175609Y0120688D03*
X0175639Y0120748D03*
X0175669Y0120778D03*
X0175669Y0120808D03*
X0175729Y0120898D03*
X0184819Y0122008D03*
X0191359Y0122308D03*
X0184819Y0110878D03*
D123*
X0180289Y0111388D03*
X0180289Y0111418D03*
X0180289Y0111448D03*
X0190879Y0111208D03*
X0189259Y0124348D03*
X0178369Y0124138D03*
X0178339Y0124108D03*
X0178309Y0124078D03*
D124*
X0184849Y0111328D03*
D125*
X0190879Y0111568D03*
X0190879Y0111598D03*
X0187819Y0116368D03*
X0191179Y0121768D03*
D126*
X0191179Y0121648D03*
X0187819Y0116278D03*
X0190879Y0111688D03*
X0179689Y0124948D03*
D127*
X0185014Y0111838D03*
X0184984Y0111808D03*
X0184984Y0111778D03*
D128*
X0176284Y0111868D03*
X0176224Y0111988D03*
X0176164Y0112048D03*
X0176164Y0112078D03*
X0176134Y0112108D03*
X0176134Y0112138D03*
X0176074Y0112228D03*
X0176014Y0112288D03*
X0175984Y0112378D03*
X0191224Y0122488D03*
X0191314Y0122368D03*
X0191374Y0122278D03*
D129*
X0180244Y0125188D03*
X0190894Y0111958D03*
D130*
X0190879Y0112018D03*
X0187819Y0115918D03*
X0187849Y0116968D03*
X0187489Y0125248D03*
X0180319Y0125218D03*
D131*
X0191149Y0121258D03*
X0190909Y0112078D03*
D132*
X0190894Y0112108D03*
X0187834Y0115858D03*
X0187834Y0117028D03*
X0191164Y0121228D03*
D133*
X0191149Y0121198D03*
X0191149Y0121168D03*
X0187819Y0117058D03*
X0187819Y0115828D03*
X0190879Y0112138D03*
X0187339Y0125308D03*
X0180439Y0125248D03*
D134*
X0190879Y0112198D03*
X0190879Y0112168D03*
D135*
X0190894Y0112258D03*
X0187834Y0115708D03*
X0187834Y0117178D03*
X0191134Y0121048D03*
X0191134Y0121078D03*
X0187144Y0125368D03*
D136*
X0175699Y0120868D03*
X0175699Y0120838D03*
X0175849Y0112618D03*
X0175999Y0112348D03*
X0175999Y0112318D03*
D137*
X0190879Y0112378D03*
X0191119Y0120898D03*
D138*
X0191119Y0120868D03*
X0191119Y0120838D03*
X0190879Y0112438D03*
D139*
X0190864Y0112468D03*
X0187834Y0115528D03*
X0187834Y0117358D03*
X0187834Y0117388D03*
D140*
X0185374Y0112498D03*
D141*
X0187819Y0115498D03*
X0190879Y0112498D03*
X0191119Y0120778D03*
X0191119Y0120808D03*
D142*
X0192319Y0120688D03*
X0192469Y0120328D03*
X0184819Y0122068D03*
X0174979Y0118708D03*
X0174919Y0118468D03*
X0174919Y0118438D03*
X0174919Y0118408D03*
X0174919Y0118378D03*
X0174919Y0118348D03*
X0174919Y0118318D03*
X0174829Y0117778D03*
X0174829Y0117748D03*
X0174829Y0117718D03*
X0174829Y0117688D03*
X0174829Y0117658D03*
X0174829Y0117628D03*
X0174829Y0117598D03*
X0174829Y0116218D03*
X0174829Y0116188D03*
X0174829Y0116158D03*
X0174829Y0116128D03*
X0174829Y0116098D03*
X0174829Y0116068D03*
X0174829Y0116038D03*
X0174829Y0116008D03*
X0174829Y0115978D03*
X0174829Y0115948D03*
X0174919Y0115408D03*
X0174919Y0115378D03*
X0174919Y0115348D03*
X0174919Y0115318D03*
X0174919Y0115288D03*
X0174979Y0115108D03*
X0174979Y0115078D03*
X0174979Y0115048D03*
X0175069Y0114628D03*
X0175279Y0113938D03*
X0192079Y0112618D03*
X0192079Y0112588D03*
D143*
X0192124Y0112708D03*
X0192274Y0113008D03*
X0192724Y0119608D03*
X0192574Y0120058D03*
X0192424Y0120418D03*
X0192424Y0120448D03*
X0192424Y0120478D03*
D144*
X0192499Y0120238D03*
X0192529Y0120178D03*
X0192559Y0120118D03*
X0192559Y0120088D03*
X0192589Y0120028D03*
X0192619Y0119938D03*
X0192619Y0119908D03*
X0192649Y0119848D03*
X0192679Y0119758D03*
X0192709Y0119698D03*
X0192709Y0119668D03*
X0192709Y0119638D03*
X0192739Y0119578D03*
X0192739Y0119548D03*
X0192769Y0119458D03*
X0192829Y0119248D03*
X0192829Y0119218D03*
X0192859Y0119158D03*
X0192859Y0119128D03*
X0192889Y0119038D03*
X0192739Y0114208D03*
X0192709Y0114118D03*
X0192619Y0113848D03*
X0192619Y0113818D03*
X0192589Y0113788D03*
X0192589Y0113758D03*
X0192559Y0113668D03*
X0192499Y0113548D03*
X0192499Y0113518D03*
X0192499Y0113488D03*
X0192469Y0113458D03*
X0192439Y0113398D03*
X0192439Y0113368D03*
X0192439Y0113338D03*
X0192409Y0113308D03*
X0192379Y0113248D03*
X0192379Y0113218D03*
X0192349Y0113188D03*
X0192319Y0113098D03*
X0192289Y0113038D03*
X0192259Y0112978D03*
X0192229Y0112918D03*
D145*
X0175534Y0113278D03*
X0175444Y0113488D03*
X0175444Y0113518D03*
X0175414Y0113578D03*
X0175384Y0113638D03*
X0175384Y0113668D03*
X0175354Y0113728D03*
X0175324Y0113818D03*
X0175324Y0113848D03*
X0175294Y0113878D03*
X0175294Y0113908D03*
X0175264Y0113968D03*
X0175264Y0113998D03*
X0175264Y0114028D03*
X0175234Y0114088D03*
X0175204Y0114148D03*
X0175204Y0114178D03*
X0175174Y0114238D03*
X0175174Y0114268D03*
X0175144Y0114358D03*
X0175144Y0114388D03*
X0175144Y0114418D03*
X0175144Y0114448D03*
X0175114Y0114478D03*
X0175114Y0114508D03*
X0175084Y0114568D03*
X0175084Y0114598D03*
X0175054Y0114658D03*
X0175054Y0114688D03*
X0175054Y0114718D03*
X0174994Y0114988D03*
X0174994Y0115018D03*
X0174964Y0115138D03*
X0174934Y0115258D03*
X0174784Y0116848D03*
X0174784Y0116878D03*
X0174784Y0116908D03*
X0174784Y0116938D03*
X0174784Y0116968D03*
X0174814Y0117538D03*
X0174814Y0117568D03*
X0174844Y0117808D03*
X0174844Y0117838D03*
X0174844Y0117868D03*
X0174874Y0118018D03*
X0174874Y0118048D03*
X0174874Y0118078D03*
X0174934Y0118498D03*
X0174934Y0118528D03*
X0174934Y0118558D03*
X0174964Y0118618D03*
X0174964Y0118648D03*
X0174964Y0118678D03*
X0174994Y0118738D03*
X0174994Y0118768D03*
X0174994Y0118798D03*
X0174994Y0118828D03*
X0175024Y0118918D03*
X0175024Y0118948D03*
X0175054Y0119038D03*
X0175054Y0119068D03*
X0175054Y0119098D03*
X0175084Y0119188D03*
X0175114Y0119278D03*
X0175144Y0119368D03*
X0175144Y0119398D03*
X0175144Y0119428D03*
X0175174Y0119488D03*
X0175174Y0119518D03*
X0175264Y0119788D03*
D146*
X0192634Y0119878D03*
X0192664Y0119818D03*
X0192664Y0119788D03*
X0192694Y0119728D03*
X0192754Y0119518D03*
X0192754Y0119488D03*
X0192784Y0119428D03*
X0192784Y0119398D03*
X0192784Y0119368D03*
X0192814Y0119338D03*
X0192814Y0119308D03*
X0192814Y0119278D03*
X0192844Y0119188D03*
X0192874Y0119098D03*
X0192874Y0119068D03*
X0192904Y0119008D03*
X0192904Y0118978D03*
X0192904Y0118948D03*
X0192934Y0118828D03*
X0192964Y0118708D03*
X0192964Y0118678D03*
X0192964Y0118648D03*
X0192964Y0118618D03*
X0192994Y0118558D03*
X0192994Y0118528D03*
X0192994Y0118498D03*
X0193024Y0118408D03*
X0193024Y0118378D03*
X0193024Y0118348D03*
X0193084Y0117868D03*
X0193084Y0117838D03*
X0193084Y0117808D03*
X0193114Y0117568D03*
X0193114Y0117538D03*
X0193144Y0116968D03*
X0193144Y0116938D03*
X0193144Y0116908D03*
X0193144Y0116878D03*
X0193144Y0116848D03*
X0193024Y0115408D03*
X0192994Y0115258D03*
X0192964Y0115138D03*
X0192964Y0115108D03*
X0192904Y0114808D03*
X0192904Y0114778D03*
X0192874Y0114718D03*
X0192874Y0114688D03*
X0192874Y0114658D03*
X0192844Y0114598D03*
X0192844Y0114568D03*
X0192814Y0114508D03*
X0192814Y0114478D03*
X0192784Y0114358D03*
X0192754Y0114268D03*
X0192754Y0114238D03*
X0192724Y0114178D03*
X0192724Y0114148D03*
X0192694Y0114088D03*
X0192694Y0114058D03*
X0192664Y0113998D03*
X0192664Y0113968D03*
X0192634Y0113908D03*
X0192634Y0113878D03*
X0192574Y0113728D03*
X0192574Y0113698D03*
X0192544Y0113638D03*
X0192544Y0113608D03*
X0192514Y0113578D03*
X0192394Y0113278D03*
D147*
X0189004Y0114538D03*
X0187834Y0116398D03*
X0187834Y0116518D03*
X0186154Y0119158D03*
X0179464Y0124828D03*
X0179404Y0124798D03*
D148*
X0187834Y0114568D03*
D149*
X0187834Y0114598D03*
X0187834Y0118288D03*
D150*
X0187834Y0118198D03*
X0187834Y0118168D03*
X0187834Y0114688D03*
D151*
X0187849Y0114718D03*
D152*
X0187834Y0114748D03*
X0187834Y0118138D03*
D153*
X0187834Y0114808D03*
X0187834Y0114778D03*
D154*
X0187834Y0114838D03*
X0187834Y0118048D03*
D155*
X0187834Y0118018D03*
X0187834Y0117988D03*
X0187834Y0114898D03*
X0187834Y0114868D03*
D156*
X0187834Y0114928D03*
X0187834Y0114958D03*
X0187834Y0117928D03*
X0187834Y0117958D03*
D157*
X0184834Y0122098D03*
X0193114Y0116218D03*
X0192934Y0114958D03*
D158*
X0187834Y0115018D03*
X0187834Y0115048D03*
X0187834Y0117868D03*
D159*
X0187834Y0117808D03*
X0187834Y0115078D03*
D160*
X0187834Y0115108D03*
X0187834Y0115138D03*
X0187834Y0117748D03*
X0186574Y0125488D03*
D161*
X0181174Y0125458D03*
X0187834Y0117658D03*
X0187834Y0115228D03*
D162*
X0187834Y0115288D03*
X0187834Y0117628D03*
D163*
X0187849Y0117538D03*
X0187849Y0115348D03*
D164*
X0187819Y0115408D03*
D165*
X0187834Y0115468D03*
X0187834Y0117418D03*
X0180934Y0125398D03*
D166*
X0193054Y0118138D03*
X0193054Y0118108D03*
X0193054Y0115708D03*
X0193054Y0115678D03*
X0193054Y0115648D03*
X0193054Y0115618D03*
X0193054Y0115588D03*
D167*
X0187834Y0115618D03*
X0187834Y0117268D03*
X0191134Y0120928D03*
X0191134Y0120958D03*
X0180784Y0125368D03*
D168*
X0180679Y0125338D03*
X0187819Y0117208D03*
X0187819Y0115678D03*
D169*
X0187819Y0115888D03*
D170*
X0187819Y0116038D03*
D171*
X0187819Y0116128D03*
X0191179Y0121528D03*
X0180019Y0125098D03*
D172*
X0179839Y0125008D03*
X0187909Y0125098D03*
X0187849Y0116668D03*
X0187819Y0116218D03*
D173*
X0187834Y0116248D03*
X0187834Y0116638D03*
X0191164Y0121618D03*
X0187984Y0125068D03*
X0179764Y0124978D03*
D174*
X0186889Y0125428D03*
X0187819Y0117448D03*
D175*
X0187819Y0117598D03*
D176*
X0187819Y0117688D03*
D177*
X0187819Y0117778D03*
D178*
X0187819Y0117838D03*
D179*
X0187819Y0118078D03*
D180*
X0187819Y0118108D03*
D181*
X0187819Y0118228D03*
D182*
X0187819Y0118258D03*
D183*
X0187819Y0118318D03*
D184*
X0180289Y0120328D03*
D185*
X0180259Y0120358D03*
D186*
X0180259Y0120388D03*
D187*
X0180259Y0120418D03*
D188*
X0180274Y0120448D03*
D189*
X0180289Y0120478D03*
D190*
X0180274Y0120508D03*
D191*
X0180289Y0120568D03*
D192*
X0180289Y0120598D03*
D193*
X0180289Y0120628D03*
D194*
X0181309Y0120898D03*
X0181339Y0120838D03*
X0181369Y0120808D03*
X0181429Y0120688D03*
X0181459Y0120658D03*
D195*
X0181414Y0120718D03*
X0181414Y0120748D03*
X0181384Y0120778D03*
X0181324Y0120868D03*
D196*
X0180634Y0120928D03*
D197*
X0180634Y0120958D03*
X0180634Y0120988D03*
X0180634Y0121018D03*
D198*
X0191149Y0120988D03*
D199*
X0180634Y0121048D03*
D200*
X0180619Y0121078D03*
D201*
X0180619Y0121108D03*
X0180619Y0121138D03*
D202*
X0187249Y0125338D03*
X0191149Y0121138D03*
D203*
X0180619Y0121168D03*
X0180619Y0121198D03*
D204*
X0180619Y0121228D03*
X0180619Y0121258D03*
X0180619Y0121288D03*
D205*
X0180619Y0121318D03*
D206*
X0180619Y0121348D03*
D207*
X0180604Y0121378D03*
D208*
X0180619Y0121408D03*
D209*
X0180604Y0121438D03*
D210*
X0180619Y0121468D03*
D211*
X0180604Y0121498D03*
X0180604Y0121528D03*
D212*
X0180604Y0121558D03*
D213*
X0180604Y0121588D03*
D214*
X0180604Y0121618D03*
X0180604Y0121648D03*
D215*
X0180619Y0121678D03*
D216*
X0180589Y0121708D03*
D217*
X0180589Y0121738D03*
X0180589Y0121768D03*
D218*
X0180589Y0121798D03*
D219*
X0180589Y0121828D03*
D220*
X0180574Y0121858D03*
D221*
X0180574Y0121888D03*
X0180574Y0121918D03*
D222*
X0179824Y0121948D03*
D223*
X0179809Y0121978D03*
D224*
X0188749Y0124678D03*
X0188839Y0124618D03*
X0191209Y0121978D03*
D225*
X0179809Y0122008D03*
D226*
X0179809Y0122038D03*
X0179809Y0122068D03*
D227*
X0179794Y0122098D03*
D228*
X0179779Y0122128D03*
X0179779Y0122158D03*
D229*
X0184834Y0122128D03*
D230*
X0184834Y0122158D03*
D231*
X0179749Y0122188D03*
D232*
X0184849Y0122188D03*
D233*
X0179719Y0122218D03*
D234*
X0184849Y0122218D03*
D235*
X0179674Y0122248D03*
D236*
X0184819Y0122248D03*
D237*
X0187759Y0125158D03*
D238*
X0181354Y0125488D03*
D239*
X0183934Y0125518D03*
D240*
X0183934Y0125548D03*
D241*
X0175618Y0132882D02*
X0172468Y0132882D01*
X0172468Y0144693D01*
X0188216Y0141937D02*
X0188216Y0171465D01*
X0175618Y0180520D02*
X0172468Y0180520D01*
X0172468Y0168709D01*
X0160353Y0178858D02*
X0157798Y0178858D01*
X0159075Y0178858D02*
X0159075Y0174258D01*
X0162874Y0176558D02*
X0162872Y0176685D01*
X0162867Y0176812D01*
X0162857Y0176939D01*
X0162844Y0177066D01*
X0162828Y0177192D01*
X0162808Y0177317D01*
X0162784Y0177442D01*
X0162756Y0177566D01*
X0162725Y0177690D01*
X0162690Y0177812D01*
X0162652Y0177933D01*
X0162611Y0178053D01*
X0162565Y0178172D01*
X0162517Y0178290D01*
X0162465Y0178406D01*
X0162409Y0178520D01*
X0162351Y0178633D01*
X0162289Y0178744D01*
X0162224Y0178854D01*
X0162155Y0178961D01*
X0162084Y0179066D01*
X0162010Y0179169D01*
X0161932Y0179270D01*
X0161852Y0179369D01*
X0162874Y0176558D02*
X0162872Y0176431D01*
X0162867Y0176304D01*
X0162857Y0176177D01*
X0162844Y0176050D01*
X0162828Y0175924D01*
X0162808Y0175799D01*
X0162784Y0175674D01*
X0162756Y0175550D01*
X0162725Y0175426D01*
X0162690Y0175304D01*
X0162652Y0175183D01*
X0162611Y0175063D01*
X0162565Y0174944D01*
X0162517Y0174826D01*
X0162465Y0174710D01*
X0162409Y0174596D01*
X0162351Y0174483D01*
X0162289Y0174372D01*
X0162224Y0174262D01*
X0162155Y0174155D01*
X0162084Y0174050D01*
X0162010Y0173947D01*
X0161932Y0173846D01*
X0161852Y0173747D01*
X0156409Y0174258D02*
X0154875Y0178858D01*
X0153342Y0174258D01*
X0153725Y0175408D02*
X0156025Y0175408D01*
X0151503Y0174258D02*
X0151503Y0178858D01*
X0151503Y0176814D02*
X0148948Y0176814D01*
X0148948Y0178858D02*
X0148948Y0174258D01*
X0145792Y0176303D02*
X0144514Y0176303D01*
X0141476Y0176558D02*
X0141478Y0176685D01*
X0141483Y0176812D01*
X0141493Y0176939D01*
X0141506Y0177066D01*
X0141522Y0177192D01*
X0141542Y0177317D01*
X0141566Y0177442D01*
X0141594Y0177566D01*
X0141625Y0177690D01*
X0141660Y0177812D01*
X0141698Y0177933D01*
X0141739Y0178053D01*
X0141785Y0178172D01*
X0141833Y0178290D01*
X0141885Y0178406D01*
X0141941Y0178520D01*
X0141999Y0178633D01*
X0142061Y0178744D01*
X0142126Y0178854D01*
X0142195Y0178961D01*
X0142266Y0179066D01*
X0142340Y0179169D01*
X0142418Y0179270D01*
X0142498Y0179369D01*
X0144514Y0178858D02*
X0145792Y0178858D01*
X0145862Y0178856D01*
X0145933Y0178850D01*
X0146002Y0178841D01*
X0146071Y0178827D01*
X0146140Y0178810D01*
X0146207Y0178789D01*
X0146273Y0178764D01*
X0146337Y0178736D01*
X0146400Y0178704D01*
X0146461Y0178669D01*
X0146520Y0178630D01*
X0146577Y0178589D01*
X0146631Y0178544D01*
X0146683Y0178496D01*
X0146732Y0178446D01*
X0146779Y0178392D01*
X0146822Y0178337D01*
X0146862Y0178279D01*
X0146899Y0178219D01*
X0146932Y0178157D01*
X0146962Y0178093D01*
X0146989Y0178028D01*
X0147012Y0177962D01*
X0147031Y0177894D01*
X0147046Y0177825D01*
X0147058Y0177756D01*
X0147066Y0177686D01*
X0147070Y0177615D01*
X0147070Y0177545D01*
X0147066Y0177474D01*
X0147058Y0177404D01*
X0147046Y0177335D01*
X0147031Y0177266D01*
X0147012Y0177198D01*
X0146989Y0177132D01*
X0146962Y0177067D01*
X0146932Y0177003D01*
X0146899Y0176941D01*
X0146862Y0176881D01*
X0146822Y0176823D01*
X0146779Y0176768D01*
X0146732Y0176714D01*
X0146683Y0176664D01*
X0146631Y0176616D01*
X0146577Y0176571D01*
X0146520Y0176530D01*
X0146461Y0176491D01*
X0146400Y0176456D01*
X0146337Y0176424D01*
X0146273Y0176396D01*
X0146207Y0176371D01*
X0146140Y0176350D01*
X0146071Y0176333D01*
X0146002Y0176319D01*
X0145933Y0176310D01*
X0145862Y0176304D01*
X0145792Y0176302D01*
X0142498Y0173747D02*
X0142418Y0173846D01*
X0142340Y0173947D01*
X0142266Y0174050D01*
X0142195Y0174155D01*
X0142126Y0174262D01*
X0142061Y0174372D01*
X0141999Y0174483D01*
X0141941Y0174596D01*
X0141885Y0174710D01*
X0141833Y0174826D01*
X0141785Y0174944D01*
X0141739Y0175063D01*
X0141698Y0175183D01*
X0141660Y0175304D01*
X0141625Y0175426D01*
X0141594Y0175550D01*
X0141566Y0175674D01*
X0141542Y0175799D01*
X0141522Y0175924D01*
X0141506Y0176050D01*
X0141493Y0176177D01*
X0141483Y0176304D01*
X0141478Y0176431D01*
X0141476Y0176558D01*
X0134930Y0174897D02*
X0134882Y0175001D01*
X0134836Y0175106D01*
X0134794Y0175212D01*
X0134755Y0175320D01*
X0134719Y0175429D01*
X0134687Y0175539D01*
X0134657Y0175650D01*
X0134632Y0175762D01*
X0134609Y0175874D01*
X0134590Y0175987D01*
X0134575Y0176101D01*
X0134563Y0176215D01*
X0134554Y0176329D01*
X0134549Y0176443D01*
X0134547Y0176558D01*
X0137103Y0176558D02*
X0137101Y0176673D01*
X0137096Y0176787D01*
X0137087Y0176901D01*
X0137075Y0177015D01*
X0137060Y0177129D01*
X0137041Y0177242D01*
X0137018Y0177354D01*
X0136993Y0177466D01*
X0136963Y0177577D01*
X0136931Y0177687D01*
X0136895Y0177796D01*
X0136856Y0177904D01*
X0136814Y0178010D01*
X0136768Y0178115D01*
X0136720Y0178219D01*
X0136848Y0177836D02*
X0134803Y0175280D01*
X0135825Y0174258D02*
X0135884Y0174260D01*
X0135942Y0174265D01*
X0136000Y0174274D01*
X0136057Y0174287D01*
X0136114Y0174303D01*
X0136169Y0174323D01*
X0136223Y0174346D01*
X0136275Y0174372D01*
X0136326Y0174402D01*
X0136375Y0174434D01*
X0136422Y0174470D01*
X0136466Y0174508D01*
X0136508Y0174549D01*
X0136547Y0174593D01*
X0136584Y0174639D01*
X0136617Y0174687D01*
X0136648Y0174737D01*
X0136675Y0174789D01*
X0136699Y0174842D01*
X0136720Y0174897D01*
X0135825Y0174258D02*
X0135766Y0174260D01*
X0135708Y0174265D01*
X0135650Y0174274D01*
X0135593Y0174287D01*
X0135536Y0174303D01*
X0135481Y0174323D01*
X0135427Y0174346D01*
X0135375Y0174372D01*
X0135324Y0174402D01*
X0135275Y0174434D01*
X0135228Y0174470D01*
X0135184Y0174508D01*
X0135142Y0174549D01*
X0135103Y0174593D01*
X0135066Y0174639D01*
X0135033Y0174687D01*
X0135002Y0174737D01*
X0134975Y0174789D01*
X0134951Y0174842D01*
X0134930Y0174897D01*
X0136720Y0174897D02*
X0136768Y0175001D01*
X0136814Y0175106D01*
X0136856Y0175212D01*
X0136895Y0175320D01*
X0136931Y0175429D01*
X0136963Y0175539D01*
X0136993Y0175650D01*
X0137018Y0175762D01*
X0137041Y0175874D01*
X0137060Y0175987D01*
X0137075Y0176101D01*
X0137087Y0176215D01*
X0137096Y0176329D01*
X0137101Y0176443D01*
X0137103Y0176558D01*
X0134547Y0176558D02*
X0134549Y0176673D01*
X0134554Y0176787D01*
X0134563Y0176901D01*
X0134575Y0177015D01*
X0134590Y0177129D01*
X0134609Y0177242D01*
X0134632Y0177354D01*
X0134657Y0177466D01*
X0134687Y0177577D01*
X0134719Y0177687D01*
X0134755Y0177796D01*
X0134794Y0177904D01*
X0134836Y0178010D01*
X0134882Y0178115D01*
X0134930Y0178219D01*
X0135825Y0178859D02*
X0135884Y0178857D01*
X0135942Y0178852D01*
X0136000Y0178843D01*
X0136057Y0178830D01*
X0136114Y0178814D01*
X0136169Y0178794D01*
X0136223Y0178771D01*
X0136275Y0178745D01*
X0136326Y0178715D01*
X0136375Y0178683D01*
X0136422Y0178647D01*
X0136466Y0178609D01*
X0136508Y0178568D01*
X0136547Y0178524D01*
X0136584Y0178478D01*
X0136617Y0178430D01*
X0136648Y0178380D01*
X0136675Y0178328D01*
X0136699Y0178275D01*
X0136720Y0178220D01*
X0135825Y0178859D02*
X0135766Y0178857D01*
X0135708Y0178852D01*
X0135650Y0178843D01*
X0135593Y0178830D01*
X0135536Y0178814D01*
X0135481Y0178794D01*
X0135427Y0178771D01*
X0135375Y0178745D01*
X0135324Y0178715D01*
X0135275Y0178683D01*
X0135228Y0178647D01*
X0135184Y0178609D01*
X0135142Y0178568D01*
X0135103Y0178524D01*
X0135066Y0178478D01*
X0135033Y0178430D01*
X0135002Y0178380D01*
X0134975Y0178328D01*
X0134951Y0178275D01*
X0134930Y0178220D01*
X0132092Y0178858D02*
X0132003Y0178856D01*
X0131914Y0178850D01*
X0131825Y0178841D01*
X0131737Y0178827D01*
X0131650Y0178810D01*
X0131563Y0178788D01*
X0131477Y0178763D01*
X0131393Y0178735D01*
X0131310Y0178702D01*
X0131228Y0178666D01*
X0131148Y0178627D01*
X0131070Y0178584D01*
X0130994Y0178538D01*
X0130920Y0178488D01*
X0130848Y0178436D01*
X0130778Y0178380D01*
X0130711Y0178321D01*
X0130647Y0178259D01*
X0130585Y0178195D01*
X0130526Y0178128D01*
X0130470Y0178058D01*
X0130418Y0177986D01*
X0130368Y0177912D01*
X0130322Y0177836D01*
X0130279Y0177758D01*
X0130240Y0177678D01*
X0130204Y0177596D01*
X0130171Y0177513D01*
X0130143Y0177429D01*
X0130118Y0177343D01*
X0130096Y0177256D01*
X0130079Y0177169D01*
X0130065Y0177081D01*
X0130056Y0176992D01*
X0130050Y0176903D01*
X0130048Y0176814D01*
X0130048Y0175536D01*
X0130047Y0175536D02*
X0130049Y0175466D01*
X0130055Y0175395D01*
X0130064Y0175326D01*
X0130078Y0175257D01*
X0130095Y0175188D01*
X0130116Y0175121D01*
X0130141Y0175055D01*
X0130169Y0174991D01*
X0130201Y0174928D01*
X0130236Y0174867D01*
X0130275Y0174808D01*
X0130316Y0174751D01*
X0130361Y0174697D01*
X0130409Y0174645D01*
X0130459Y0174596D01*
X0130513Y0174549D01*
X0130568Y0174506D01*
X0130626Y0174466D01*
X0130686Y0174429D01*
X0130748Y0174396D01*
X0130812Y0174366D01*
X0130877Y0174339D01*
X0130943Y0174316D01*
X0131011Y0174297D01*
X0131080Y0174282D01*
X0131149Y0174270D01*
X0131219Y0174262D01*
X0131290Y0174258D01*
X0131360Y0174258D01*
X0131431Y0174262D01*
X0131501Y0174270D01*
X0131570Y0174282D01*
X0131639Y0174297D01*
X0131707Y0174316D01*
X0131773Y0174339D01*
X0131838Y0174366D01*
X0131902Y0174396D01*
X0131964Y0174429D01*
X0132024Y0174466D01*
X0132082Y0174506D01*
X0132137Y0174549D01*
X0132191Y0174596D01*
X0132241Y0174645D01*
X0132289Y0174697D01*
X0132334Y0174751D01*
X0132375Y0174808D01*
X0132414Y0174867D01*
X0132449Y0174928D01*
X0132481Y0174991D01*
X0132509Y0175055D01*
X0132534Y0175121D01*
X0132555Y0175188D01*
X0132572Y0175257D01*
X0132586Y0175326D01*
X0132595Y0175395D01*
X0132601Y0175466D01*
X0132603Y0175536D01*
X0132603Y0175792D01*
X0132601Y0175854D01*
X0132596Y0175915D01*
X0132586Y0175976D01*
X0132573Y0176037D01*
X0132557Y0176096D01*
X0132537Y0176154D01*
X0132513Y0176211D01*
X0132486Y0176267D01*
X0132456Y0176321D01*
X0132422Y0176373D01*
X0132386Y0176422D01*
X0132346Y0176470D01*
X0132304Y0176515D01*
X0132259Y0176557D01*
X0132211Y0176597D01*
X0132162Y0176633D01*
X0132110Y0176667D01*
X0132056Y0176697D01*
X0132000Y0176724D01*
X0131943Y0176748D01*
X0131885Y0176768D01*
X0131826Y0176784D01*
X0131765Y0176797D01*
X0131704Y0176807D01*
X0131643Y0176812D01*
X0131581Y0176814D01*
X0130048Y0176814D01*
X0127081Y0176814D02*
X0126059Y0176814D01*
X0127081Y0176814D02*
X0127144Y0176816D01*
X0127207Y0176822D01*
X0127269Y0176831D01*
X0127330Y0176845D01*
X0127391Y0176862D01*
X0127450Y0176883D01*
X0127508Y0176908D01*
X0127565Y0176936D01*
X0127619Y0176967D01*
X0127671Y0177002D01*
X0127722Y0177040D01*
X0127770Y0177081D01*
X0127815Y0177125D01*
X0127857Y0177171D01*
X0127897Y0177220D01*
X0127933Y0177271D01*
X0127966Y0177325D01*
X0127996Y0177380D01*
X0128022Y0177438D01*
X0128045Y0177496D01*
X0128064Y0177556D01*
X0128079Y0177617D01*
X0128091Y0177679D01*
X0128099Y0177742D01*
X0128103Y0177805D01*
X0128103Y0177867D01*
X0128099Y0177930D01*
X0128091Y0177993D01*
X0128079Y0178055D01*
X0128064Y0178116D01*
X0128045Y0178176D01*
X0128022Y0178234D01*
X0127996Y0178292D01*
X0127966Y0178347D01*
X0127933Y0178401D01*
X0127897Y0178452D01*
X0127857Y0178501D01*
X0127815Y0178547D01*
X0127770Y0178591D01*
X0127722Y0178632D01*
X0127671Y0178670D01*
X0127619Y0178705D01*
X0127565Y0178736D01*
X0127508Y0178764D01*
X0127450Y0178789D01*
X0127391Y0178810D01*
X0127330Y0178827D01*
X0127269Y0178841D01*
X0127207Y0178850D01*
X0127144Y0178856D01*
X0127081Y0178858D01*
X0125548Y0178858D01*
X0126825Y0176814D02*
X0126895Y0176812D01*
X0126966Y0176806D01*
X0127035Y0176797D01*
X0127104Y0176783D01*
X0127173Y0176766D01*
X0127240Y0176745D01*
X0127306Y0176720D01*
X0127370Y0176692D01*
X0127433Y0176660D01*
X0127494Y0176625D01*
X0127553Y0176586D01*
X0127610Y0176545D01*
X0127664Y0176500D01*
X0127716Y0176452D01*
X0127765Y0176402D01*
X0127812Y0176348D01*
X0127855Y0176293D01*
X0127895Y0176235D01*
X0127932Y0176175D01*
X0127965Y0176113D01*
X0127995Y0176049D01*
X0128022Y0175984D01*
X0128045Y0175918D01*
X0128064Y0175850D01*
X0128079Y0175781D01*
X0128091Y0175712D01*
X0128099Y0175642D01*
X0128103Y0175571D01*
X0128103Y0175501D01*
X0128099Y0175430D01*
X0128091Y0175360D01*
X0128079Y0175291D01*
X0128064Y0175222D01*
X0128045Y0175154D01*
X0128022Y0175088D01*
X0127995Y0175023D01*
X0127965Y0174959D01*
X0127932Y0174897D01*
X0127895Y0174837D01*
X0127855Y0174779D01*
X0127812Y0174724D01*
X0127765Y0174670D01*
X0127716Y0174620D01*
X0127664Y0174572D01*
X0127610Y0174527D01*
X0127553Y0174486D01*
X0127494Y0174447D01*
X0127433Y0174412D01*
X0127370Y0174380D01*
X0127306Y0174352D01*
X0127240Y0174327D01*
X0127173Y0174306D01*
X0127104Y0174289D01*
X0127035Y0174275D01*
X0126966Y0174266D01*
X0126895Y0174260D01*
X0126825Y0174258D01*
X0125548Y0174258D01*
X0120842Y0176175D02*
X0119437Y0176942D01*
X0119948Y0178859D02*
X0120030Y0178857D01*
X0120112Y0178852D01*
X0120194Y0178843D01*
X0120275Y0178831D01*
X0120356Y0178815D01*
X0120436Y0178796D01*
X0120515Y0178773D01*
X0120593Y0178747D01*
X0120670Y0178718D01*
X0120745Y0178685D01*
X0120819Y0178649D01*
X0120892Y0178611D01*
X0120963Y0178569D01*
X0121031Y0178524D01*
X0121098Y0178476D01*
X0119437Y0176942D02*
X0119383Y0176976D01*
X0119332Y0177013D01*
X0119283Y0177053D01*
X0119236Y0177096D01*
X0119193Y0177142D01*
X0119152Y0177190D01*
X0119114Y0177241D01*
X0119079Y0177294D01*
X0119047Y0177349D01*
X0119019Y0177406D01*
X0118995Y0177464D01*
X0118974Y0177524D01*
X0118957Y0177585D01*
X0118943Y0177647D01*
X0118934Y0177710D01*
X0118928Y0177773D01*
X0118926Y0177836D01*
X0118928Y0177898D01*
X0118933Y0177959D01*
X0118943Y0178020D01*
X0118956Y0178081D01*
X0118972Y0178140D01*
X0118992Y0178198D01*
X0119016Y0178255D01*
X0119043Y0178311D01*
X0119073Y0178365D01*
X0119107Y0178417D01*
X0119144Y0178466D01*
X0119183Y0178514D01*
X0119225Y0178559D01*
X0119270Y0178601D01*
X0119318Y0178641D01*
X0119367Y0178677D01*
X0119419Y0178711D01*
X0119473Y0178741D01*
X0119529Y0178768D01*
X0119586Y0178792D01*
X0119644Y0178812D01*
X0119703Y0178828D01*
X0119764Y0178841D01*
X0119825Y0178851D01*
X0119886Y0178856D01*
X0119948Y0178858D01*
X0118798Y0174898D02*
X0118862Y0174835D01*
X0118930Y0174776D01*
X0118999Y0174719D01*
X0119071Y0174665D01*
X0119145Y0174614D01*
X0119221Y0174566D01*
X0119298Y0174522D01*
X0119378Y0174481D01*
X0119459Y0174443D01*
X0119542Y0174408D01*
X0119626Y0174377D01*
X0119712Y0174350D01*
X0119798Y0174326D01*
X0119886Y0174305D01*
X0119974Y0174289D01*
X0120063Y0174276D01*
X0120152Y0174266D01*
X0120241Y0174261D01*
X0120331Y0174259D01*
X0120331Y0174258D02*
X0120393Y0174260D01*
X0120454Y0174265D01*
X0120515Y0174275D01*
X0120576Y0174288D01*
X0120635Y0174304D01*
X0120693Y0174324D01*
X0120750Y0174348D01*
X0120806Y0174375D01*
X0120860Y0174405D01*
X0120912Y0174439D01*
X0120961Y0174475D01*
X0121009Y0174515D01*
X0121054Y0174557D01*
X0121096Y0174602D01*
X0121136Y0174650D01*
X0121172Y0174699D01*
X0121206Y0174751D01*
X0121236Y0174805D01*
X0121263Y0174861D01*
X0121287Y0174918D01*
X0121307Y0174976D01*
X0121323Y0175035D01*
X0121336Y0175096D01*
X0121346Y0175157D01*
X0121351Y0175218D01*
X0121353Y0175280D01*
X0121351Y0175343D01*
X0121345Y0175406D01*
X0121336Y0175469D01*
X0121322Y0175531D01*
X0121305Y0175592D01*
X0121284Y0175652D01*
X0121260Y0175710D01*
X0121232Y0175767D01*
X0121200Y0175822D01*
X0121165Y0175875D01*
X0121127Y0175926D01*
X0121086Y0175974D01*
X0121043Y0176020D01*
X0120996Y0176063D01*
X0120947Y0176103D01*
X0120896Y0176140D01*
X0120842Y0176174D01*
X0116853Y0175536D02*
X0116853Y0178858D01*
X0116853Y0175536D02*
X0116851Y0175466D01*
X0116845Y0175395D01*
X0116836Y0175326D01*
X0116822Y0175257D01*
X0116805Y0175188D01*
X0116784Y0175121D01*
X0116759Y0175055D01*
X0116731Y0174991D01*
X0116699Y0174928D01*
X0116664Y0174867D01*
X0116625Y0174808D01*
X0116584Y0174751D01*
X0116539Y0174697D01*
X0116491Y0174645D01*
X0116441Y0174596D01*
X0116387Y0174549D01*
X0116332Y0174506D01*
X0116274Y0174466D01*
X0116214Y0174429D01*
X0116152Y0174396D01*
X0116088Y0174366D01*
X0116023Y0174339D01*
X0115957Y0174316D01*
X0115889Y0174297D01*
X0115820Y0174282D01*
X0115751Y0174270D01*
X0115681Y0174262D01*
X0115610Y0174258D01*
X0115540Y0174258D01*
X0115469Y0174262D01*
X0115399Y0174270D01*
X0115330Y0174282D01*
X0115261Y0174297D01*
X0115193Y0174316D01*
X0115127Y0174339D01*
X0115062Y0174366D01*
X0114998Y0174396D01*
X0114936Y0174429D01*
X0114876Y0174466D01*
X0114818Y0174506D01*
X0114763Y0174549D01*
X0114709Y0174596D01*
X0114659Y0174645D01*
X0114611Y0174697D01*
X0114566Y0174751D01*
X0114525Y0174808D01*
X0114486Y0174867D01*
X0114451Y0174928D01*
X0114419Y0174991D01*
X0114391Y0175055D01*
X0114366Y0175121D01*
X0114345Y0175188D01*
X0114328Y0175257D01*
X0114314Y0175326D01*
X0114305Y0175395D01*
X0114299Y0175466D01*
X0114297Y0175536D01*
X0114298Y0175536D02*
X0114298Y0178858D01*
X0112053Y0178858D02*
X0112053Y0174258D01*
X0109498Y0178858D01*
X0109498Y0174258D01*
X0107403Y0175536D02*
X0107403Y0177580D01*
X0107401Y0177650D01*
X0107395Y0177721D01*
X0107386Y0177790D01*
X0107372Y0177859D01*
X0107355Y0177928D01*
X0107334Y0177995D01*
X0107309Y0178061D01*
X0107281Y0178125D01*
X0107249Y0178188D01*
X0107214Y0178249D01*
X0107175Y0178308D01*
X0107134Y0178365D01*
X0107089Y0178419D01*
X0107041Y0178471D01*
X0106991Y0178520D01*
X0106937Y0178567D01*
X0106882Y0178610D01*
X0106824Y0178650D01*
X0106764Y0178687D01*
X0106702Y0178720D01*
X0106638Y0178750D01*
X0106573Y0178777D01*
X0106507Y0178800D01*
X0106439Y0178819D01*
X0106370Y0178834D01*
X0106301Y0178846D01*
X0106231Y0178854D01*
X0106160Y0178858D01*
X0106090Y0178858D01*
X0106019Y0178854D01*
X0105949Y0178846D01*
X0105880Y0178834D01*
X0105811Y0178819D01*
X0105743Y0178800D01*
X0105677Y0178777D01*
X0105612Y0178750D01*
X0105548Y0178720D01*
X0105486Y0178687D01*
X0105426Y0178650D01*
X0105368Y0178610D01*
X0105313Y0178567D01*
X0105259Y0178520D01*
X0105209Y0178471D01*
X0105161Y0178419D01*
X0105116Y0178365D01*
X0105075Y0178308D01*
X0105036Y0178249D01*
X0105001Y0178188D01*
X0104969Y0178125D01*
X0104941Y0178061D01*
X0104916Y0177995D01*
X0104895Y0177928D01*
X0104878Y0177859D01*
X0104864Y0177790D01*
X0104855Y0177721D01*
X0104849Y0177650D01*
X0104847Y0177580D01*
X0104848Y0177580D02*
X0104848Y0175536D01*
X0104847Y0175536D02*
X0104849Y0175466D01*
X0104855Y0175395D01*
X0104864Y0175326D01*
X0104878Y0175257D01*
X0104895Y0175188D01*
X0104916Y0175121D01*
X0104941Y0175055D01*
X0104969Y0174991D01*
X0105001Y0174928D01*
X0105036Y0174867D01*
X0105075Y0174808D01*
X0105116Y0174751D01*
X0105161Y0174697D01*
X0105209Y0174645D01*
X0105259Y0174596D01*
X0105313Y0174549D01*
X0105368Y0174506D01*
X0105426Y0174466D01*
X0105486Y0174429D01*
X0105548Y0174396D01*
X0105612Y0174366D01*
X0105677Y0174339D01*
X0105743Y0174316D01*
X0105811Y0174297D01*
X0105880Y0174282D01*
X0105949Y0174270D01*
X0106019Y0174262D01*
X0106090Y0174258D01*
X0106160Y0174258D01*
X0106231Y0174262D01*
X0106301Y0174270D01*
X0106370Y0174282D01*
X0106439Y0174297D01*
X0106507Y0174316D01*
X0106573Y0174339D01*
X0106638Y0174366D01*
X0106702Y0174396D01*
X0106764Y0174429D01*
X0106824Y0174466D01*
X0106882Y0174506D01*
X0106937Y0174549D01*
X0106991Y0174596D01*
X0107041Y0174645D01*
X0107089Y0174697D01*
X0107134Y0174751D01*
X0107175Y0174808D01*
X0107214Y0174867D01*
X0107249Y0174928D01*
X0107281Y0174991D01*
X0107309Y0175055D01*
X0107334Y0175121D01*
X0107355Y0175188D01*
X0107372Y0175257D01*
X0107386Y0175326D01*
X0107395Y0175395D01*
X0107401Y0175466D01*
X0107403Y0175536D01*
X0102542Y0176175D02*
X0101137Y0176942D01*
X0101648Y0178859D02*
X0101730Y0178857D01*
X0101812Y0178852D01*
X0101894Y0178843D01*
X0101975Y0178831D01*
X0102056Y0178815D01*
X0102136Y0178796D01*
X0102215Y0178773D01*
X0102293Y0178747D01*
X0102370Y0178718D01*
X0102445Y0178685D01*
X0102519Y0178649D01*
X0102592Y0178611D01*
X0102663Y0178569D01*
X0102731Y0178524D01*
X0102798Y0178476D01*
X0101137Y0176942D02*
X0101083Y0176976D01*
X0101032Y0177013D01*
X0100983Y0177053D01*
X0100936Y0177096D01*
X0100893Y0177142D01*
X0100852Y0177190D01*
X0100814Y0177241D01*
X0100779Y0177294D01*
X0100747Y0177349D01*
X0100719Y0177406D01*
X0100695Y0177464D01*
X0100674Y0177524D01*
X0100657Y0177585D01*
X0100643Y0177647D01*
X0100634Y0177710D01*
X0100628Y0177773D01*
X0100626Y0177836D01*
X0100628Y0177898D01*
X0100633Y0177959D01*
X0100643Y0178020D01*
X0100656Y0178081D01*
X0100672Y0178140D01*
X0100692Y0178198D01*
X0100716Y0178255D01*
X0100743Y0178311D01*
X0100773Y0178365D01*
X0100807Y0178417D01*
X0100844Y0178466D01*
X0100883Y0178514D01*
X0100925Y0178559D01*
X0100970Y0178601D01*
X0101018Y0178641D01*
X0101067Y0178677D01*
X0101119Y0178711D01*
X0101173Y0178741D01*
X0101229Y0178768D01*
X0101286Y0178792D01*
X0101344Y0178812D01*
X0101403Y0178828D01*
X0101464Y0178841D01*
X0101525Y0178851D01*
X0101586Y0178856D01*
X0101648Y0178858D01*
X0100498Y0174898D02*
X0100562Y0174835D01*
X0100630Y0174776D01*
X0100699Y0174719D01*
X0100771Y0174665D01*
X0100845Y0174614D01*
X0100921Y0174566D01*
X0100998Y0174522D01*
X0101078Y0174481D01*
X0101159Y0174443D01*
X0101242Y0174408D01*
X0101326Y0174377D01*
X0101412Y0174350D01*
X0101498Y0174326D01*
X0101586Y0174305D01*
X0101674Y0174289D01*
X0101763Y0174276D01*
X0101852Y0174266D01*
X0101941Y0174261D01*
X0102031Y0174259D01*
X0102031Y0174258D02*
X0102093Y0174260D01*
X0102154Y0174265D01*
X0102215Y0174275D01*
X0102276Y0174288D01*
X0102335Y0174304D01*
X0102393Y0174324D01*
X0102450Y0174348D01*
X0102506Y0174375D01*
X0102560Y0174405D01*
X0102612Y0174439D01*
X0102661Y0174475D01*
X0102709Y0174515D01*
X0102754Y0174557D01*
X0102796Y0174602D01*
X0102836Y0174650D01*
X0102872Y0174699D01*
X0102906Y0174751D01*
X0102936Y0174805D01*
X0102963Y0174861D01*
X0102987Y0174918D01*
X0103007Y0174976D01*
X0103023Y0175035D01*
X0103036Y0175096D01*
X0103046Y0175157D01*
X0103051Y0175218D01*
X0103053Y0175280D01*
X0103051Y0175343D01*
X0103045Y0175406D01*
X0103036Y0175469D01*
X0103022Y0175531D01*
X0103005Y0175592D01*
X0102984Y0175652D01*
X0102960Y0175710D01*
X0102932Y0175767D01*
X0102900Y0175822D01*
X0102865Y0175875D01*
X0102827Y0175926D01*
X0102786Y0175974D01*
X0102743Y0176020D01*
X0102696Y0176063D01*
X0102647Y0176103D01*
X0102596Y0176140D01*
X0102542Y0176174D01*
X0095901Y0176023D02*
X0084163Y0176023D01*
X0074405Y0176023D02*
X0062746Y0176023D01*
X0062746Y0174692D01*
X0055244Y0174513D02*
X0055244Y0175844D01*
X0055245Y0175845D02*
X0045712Y0175845D01*
X0031623Y0175845D02*
X0022090Y0175845D01*
X0022090Y0174514D01*
X0030266Y0162012D02*
X0046728Y0162012D01*
X0070922Y0162190D02*
X0087384Y0162190D01*
X0095899Y0174691D02*
X0095899Y0176022D01*
X0144514Y0174258D02*
X0144514Y0178858D01*
X0029388Y0142918D02*
X0029388Y0126457D01*
X0015555Y0129939D02*
X0015555Y0118281D01*
X0016886Y0118281D01*
X0015555Y0139698D02*
X0015555Y0151435D01*
X0015555Y0151434D02*
X0016887Y0151434D01*
D242*
X0013419Y0149047D02*
X0011049Y0149047D01*
X0010998Y0149049D01*
X0010948Y0149055D01*
X0010898Y0149064D01*
X0010849Y0149077D01*
X0010802Y0149094D01*
X0010755Y0149114D01*
X0010711Y0149138D01*
X0010668Y0149165D01*
X0010627Y0149195D01*
X0010589Y0149228D01*
X0010553Y0149264D01*
X0010520Y0149302D01*
X0010490Y0149343D01*
X0010463Y0149386D01*
X0010439Y0149430D01*
X0010419Y0149477D01*
X0010402Y0149524D01*
X0010389Y0149573D01*
X0010380Y0149623D01*
X0010374Y0149673D01*
X0010372Y0149724D01*
X0010372Y0150062D01*
X0010372Y0147640D02*
X0010372Y0145947D01*
X0010372Y0146794D02*
X0013419Y0146794D01*
X0012742Y0147640D01*
X0013946Y0166313D02*
X0014285Y0166313D01*
X0014336Y0166315D01*
X0014386Y0166321D01*
X0014436Y0166330D01*
X0014485Y0166343D01*
X0014532Y0166360D01*
X0014579Y0166380D01*
X0014623Y0166404D01*
X0014666Y0166431D01*
X0014707Y0166461D01*
X0014745Y0166494D01*
X0014781Y0166530D01*
X0014814Y0166568D01*
X0014844Y0166609D01*
X0014871Y0166651D01*
X0014895Y0166696D01*
X0014915Y0166743D01*
X0014932Y0166790D01*
X0014945Y0166839D01*
X0014954Y0166889D01*
X0014960Y0166939D01*
X0014962Y0166990D01*
X0014962Y0169359D01*
X0016369Y0169359D02*
X0017384Y0169359D01*
X0017435Y0169357D01*
X0017485Y0169351D01*
X0017535Y0169342D01*
X0017584Y0169329D01*
X0017631Y0169312D01*
X0017678Y0169292D01*
X0017722Y0169268D01*
X0017765Y0169241D01*
X0017806Y0169211D01*
X0017844Y0169178D01*
X0017880Y0169142D01*
X0017913Y0169104D01*
X0017943Y0169063D01*
X0017970Y0169021D01*
X0017994Y0168976D01*
X0018014Y0168929D01*
X0018031Y0168882D01*
X0018044Y0168833D01*
X0018053Y0168783D01*
X0018059Y0168733D01*
X0018061Y0168682D01*
X0018059Y0168631D01*
X0018053Y0168581D01*
X0018044Y0168531D01*
X0018031Y0168482D01*
X0018014Y0168435D01*
X0017994Y0168388D01*
X0017970Y0168344D01*
X0017943Y0168301D01*
X0017913Y0168260D01*
X0017880Y0168222D01*
X0017844Y0168186D01*
X0017806Y0168153D01*
X0017765Y0168123D01*
X0017723Y0168096D01*
X0017678Y0168072D01*
X0017631Y0168052D01*
X0017584Y0168035D01*
X0017535Y0168022D01*
X0017485Y0168013D01*
X0017435Y0168007D01*
X0017384Y0168005D01*
X0016707Y0168005D01*
X0017215Y0168005D02*
X0017272Y0168003D01*
X0017328Y0167997D01*
X0017384Y0167988D01*
X0017439Y0167975D01*
X0017493Y0167958D01*
X0017545Y0167938D01*
X0017597Y0167914D01*
X0017646Y0167887D01*
X0017694Y0167856D01*
X0017739Y0167823D01*
X0017782Y0167786D01*
X0017823Y0167747D01*
X0017861Y0167705D01*
X0017896Y0167661D01*
X0017928Y0167614D01*
X0017957Y0167566D01*
X0017982Y0167515D01*
X0018004Y0167463D01*
X0018023Y0167410D01*
X0018038Y0167355D01*
X0018049Y0167300D01*
X0018057Y0167244D01*
X0018061Y0167187D01*
X0018061Y0167131D01*
X0018057Y0167074D01*
X0018049Y0167018D01*
X0018038Y0166963D01*
X0018023Y0166908D01*
X0018004Y0166855D01*
X0017982Y0166803D01*
X0017957Y0166752D01*
X0017928Y0166704D01*
X0017896Y0166657D01*
X0017861Y0166613D01*
X0017823Y0166571D01*
X0017782Y0166532D01*
X0017739Y0166495D01*
X0017694Y0166462D01*
X0017646Y0166431D01*
X0017597Y0166404D01*
X0017545Y0166380D01*
X0017493Y0166360D01*
X0017439Y0166343D01*
X0017384Y0166330D01*
X0017328Y0166321D01*
X0017272Y0166315D01*
X0017215Y0166313D01*
X0016369Y0166313D01*
X0019315Y0179728D02*
X0019992Y0181759D01*
X0020669Y0179728D01*
X0021346Y0182775D01*
X0022628Y0182775D02*
X0022628Y0179728D01*
X0023982Y0179728D02*
X0023982Y0181251D01*
X0023980Y0181295D01*
X0023974Y0181339D01*
X0023965Y0181382D01*
X0023951Y0181425D01*
X0023934Y0181466D01*
X0023914Y0181505D01*
X0023890Y0181542D01*
X0023863Y0181578D01*
X0023833Y0181610D01*
X0023801Y0181640D01*
X0023765Y0181667D01*
X0023728Y0181691D01*
X0023689Y0181711D01*
X0023648Y0181728D01*
X0023605Y0181742D01*
X0023562Y0181751D01*
X0023518Y0181757D01*
X0023474Y0181759D01*
X0022628Y0181759D01*
X0025312Y0181759D02*
X0025312Y0179728D01*
X0026623Y0180236D02*
X0026623Y0182775D01*
X0026285Y0181759D02*
X0027300Y0181759D01*
X0028450Y0181082D02*
X0028450Y0180236D01*
X0028450Y0180744D02*
X0029804Y0180744D01*
X0029804Y0181082D01*
X0029802Y0181133D01*
X0029796Y0181183D01*
X0029787Y0181233D01*
X0029774Y0181282D01*
X0029757Y0181329D01*
X0029737Y0181376D01*
X0029713Y0181421D01*
X0029686Y0181463D01*
X0029656Y0181504D01*
X0029623Y0181542D01*
X0029587Y0181578D01*
X0029549Y0181611D01*
X0029508Y0181641D01*
X0029466Y0181668D01*
X0029421Y0181692D01*
X0029374Y0181712D01*
X0029327Y0181729D01*
X0029278Y0181742D01*
X0029228Y0181751D01*
X0029178Y0181757D01*
X0029127Y0181759D01*
X0029076Y0181757D01*
X0029026Y0181751D01*
X0028976Y0181742D01*
X0028927Y0181729D01*
X0028880Y0181712D01*
X0028833Y0181692D01*
X0028789Y0181668D01*
X0028746Y0181641D01*
X0028705Y0181611D01*
X0028667Y0181578D01*
X0028631Y0181542D01*
X0028598Y0181504D01*
X0028568Y0181463D01*
X0028541Y0181421D01*
X0028517Y0181376D01*
X0028497Y0181329D01*
X0028480Y0181282D01*
X0028467Y0181233D01*
X0028458Y0181183D01*
X0028452Y0181133D01*
X0028450Y0181082D01*
X0028450Y0180236D02*
X0028452Y0180192D01*
X0028458Y0180148D01*
X0028467Y0180105D01*
X0028481Y0180062D01*
X0028498Y0180021D01*
X0028518Y0179982D01*
X0028542Y0179945D01*
X0028569Y0179909D01*
X0028599Y0179877D01*
X0028631Y0179847D01*
X0028667Y0179820D01*
X0028704Y0179796D01*
X0028743Y0179776D01*
X0028784Y0179759D01*
X0028827Y0179745D01*
X0028870Y0179736D01*
X0028914Y0179730D01*
X0028958Y0179728D01*
X0029804Y0179728D01*
X0027300Y0179728D02*
X0027131Y0179728D01*
X0027087Y0179730D01*
X0027043Y0179736D01*
X0027000Y0179745D01*
X0026957Y0179759D01*
X0026916Y0179776D01*
X0026877Y0179796D01*
X0026840Y0179820D01*
X0026804Y0179847D01*
X0026772Y0179877D01*
X0026742Y0179909D01*
X0026715Y0179945D01*
X0026691Y0179982D01*
X0026671Y0180021D01*
X0026654Y0180062D01*
X0026640Y0180105D01*
X0026631Y0180148D01*
X0026625Y0180192D01*
X0026623Y0180236D01*
X0025397Y0182605D02*
X0025228Y0182605D01*
X0025228Y0182775D01*
X0025397Y0182775D01*
X0025397Y0182605D01*
X0019315Y0179728D02*
X0018638Y0182775D01*
X0061417Y0181972D02*
X0061417Y0180279D01*
X0061419Y0180228D01*
X0061425Y0180178D01*
X0061434Y0180128D01*
X0061447Y0180079D01*
X0061464Y0180032D01*
X0061484Y0179985D01*
X0061508Y0179941D01*
X0061535Y0179898D01*
X0061565Y0179857D01*
X0061598Y0179819D01*
X0061634Y0179783D01*
X0061672Y0179750D01*
X0061713Y0179720D01*
X0061756Y0179693D01*
X0061800Y0179669D01*
X0061847Y0179649D01*
X0061894Y0179632D01*
X0061943Y0179619D01*
X0061993Y0179610D01*
X0062043Y0179604D01*
X0062094Y0179602D01*
X0063109Y0179602D01*
X0063109Y0181295D01*
X0062601Y0181295D01*
X0061417Y0181972D02*
X0061419Y0182023D01*
X0061425Y0182073D01*
X0061434Y0182123D01*
X0061447Y0182172D01*
X0061464Y0182219D01*
X0061484Y0182266D01*
X0061508Y0182310D01*
X0061535Y0182353D01*
X0061565Y0182394D01*
X0061598Y0182432D01*
X0061634Y0182468D01*
X0061672Y0182501D01*
X0061713Y0182531D01*
X0061755Y0182558D01*
X0061800Y0182582D01*
X0061847Y0182602D01*
X0061894Y0182619D01*
X0061943Y0182632D01*
X0061993Y0182641D01*
X0062043Y0182647D01*
X0062094Y0182649D01*
X0063109Y0182649D01*
X0064616Y0181633D02*
X0065632Y0181633D01*
X0065632Y0181295D01*
X0066605Y0180956D02*
X0066605Y0180110D01*
X0066605Y0180618D02*
X0067959Y0180618D01*
X0067959Y0180956D01*
X0067957Y0181007D01*
X0067951Y0181057D01*
X0067942Y0181107D01*
X0067929Y0181156D01*
X0067912Y0181203D01*
X0067892Y0181250D01*
X0067868Y0181295D01*
X0067841Y0181337D01*
X0067811Y0181378D01*
X0067778Y0181416D01*
X0067742Y0181452D01*
X0067704Y0181485D01*
X0067663Y0181515D01*
X0067621Y0181542D01*
X0067576Y0181566D01*
X0067529Y0181586D01*
X0067482Y0181603D01*
X0067433Y0181616D01*
X0067383Y0181625D01*
X0067333Y0181631D01*
X0067282Y0181633D01*
X0067231Y0181631D01*
X0067181Y0181625D01*
X0067131Y0181616D01*
X0067082Y0181603D01*
X0067035Y0181586D01*
X0066988Y0181566D01*
X0066944Y0181542D01*
X0066901Y0181515D01*
X0066860Y0181485D01*
X0066822Y0181452D01*
X0066786Y0181416D01*
X0066753Y0181378D01*
X0066723Y0181337D01*
X0066696Y0181295D01*
X0066672Y0181250D01*
X0066652Y0181203D01*
X0066635Y0181156D01*
X0066622Y0181107D01*
X0066613Y0181057D01*
X0066607Y0181007D01*
X0066605Y0180956D01*
X0066605Y0180110D02*
X0066607Y0180066D01*
X0066613Y0180022D01*
X0066622Y0179979D01*
X0066636Y0179936D01*
X0066653Y0179895D01*
X0066673Y0179856D01*
X0066697Y0179819D01*
X0066724Y0179783D01*
X0066754Y0179751D01*
X0066786Y0179721D01*
X0066822Y0179694D01*
X0066859Y0179670D01*
X0066898Y0179650D01*
X0066939Y0179633D01*
X0066982Y0179619D01*
X0067025Y0179610D01*
X0067069Y0179604D01*
X0067113Y0179602D01*
X0067959Y0179602D01*
X0069216Y0180110D02*
X0069216Y0180956D01*
X0069216Y0180618D02*
X0070570Y0180618D01*
X0070570Y0180956D01*
X0070568Y0181007D01*
X0070562Y0181057D01*
X0070553Y0181107D01*
X0070540Y0181156D01*
X0070523Y0181203D01*
X0070503Y0181250D01*
X0070479Y0181295D01*
X0070452Y0181337D01*
X0070422Y0181378D01*
X0070389Y0181416D01*
X0070353Y0181452D01*
X0070315Y0181485D01*
X0070274Y0181515D01*
X0070232Y0181542D01*
X0070187Y0181566D01*
X0070140Y0181586D01*
X0070093Y0181603D01*
X0070044Y0181616D01*
X0069994Y0181625D01*
X0069944Y0181631D01*
X0069893Y0181633D01*
X0069842Y0181631D01*
X0069792Y0181625D01*
X0069742Y0181616D01*
X0069693Y0181603D01*
X0069646Y0181586D01*
X0069599Y0181566D01*
X0069555Y0181542D01*
X0069512Y0181515D01*
X0069471Y0181485D01*
X0069433Y0181452D01*
X0069397Y0181416D01*
X0069364Y0181378D01*
X0069334Y0181337D01*
X0069307Y0181295D01*
X0069283Y0181250D01*
X0069263Y0181203D01*
X0069246Y0181156D01*
X0069233Y0181107D01*
X0069224Y0181057D01*
X0069218Y0181007D01*
X0069216Y0180956D01*
X0069215Y0180110D02*
X0069217Y0180066D01*
X0069223Y0180022D01*
X0069232Y0179979D01*
X0069246Y0179936D01*
X0069263Y0179895D01*
X0069283Y0179856D01*
X0069307Y0179819D01*
X0069334Y0179783D01*
X0069364Y0179751D01*
X0069396Y0179721D01*
X0069432Y0179694D01*
X0069469Y0179670D01*
X0069508Y0179650D01*
X0069549Y0179633D01*
X0069592Y0179619D01*
X0069635Y0179610D01*
X0069679Y0179604D01*
X0069723Y0179602D01*
X0070570Y0179602D01*
X0071926Y0179602D02*
X0071926Y0181633D01*
X0072773Y0181633D01*
X0072817Y0181631D01*
X0072861Y0181625D01*
X0072904Y0181616D01*
X0072947Y0181602D01*
X0072988Y0181585D01*
X0073027Y0181565D01*
X0073064Y0181541D01*
X0073100Y0181514D01*
X0073132Y0181484D01*
X0073162Y0181452D01*
X0073189Y0181416D01*
X0073213Y0181379D01*
X0073233Y0181340D01*
X0073250Y0181299D01*
X0073264Y0181256D01*
X0073273Y0181213D01*
X0073279Y0181169D01*
X0073281Y0181125D01*
X0073280Y0181125D02*
X0073280Y0179602D01*
X0064616Y0179602D02*
X0064616Y0181633D01*
X0087915Y0179135D02*
X0088254Y0179135D01*
X0088305Y0179137D01*
X0088355Y0179143D01*
X0088405Y0179152D01*
X0088454Y0179165D01*
X0088501Y0179182D01*
X0088548Y0179202D01*
X0088592Y0179226D01*
X0088635Y0179253D01*
X0088676Y0179283D01*
X0088714Y0179316D01*
X0088750Y0179352D01*
X0088783Y0179390D01*
X0088813Y0179431D01*
X0088840Y0179473D01*
X0088864Y0179518D01*
X0088884Y0179565D01*
X0088901Y0179612D01*
X0088914Y0179661D01*
X0088923Y0179711D01*
X0088929Y0179761D01*
X0088931Y0179812D01*
X0088931Y0182182D01*
X0091776Y0180828D02*
X0091815Y0180867D01*
X0091851Y0180909D01*
X0091884Y0180953D01*
X0091914Y0181000D01*
X0091940Y0181048D01*
X0091964Y0181098D01*
X0091984Y0181149D01*
X0092000Y0181202D01*
X0092013Y0181256D01*
X0092023Y0181310D01*
X0092028Y0181365D01*
X0092030Y0181420D01*
X0091776Y0180828D02*
X0090338Y0179135D01*
X0092030Y0179135D01*
X0090338Y0181504D02*
X0090358Y0181562D01*
X0090383Y0181619D01*
X0090411Y0181673D01*
X0090442Y0181726D01*
X0090476Y0181777D01*
X0090514Y0181826D01*
X0090555Y0181872D01*
X0090598Y0181916D01*
X0090644Y0181956D01*
X0090693Y0181994D01*
X0090744Y0182029D01*
X0090797Y0182060D01*
X0090851Y0182088D01*
X0090908Y0182112D01*
X0090966Y0182133D01*
X0091025Y0182150D01*
X0091085Y0182164D01*
X0091145Y0182173D01*
X0091207Y0182179D01*
X0091268Y0182181D01*
X0091268Y0182182D02*
X0091322Y0182180D01*
X0091376Y0182174D01*
X0091430Y0182165D01*
X0091483Y0182151D01*
X0091534Y0182134D01*
X0091585Y0182113D01*
X0091633Y0182089D01*
X0091680Y0182061D01*
X0091725Y0182030D01*
X0091767Y0181996D01*
X0091807Y0181959D01*
X0091844Y0181919D01*
X0091878Y0181877D01*
X0091909Y0181832D01*
X0091937Y0181785D01*
X0091961Y0181737D01*
X0091982Y0181686D01*
X0091999Y0181635D01*
X0092013Y0181582D01*
X0092022Y0181528D01*
X0092028Y0181474D01*
X0092030Y0181420D01*
X0085229Y0153244D02*
X0082473Y0153244D01*
X0085229Y0153244D02*
X0085229Y0150488D01*
X0085230Y0138011D02*
X0085230Y0135255D01*
X0082474Y0135255D01*
X0069997Y0135254D02*
X0067241Y0135254D01*
X0067241Y0138010D01*
X0064441Y0149197D02*
X0064439Y0149180D01*
X0064434Y0149164D01*
X0064426Y0149149D01*
X0064414Y0149137D01*
X0064401Y0149127D01*
X0064385Y0149120D01*
X0064368Y0149116D01*
X0064352Y0149116D01*
X0064335Y0149120D01*
X0064320Y0149127D01*
X0064306Y0149137D01*
X0064294Y0149149D01*
X0064286Y0149164D01*
X0064281Y0149180D01*
X0064279Y0149197D01*
X0064281Y0149214D01*
X0064286Y0149230D01*
X0064294Y0149245D01*
X0064306Y0149257D01*
X0064320Y0149267D01*
X0064335Y0149274D01*
X0064352Y0149278D01*
X0064368Y0149278D01*
X0064385Y0149274D01*
X0064401Y0149267D01*
X0064414Y0149257D01*
X0064426Y0149245D01*
X0064434Y0149230D01*
X0064439Y0149214D01*
X0064441Y0149197D01*
X0064602Y0149197D02*
X0064600Y0149167D01*
X0064594Y0149137D01*
X0064585Y0149108D01*
X0064572Y0149080D01*
X0064556Y0149055D01*
X0064536Y0149031D01*
X0064514Y0149011D01*
X0064490Y0148993D01*
X0064463Y0148978D01*
X0064435Y0148967D01*
X0064405Y0148959D01*
X0064375Y0148955D01*
X0064345Y0148955D01*
X0064315Y0148959D01*
X0064285Y0148967D01*
X0064257Y0148978D01*
X0064230Y0148993D01*
X0064206Y0149011D01*
X0064184Y0149031D01*
X0064164Y0149055D01*
X0064148Y0149080D01*
X0064135Y0149108D01*
X0064126Y0149137D01*
X0064120Y0149167D01*
X0064118Y0149197D01*
X0064120Y0149227D01*
X0064126Y0149257D01*
X0064135Y0149286D01*
X0064148Y0149314D01*
X0064164Y0149339D01*
X0064184Y0149363D01*
X0064206Y0149383D01*
X0064230Y0149401D01*
X0064257Y0149416D01*
X0064285Y0149427D01*
X0064315Y0149435D01*
X0064345Y0149439D01*
X0064375Y0149439D01*
X0064405Y0149435D01*
X0064435Y0149427D01*
X0064463Y0149416D01*
X0064490Y0149401D01*
X0064514Y0149383D01*
X0064536Y0149363D01*
X0064556Y0149339D01*
X0064572Y0149314D01*
X0064585Y0149286D01*
X0064594Y0149257D01*
X0064600Y0149227D01*
X0064602Y0149197D01*
X0064763Y0149197D02*
X0064761Y0149159D01*
X0064756Y0149121D01*
X0064747Y0149083D01*
X0064734Y0149047D01*
X0064718Y0149012D01*
X0064699Y0148979D01*
X0064677Y0148948D01*
X0064652Y0148919D01*
X0064624Y0148892D01*
X0064594Y0148869D01*
X0064562Y0148848D01*
X0064527Y0148830D01*
X0064492Y0148816D01*
X0064455Y0148805D01*
X0064417Y0148798D01*
X0064379Y0148794D01*
X0064341Y0148794D01*
X0064303Y0148798D01*
X0064265Y0148805D01*
X0064228Y0148816D01*
X0064193Y0148830D01*
X0064159Y0148848D01*
X0064126Y0148869D01*
X0064096Y0148892D01*
X0064068Y0148919D01*
X0064043Y0148948D01*
X0064021Y0148979D01*
X0064002Y0149012D01*
X0063986Y0149047D01*
X0063973Y0149083D01*
X0063964Y0149121D01*
X0063959Y0149159D01*
X0063957Y0149197D01*
X0063959Y0149235D01*
X0063964Y0149273D01*
X0063973Y0149311D01*
X0063986Y0149347D01*
X0064002Y0149382D01*
X0064021Y0149415D01*
X0064043Y0149446D01*
X0064068Y0149475D01*
X0064096Y0149502D01*
X0064126Y0149525D01*
X0064159Y0149546D01*
X0064193Y0149564D01*
X0064228Y0149578D01*
X0064265Y0149589D01*
X0064303Y0149596D01*
X0064341Y0149600D01*
X0064379Y0149600D01*
X0064417Y0149596D01*
X0064455Y0149589D01*
X0064492Y0149578D01*
X0064527Y0149564D01*
X0064562Y0149546D01*
X0064594Y0149525D01*
X0064624Y0149502D01*
X0064652Y0149475D01*
X0064677Y0149446D01*
X0064699Y0149415D01*
X0064718Y0149382D01*
X0064734Y0149347D01*
X0064747Y0149311D01*
X0064756Y0149273D01*
X0064761Y0149235D01*
X0064763Y0149197D01*
X0064924Y0149197D02*
X0064922Y0149150D01*
X0064916Y0149104D01*
X0064907Y0149059D01*
X0064893Y0149014D01*
X0064876Y0148970D01*
X0064856Y0148929D01*
X0064832Y0148889D01*
X0064805Y0148851D01*
X0064775Y0148815D01*
X0064742Y0148782D01*
X0064706Y0148752D01*
X0064668Y0148725D01*
X0064628Y0148701D01*
X0064587Y0148681D01*
X0064543Y0148664D01*
X0064498Y0148650D01*
X0064453Y0148641D01*
X0064407Y0148635D01*
X0064360Y0148633D01*
X0064313Y0148635D01*
X0064267Y0148641D01*
X0064222Y0148650D01*
X0064177Y0148664D01*
X0064133Y0148681D01*
X0064092Y0148701D01*
X0064052Y0148725D01*
X0064014Y0148752D01*
X0063978Y0148782D01*
X0063945Y0148815D01*
X0063915Y0148851D01*
X0063888Y0148889D01*
X0063864Y0148929D01*
X0063844Y0148970D01*
X0063827Y0149014D01*
X0063813Y0149059D01*
X0063804Y0149104D01*
X0063798Y0149150D01*
X0063796Y0149197D01*
X0063798Y0149244D01*
X0063804Y0149290D01*
X0063813Y0149335D01*
X0063827Y0149380D01*
X0063844Y0149424D01*
X0063864Y0149465D01*
X0063888Y0149505D01*
X0063915Y0149543D01*
X0063945Y0149579D01*
X0063978Y0149612D01*
X0064014Y0149642D01*
X0064052Y0149669D01*
X0064092Y0149693D01*
X0064133Y0149713D01*
X0064177Y0149730D01*
X0064222Y0149744D01*
X0064267Y0149753D01*
X0064313Y0149759D01*
X0064360Y0149761D01*
X0064407Y0149759D01*
X0064453Y0149753D01*
X0064498Y0149744D01*
X0064543Y0149730D01*
X0064587Y0149713D01*
X0064628Y0149693D01*
X0064668Y0149669D01*
X0064706Y0149642D01*
X0064742Y0149612D01*
X0064775Y0149579D01*
X0064805Y0149543D01*
X0064832Y0149505D01*
X0064856Y0149465D01*
X0064876Y0149424D01*
X0064893Y0149380D01*
X0064907Y0149335D01*
X0064916Y0149290D01*
X0064922Y0149244D01*
X0064924Y0149197D01*
X0067240Y0150487D02*
X0067240Y0153243D01*
X0069996Y0153243D01*
X0013132Y0128929D02*
X0013132Y0128083D01*
X0013130Y0128032D01*
X0013124Y0127982D01*
X0013115Y0127932D01*
X0013102Y0127883D01*
X0013085Y0127836D01*
X0013065Y0127789D01*
X0013041Y0127745D01*
X0013014Y0127702D01*
X0012984Y0127661D01*
X0012951Y0127623D01*
X0012915Y0127587D01*
X0012877Y0127554D01*
X0012836Y0127524D01*
X0012794Y0127497D01*
X0012749Y0127473D01*
X0012702Y0127453D01*
X0012655Y0127436D01*
X0012606Y0127423D01*
X0012556Y0127414D01*
X0012506Y0127408D01*
X0012455Y0127406D01*
X0012404Y0127408D01*
X0012354Y0127414D01*
X0012304Y0127423D01*
X0012255Y0127436D01*
X0012208Y0127453D01*
X0012161Y0127473D01*
X0012117Y0127497D01*
X0012074Y0127524D01*
X0012033Y0127554D01*
X0011995Y0127587D01*
X0011959Y0127623D01*
X0011926Y0127661D01*
X0011896Y0127702D01*
X0011869Y0127745D01*
X0011845Y0127789D01*
X0011825Y0127836D01*
X0011808Y0127883D01*
X0011795Y0127932D01*
X0011786Y0127982D01*
X0011780Y0128032D01*
X0011778Y0128083D01*
X0011778Y0128929D01*
X0011778Y0128083D02*
X0011776Y0128026D01*
X0011770Y0127970D01*
X0011761Y0127914D01*
X0011748Y0127859D01*
X0011731Y0127805D01*
X0011711Y0127753D01*
X0011687Y0127701D01*
X0011660Y0127652D01*
X0011629Y0127604D01*
X0011596Y0127559D01*
X0011559Y0127516D01*
X0011520Y0127475D01*
X0011478Y0127437D01*
X0011434Y0127402D01*
X0011387Y0127370D01*
X0011339Y0127341D01*
X0011288Y0127316D01*
X0011236Y0127294D01*
X0011183Y0127275D01*
X0011128Y0127260D01*
X0011073Y0127249D01*
X0011017Y0127241D01*
X0010960Y0127237D01*
X0010904Y0127237D01*
X0010847Y0127241D01*
X0010791Y0127249D01*
X0010736Y0127260D01*
X0010681Y0127275D01*
X0010628Y0127294D01*
X0010576Y0127316D01*
X0010525Y0127341D01*
X0010477Y0127370D01*
X0010430Y0127402D01*
X0010386Y0127437D01*
X0010344Y0127475D01*
X0010305Y0127516D01*
X0010268Y0127559D01*
X0010235Y0127604D01*
X0010204Y0127652D01*
X0010177Y0127701D01*
X0010153Y0127753D01*
X0010133Y0127805D01*
X0010116Y0127859D01*
X0010103Y0127914D01*
X0010094Y0127970D01*
X0010088Y0128026D01*
X0010086Y0128083D01*
X0010086Y0128929D01*
X0013132Y0128929D01*
X0013132Y0126061D02*
X0010594Y0126061D01*
X0010550Y0126059D01*
X0010506Y0126053D01*
X0010463Y0126044D01*
X0010420Y0126030D01*
X0010379Y0126013D01*
X0010340Y0125993D01*
X0010303Y0125969D01*
X0010267Y0125942D01*
X0010235Y0125912D01*
X0010205Y0125880D01*
X0010178Y0125844D01*
X0010154Y0125807D01*
X0010134Y0125768D01*
X0010117Y0125727D01*
X0010103Y0125684D01*
X0010094Y0125641D01*
X0010088Y0125597D01*
X0010086Y0125553D01*
X0010594Y0124390D02*
X0012117Y0124390D01*
X0012117Y0123036D02*
X0010086Y0123036D01*
X0010086Y0123882D01*
X0010088Y0123926D01*
X0010094Y0123970D01*
X0010103Y0124013D01*
X0010117Y0124056D01*
X0010134Y0124097D01*
X0010154Y0124136D01*
X0010178Y0124173D01*
X0010205Y0124209D01*
X0010235Y0124241D01*
X0010267Y0124271D01*
X0010303Y0124298D01*
X0010340Y0124322D01*
X0010379Y0124342D01*
X0010420Y0124359D01*
X0010463Y0124373D01*
X0010506Y0124382D01*
X0010550Y0124388D01*
X0010594Y0124390D01*
X0010594Y0121679D02*
X0011440Y0121679D01*
X0011101Y0121679D02*
X0011101Y0120325D01*
X0011440Y0120325D01*
X0011491Y0120327D01*
X0011541Y0120333D01*
X0011591Y0120342D01*
X0011640Y0120355D01*
X0011687Y0120372D01*
X0011734Y0120392D01*
X0011779Y0120416D01*
X0011821Y0120443D01*
X0011862Y0120473D01*
X0011900Y0120506D01*
X0011936Y0120542D01*
X0011969Y0120580D01*
X0011999Y0120621D01*
X0012026Y0120664D01*
X0012050Y0120708D01*
X0012070Y0120755D01*
X0012087Y0120802D01*
X0012100Y0120851D01*
X0012109Y0120901D01*
X0012115Y0120951D01*
X0012117Y0121002D01*
X0012115Y0121053D01*
X0012109Y0121103D01*
X0012100Y0121153D01*
X0012087Y0121202D01*
X0012070Y0121249D01*
X0012050Y0121296D01*
X0012026Y0121341D01*
X0011999Y0121383D01*
X0011969Y0121424D01*
X0011936Y0121462D01*
X0011900Y0121498D01*
X0011862Y0121531D01*
X0011821Y0121561D01*
X0011778Y0121588D01*
X0011734Y0121612D01*
X0011687Y0121632D01*
X0011640Y0121649D01*
X0011591Y0121662D01*
X0011541Y0121671D01*
X0011491Y0121677D01*
X0011440Y0121679D01*
X0010594Y0121680D02*
X0010550Y0121678D01*
X0010506Y0121672D01*
X0010463Y0121663D01*
X0010420Y0121649D01*
X0010379Y0121632D01*
X0010340Y0121612D01*
X0010303Y0121588D01*
X0010267Y0121561D01*
X0010235Y0121531D01*
X0010205Y0121499D01*
X0010178Y0121463D01*
X0010154Y0121426D01*
X0010134Y0121387D01*
X0010117Y0121346D01*
X0010103Y0121303D01*
X0010094Y0121260D01*
X0010088Y0121216D01*
X0010086Y0121172D01*
X0010086Y0120325D01*
X0133414Y0138791D02*
X0134300Y0138307D01*
X0133978Y0137099D02*
X0133906Y0137101D01*
X0133835Y0137107D01*
X0133764Y0137116D01*
X0133694Y0137129D01*
X0133624Y0137146D01*
X0133555Y0137166D01*
X0133488Y0137190D01*
X0133422Y0137218D01*
X0133357Y0137249D01*
X0133294Y0137283D01*
X0133233Y0137321D01*
X0133174Y0137362D01*
X0133118Y0137405D01*
X0133063Y0137452D01*
X0133012Y0137502D01*
X0134301Y0138307D02*
X0134341Y0138281D01*
X0134380Y0138252D01*
X0134417Y0138220D01*
X0134451Y0138185D01*
X0134482Y0138148D01*
X0134511Y0138109D01*
X0134537Y0138068D01*
X0134559Y0138025D01*
X0134578Y0137980D01*
X0134594Y0137934D01*
X0134607Y0137888D01*
X0134616Y0137840D01*
X0134621Y0137792D01*
X0134623Y0137743D01*
X0134622Y0137743D02*
X0134620Y0137695D01*
X0134615Y0137647D01*
X0134606Y0137600D01*
X0134593Y0137553D01*
X0134577Y0137508D01*
X0134558Y0137464D01*
X0134536Y0137421D01*
X0134510Y0137380D01*
X0134481Y0137341D01*
X0134450Y0137305D01*
X0134416Y0137271D01*
X0134380Y0137240D01*
X0134341Y0137211D01*
X0134300Y0137185D01*
X0134257Y0137163D01*
X0134213Y0137144D01*
X0134168Y0137128D01*
X0134121Y0137115D01*
X0134074Y0137106D01*
X0134026Y0137101D01*
X0133978Y0137099D01*
X0134461Y0139756D02*
X0134408Y0139794D01*
X0134353Y0139828D01*
X0134297Y0139860D01*
X0134238Y0139889D01*
X0134179Y0139914D01*
X0134118Y0139936D01*
X0134056Y0139955D01*
X0133993Y0139970D01*
X0133930Y0139982D01*
X0133865Y0139991D01*
X0133801Y0139996D01*
X0133736Y0139998D01*
X0133688Y0139996D01*
X0133640Y0139991D01*
X0133593Y0139982D01*
X0133546Y0139969D01*
X0133501Y0139953D01*
X0133457Y0139934D01*
X0133414Y0139912D01*
X0133373Y0139886D01*
X0133334Y0139858D01*
X0133298Y0139826D01*
X0133264Y0139792D01*
X0133233Y0139756D01*
X0133204Y0139717D01*
X0133178Y0139676D01*
X0133156Y0139633D01*
X0133137Y0139589D01*
X0133121Y0139544D01*
X0133108Y0139497D01*
X0133099Y0139450D01*
X0133094Y0139402D01*
X0133092Y0139354D01*
X0133091Y0139354D02*
X0133093Y0139305D01*
X0133098Y0139257D01*
X0133107Y0139209D01*
X0133120Y0139163D01*
X0133136Y0139117D01*
X0133155Y0139072D01*
X0133177Y0139029D01*
X0133203Y0138988D01*
X0133232Y0138949D01*
X0133263Y0138912D01*
X0133297Y0138877D01*
X0133334Y0138845D01*
X0133373Y0138816D01*
X0133413Y0138790D01*
X0135937Y0138388D02*
X0136743Y0138388D01*
X0136743Y0138387D02*
X0136798Y0138389D01*
X0136853Y0138395D01*
X0136907Y0138404D01*
X0136960Y0138417D01*
X0137013Y0138434D01*
X0137064Y0138454D01*
X0137114Y0138477D01*
X0137162Y0138504D01*
X0137208Y0138535D01*
X0137252Y0138568D01*
X0137293Y0138604D01*
X0137332Y0138643D01*
X0137368Y0138684D01*
X0137401Y0138728D01*
X0137432Y0138774D01*
X0137459Y0138822D01*
X0137482Y0138872D01*
X0137502Y0138923D01*
X0137519Y0138976D01*
X0137532Y0139029D01*
X0137541Y0139083D01*
X0137547Y0139138D01*
X0137549Y0139193D01*
X0137547Y0139248D01*
X0137541Y0139303D01*
X0137532Y0139357D01*
X0137519Y0139410D01*
X0137502Y0139463D01*
X0137482Y0139514D01*
X0137459Y0139564D01*
X0137432Y0139612D01*
X0137401Y0139658D01*
X0137368Y0139702D01*
X0137332Y0139743D01*
X0137293Y0139782D01*
X0137252Y0139818D01*
X0137208Y0139851D01*
X0137162Y0139882D01*
X0137114Y0139909D01*
X0137064Y0139932D01*
X0137013Y0139952D01*
X0136960Y0139969D01*
X0136907Y0139982D01*
X0136853Y0139991D01*
X0136798Y0139997D01*
X0136743Y0139999D01*
X0135937Y0139999D01*
X0135937Y0137099D01*
X0138817Y0137099D02*
X0138817Y0139999D01*
X0139462Y0138871D02*
X0140429Y0137099D01*
X0141555Y0137099D02*
X0143166Y0137099D01*
X0142361Y0137099D02*
X0142361Y0139999D01*
X0141555Y0139354D01*
X0140429Y0139999D02*
X0138817Y0138227D01*
X0167682Y0171341D02*
X0170051Y0171341D01*
X0170102Y0171339D01*
X0170152Y0171333D01*
X0170202Y0171324D01*
X0170251Y0171311D01*
X0170298Y0171294D01*
X0170345Y0171274D01*
X0170390Y0171250D01*
X0170432Y0171223D01*
X0170473Y0171193D01*
X0170511Y0171160D01*
X0170547Y0171124D01*
X0170580Y0171086D01*
X0170610Y0171045D01*
X0170637Y0171002D01*
X0170661Y0170958D01*
X0170681Y0170911D01*
X0170698Y0170864D01*
X0170711Y0170815D01*
X0170720Y0170765D01*
X0170726Y0170715D01*
X0170728Y0170664D01*
X0170728Y0170326D01*
X0170728Y0172748D02*
X0170728Y0173763D01*
X0170726Y0173814D01*
X0170720Y0173864D01*
X0170711Y0173914D01*
X0170698Y0173963D01*
X0170681Y0174010D01*
X0170661Y0174057D01*
X0170637Y0174101D01*
X0170610Y0174144D01*
X0170580Y0174185D01*
X0170547Y0174223D01*
X0170511Y0174259D01*
X0170473Y0174292D01*
X0170432Y0174322D01*
X0170390Y0174349D01*
X0170345Y0174373D01*
X0170298Y0174393D01*
X0170251Y0174410D01*
X0170202Y0174423D01*
X0170152Y0174432D01*
X0170102Y0174438D01*
X0170051Y0174440D01*
X0169713Y0174440D01*
X0169662Y0174438D01*
X0169612Y0174432D01*
X0169562Y0174423D01*
X0169513Y0174410D01*
X0169466Y0174393D01*
X0169419Y0174373D01*
X0169375Y0174349D01*
X0169332Y0174322D01*
X0169291Y0174292D01*
X0169253Y0174259D01*
X0169217Y0174223D01*
X0169184Y0174185D01*
X0169154Y0174144D01*
X0169127Y0174102D01*
X0169103Y0174057D01*
X0169083Y0174010D01*
X0169066Y0173963D01*
X0169053Y0173914D01*
X0169044Y0173864D01*
X0169038Y0173814D01*
X0169036Y0173763D01*
X0169036Y0172748D01*
X0167682Y0172748D01*
X0167682Y0174440D01*
X0167682Y0175907D02*
X0167682Y0176754D01*
X0167684Y0176811D01*
X0167690Y0176867D01*
X0167699Y0176923D01*
X0167712Y0176978D01*
X0167729Y0177032D01*
X0167749Y0177084D01*
X0167773Y0177136D01*
X0167800Y0177185D01*
X0167831Y0177233D01*
X0167864Y0177278D01*
X0167901Y0177321D01*
X0167940Y0177362D01*
X0167982Y0177400D01*
X0168026Y0177435D01*
X0168073Y0177467D01*
X0168121Y0177496D01*
X0168172Y0177521D01*
X0168224Y0177543D01*
X0168277Y0177562D01*
X0168332Y0177577D01*
X0168387Y0177588D01*
X0168443Y0177596D01*
X0168500Y0177600D01*
X0168556Y0177600D01*
X0168613Y0177596D01*
X0168669Y0177588D01*
X0168724Y0177577D01*
X0168779Y0177562D01*
X0168832Y0177543D01*
X0168884Y0177521D01*
X0168935Y0177496D01*
X0168983Y0177467D01*
X0169030Y0177435D01*
X0169074Y0177400D01*
X0169116Y0177362D01*
X0169155Y0177321D01*
X0169192Y0177278D01*
X0169225Y0177233D01*
X0169256Y0177185D01*
X0169283Y0177136D01*
X0169307Y0177084D01*
X0169327Y0177032D01*
X0169344Y0176978D01*
X0169357Y0176923D01*
X0169366Y0176867D01*
X0169372Y0176811D01*
X0169374Y0176754D01*
X0169374Y0175907D01*
X0170728Y0175907D02*
X0167682Y0175907D01*
D243*
X0161834Y0162503D02*
X0161834Y0161892D01*
X0161100Y0161892D01*
X0161834Y0161892D02*
X0161832Y0161831D01*
X0161826Y0161769D01*
X0161817Y0161709D01*
X0161803Y0161649D01*
X0161786Y0161590D01*
X0161765Y0161532D01*
X0161741Y0161476D01*
X0161713Y0161421D01*
X0161682Y0161368D01*
X0161647Y0161317D01*
X0161610Y0161269D01*
X0161569Y0161223D01*
X0161525Y0161179D01*
X0161479Y0161138D01*
X0161431Y0161101D01*
X0161380Y0161066D01*
X0161327Y0161035D01*
X0161272Y0161007D01*
X0161216Y0160983D01*
X0161158Y0160962D01*
X0161099Y0160945D01*
X0161039Y0160931D01*
X0160979Y0160922D01*
X0160917Y0160916D01*
X0160856Y0160914D01*
X0159688Y0160914D02*
X0159199Y0161892D01*
X0159077Y0161892D02*
X0158466Y0161892D01*
X0159077Y0161892D02*
X0159125Y0161894D01*
X0159173Y0161900D01*
X0159220Y0161909D01*
X0159266Y0161922D01*
X0159311Y0161939D01*
X0159354Y0161959D01*
X0159396Y0161982D01*
X0159436Y0162009D01*
X0159474Y0162038D01*
X0159509Y0162071D01*
X0159542Y0162106D01*
X0159571Y0162144D01*
X0159598Y0162184D01*
X0159621Y0162226D01*
X0159641Y0162269D01*
X0159658Y0162314D01*
X0159671Y0162360D01*
X0159680Y0162407D01*
X0159686Y0162455D01*
X0159688Y0162503D01*
X0159686Y0162551D01*
X0159680Y0162599D01*
X0159671Y0162646D01*
X0159658Y0162692D01*
X0159641Y0162737D01*
X0159621Y0162780D01*
X0159598Y0162822D01*
X0159571Y0162862D01*
X0159542Y0162900D01*
X0159509Y0162935D01*
X0159474Y0162968D01*
X0159436Y0162997D01*
X0159396Y0163024D01*
X0159354Y0163047D01*
X0159311Y0163067D01*
X0159266Y0163084D01*
X0159220Y0163097D01*
X0159173Y0163106D01*
X0159125Y0163112D01*
X0159077Y0163114D01*
X0158466Y0163114D01*
X0158466Y0160914D01*
X0160612Y0162381D02*
X0160612Y0162503D01*
X0160611Y0162381D02*
X0160613Y0162338D01*
X0160618Y0162296D01*
X0160628Y0162254D01*
X0160640Y0162214D01*
X0160657Y0162174D01*
X0160677Y0162137D01*
X0160699Y0162101D01*
X0160725Y0162067D01*
X0160754Y0162035D01*
X0160786Y0162006D01*
X0160820Y0161980D01*
X0160855Y0161958D01*
X0160893Y0161938D01*
X0160933Y0161921D01*
X0160973Y0161909D01*
X0161015Y0161899D01*
X0161057Y0161894D01*
X0161100Y0161892D01*
X0160612Y0162503D02*
X0160614Y0162551D01*
X0160620Y0162599D01*
X0160629Y0162646D01*
X0160642Y0162692D01*
X0160659Y0162737D01*
X0160679Y0162780D01*
X0160702Y0162822D01*
X0160729Y0162862D01*
X0160758Y0162900D01*
X0160791Y0162935D01*
X0160826Y0162968D01*
X0160864Y0162997D01*
X0160904Y0163024D01*
X0160946Y0163047D01*
X0160989Y0163067D01*
X0161034Y0163084D01*
X0161080Y0163097D01*
X0161127Y0163106D01*
X0161175Y0163112D01*
X0161223Y0163114D01*
X0161271Y0163112D01*
X0161319Y0163106D01*
X0161366Y0163097D01*
X0161412Y0163084D01*
X0161457Y0163067D01*
X0161500Y0163047D01*
X0161542Y0163024D01*
X0161582Y0162997D01*
X0161620Y0162968D01*
X0161655Y0162935D01*
X0161688Y0162900D01*
X0161717Y0162862D01*
X0161744Y0162822D01*
X0161767Y0162780D01*
X0161787Y0162737D01*
X0161804Y0162692D01*
X0161817Y0162646D01*
X0161826Y0162599D01*
X0161832Y0162551D01*
X0161834Y0162503D01*
X0161643Y0157819D02*
X0161641Y0157776D01*
X0161636Y0157734D01*
X0161626Y0157692D01*
X0161614Y0157652D01*
X0161597Y0157612D01*
X0161577Y0157575D01*
X0161555Y0157539D01*
X0161529Y0157505D01*
X0161500Y0157473D01*
X0161468Y0157444D01*
X0161434Y0157418D01*
X0161399Y0157396D01*
X0161361Y0157376D01*
X0161321Y0157359D01*
X0161281Y0157347D01*
X0161239Y0157337D01*
X0161197Y0157332D01*
X0161154Y0157330D01*
X0161111Y0157332D01*
X0161069Y0157337D01*
X0161027Y0157347D01*
X0160987Y0157359D01*
X0160947Y0157376D01*
X0160910Y0157396D01*
X0160874Y0157418D01*
X0160840Y0157444D01*
X0160808Y0157473D01*
X0160779Y0157505D01*
X0160753Y0157539D01*
X0160731Y0157575D01*
X0160711Y0157612D01*
X0160694Y0157652D01*
X0160682Y0157692D01*
X0160672Y0157734D01*
X0160667Y0157776D01*
X0160665Y0157819D01*
X0160667Y0157862D01*
X0160672Y0157904D01*
X0160682Y0157946D01*
X0160694Y0157986D01*
X0160711Y0158026D01*
X0160731Y0158064D01*
X0160753Y0158099D01*
X0160779Y0158133D01*
X0160808Y0158165D01*
X0160840Y0158194D01*
X0160874Y0158220D01*
X0160910Y0158242D01*
X0160947Y0158262D01*
X0160987Y0158279D01*
X0161027Y0158291D01*
X0161069Y0158301D01*
X0161111Y0158306D01*
X0161154Y0158308D01*
X0161197Y0158306D01*
X0161239Y0158301D01*
X0161281Y0158291D01*
X0161321Y0158279D01*
X0161361Y0158262D01*
X0161399Y0158242D01*
X0161434Y0158220D01*
X0161468Y0158194D01*
X0161500Y0158165D01*
X0161529Y0158133D01*
X0161555Y0158099D01*
X0161577Y0158064D01*
X0161597Y0158026D01*
X0161614Y0157986D01*
X0161626Y0157946D01*
X0161636Y0157904D01*
X0161641Y0157862D01*
X0161643Y0157819D01*
X0161765Y0156719D02*
X0161763Y0156671D01*
X0161757Y0156623D01*
X0161748Y0156576D01*
X0161735Y0156530D01*
X0161718Y0156485D01*
X0161698Y0156442D01*
X0161675Y0156400D01*
X0161648Y0156360D01*
X0161619Y0156322D01*
X0161586Y0156287D01*
X0161551Y0156254D01*
X0161513Y0156225D01*
X0161473Y0156198D01*
X0161431Y0156175D01*
X0161388Y0156155D01*
X0161343Y0156138D01*
X0161297Y0156125D01*
X0161250Y0156116D01*
X0161202Y0156110D01*
X0161154Y0156108D01*
X0161106Y0156110D01*
X0161058Y0156116D01*
X0161011Y0156125D01*
X0160965Y0156138D01*
X0160920Y0156155D01*
X0160877Y0156175D01*
X0160835Y0156198D01*
X0160795Y0156225D01*
X0160757Y0156254D01*
X0160722Y0156287D01*
X0160689Y0156322D01*
X0160660Y0156360D01*
X0160633Y0156400D01*
X0160610Y0156442D01*
X0160590Y0156485D01*
X0160573Y0156530D01*
X0160560Y0156576D01*
X0160551Y0156623D01*
X0160545Y0156671D01*
X0160543Y0156719D01*
X0160545Y0156767D01*
X0160551Y0156815D01*
X0160560Y0156862D01*
X0160573Y0156908D01*
X0160590Y0156953D01*
X0160610Y0156996D01*
X0160633Y0157038D01*
X0160660Y0157078D01*
X0160689Y0157116D01*
X0160722Y0157151D01*
X0160757Y0157184D01*
X0160795Y0157213D01*
X0160835Y0157240D01*
X0160877Y0157263D01*
X0160920Y0157283D01*
X0160965Y0157300D01*
X0161011Y0157313D01*
X0161058Y0157322D01*
X0161106Y0157328D01*
X0161154Y0157330D01*
X0161202Y0157328D01*
X0161250Y0157322D01*
X0161297Y0157313D01*
X0161343Y0157300D01*
X0161388Y0157283D01*
X0161431Y0157263D01*
X0161473Y0157240D01*
X0161513Y0157213D01*
X0161551Y0157184D01*
X0161586Y0157151D01*
X0161619Y0157116D01*
X0161648Y0157078D01*
X0161675Y0157038D01*
X0161698Y0156996D01*
X0161718Y0156953D01*
X0161735Y0156908D01*
X0161748Y0156862D01*
X0161757Y0156815D01*
X0161763Y0156767D01*
X0161765Y0156719D01*
X0159619Y0156107D02*
X0159130Y0157085D01*
X0159008Y0157085D02*
X0158397Y0157085D01*
X0159008Y0157085D02*
X0159056Y0157087D01*
X0159104Y0157093D01*
X0159151Y0157102D01*
X0159197Y0157115D01*
X0159242Y0157132D01*
X0159285Y0157152D01*
X0159327Y0157175D01*
X0159367Y0157202D01*
X0159405Y0157231D01*
X0159440Y0157264D01*
X0159473Y0157299D01*
X0159502Y0157337D01*
X0159529Y0157377D01*
X0159552Y0157419D01*
X0159572Y0157462D01*
X0159589Y0157507D01*
X0159602Y0157553D01*
X0159611Y0157600D01*
X0159617Y0157648D01*
X0159619Y0157696D01*
X0159617Y0157744D01*
X0159611Y0157792D01*
X0159602Y0157839D01*
X0159589Y0157885D01*
X0159572Y0157930D01*
X0159552Y0157973D01*
X0159529Y0158015D01*
X0159502Y0158055D01*
X0159473Y0158093D01*
X0159440Y0158128D01*
X0159405Y0158161D01*
X0159367Y0158190D01*
X0159327Y0158217D01*
X0159285Y0158240D01*
X0159242Y0158260D01*
X0159197Y0158277D01*
X0159151Y0158290D01*
X0159104Y0158299D01*
X0159056Y0158305D01*
X0159008Y0158307D01*
X0158397Y0158307D01*
X0158397Y0156107D01*
X0135488Y0150185D02*
X0135488Y0147985D01*
X0134877Y0147985D02*
X0136099Y0147985D01*
X0134048Y0147985D02*
X0133559Y0147985D01*
X0133516Y0147987D01*
X0133474Y0147992D01*
X0133432Y0148002D01*
X0133392Y0148014D01*
X0133352Y0148031D01*
X0133315Y0148051D01*
X0133279Y0148073D01*
X0133245Y0148099D01*
X0133213Y0148128D01*
X0133184Y0148160D01*
X0133158Y0148194D01*
X0133136Y0148230D01*
X0133116Y0148267D01*
X0133099Y0148307D01*
X0133087Y0148347D01*
X0133077Y0148389D01*
X0133072Y0148431D01*
X0133070Y0148474D01*
X0133070Y0149696D01*
X0133072Y0149739D01*
X0133077Y0149781D01*
X0133087Y0149823D01*
X0133099Y0149863D01*
X0133116Y0149903D01*
X0133136Y0149940D01*
X0133158Y0149976D01*
X0133184Y0150010D01*
X0133213Y0150042D01*
X0133245Y0150071D01*
X0133279Y0150097D01*
X0133314Y0150119D01*
X0133352Y0150139D01*
X0133392Y0150156D01*
X0133432Y0150168D01*
X0133474Y0150178D01*
X0133516Y0150183D01*
X0133559Y0150185D01*
X0134048Y0150185D01*
X0134877Y0149696D02*
X0135488Y0150185D01*
X0107357Y0145809D02*
X0106135Y0145809D01*
X0106746Y0145809D02*
X0106746Y0148009D01*
X0106135Y0147520D01*
X0104586Y0148009D02*
X0104586Y0145809D01*
X0103975Y0145809D02*
X0105197Y0145809D01*
X0103975Y0147520D02*
X0104586Y0148009D01*
X0102441Y0148009D02*
X0101829Y0148009D01*
X0101829Y0145809D01*
X0101829Y0146787D02*
X0102441Y0146787D01*
X0102563Y0146787D02*
X0103052Y0145809D01*
X0102441Y0146787D02*
X0102489Y0146789D01*
X0102537Y0146795D01*
X0102584Y0146804D01*
X0102630Y0146817D01*
X0102675Y0146834D01*
X0102718Y0146854D01*
X0102760Y0146877D01*
X0102800Y0146904D01*
X0102838Y0146933D01*
X0102873Y0146966D01*
X0102906Y0147001D01*
X0102935Y0147039D01*
X0102962Y0147079D01*
X0102985Y0147121D01*
X0103005Y0147164D01*
X0103022Y0147209D01*
X0103035Y0147255D01*
X0103044Y0147302D01*
X0103050Y0147350D01*
X0103052Y0147398D01*
X0103050Y0147446D01*
X0103044Y0147494D01*
X0103035Y0147541D01*
X0103022Y0147587D01*
X0103005Y0147632D01*
X0102985Y0147675D01*
X0102962Y0147717D01*
X0102935Y0147757D01*
X0102906Y0147795D01*
X0102873Y0147830D01*
X0102838Y0147863D01*
X0102800Y0147892D01*
X0102760Y0147919D01*
X0102718Y0147942D01*
X0102675Y0147962D01*
X0102630Y0147979D01*
X0102584Y0147992D01*
X0102537Y0148001D01*
X0102489Y0148007D01*
X0102441Y0148009D01*
X0102494Y0142474D02*
X0101883Y0142474D01*
X0101883Y0140274D01*
X0101883Y0141252D02*
X0102494Y0141252D01*
X0102616Y0141252D02*
X0103105Y0140274D01*
X0104028Y0140274D02*
X0105251Y0140274D01*
X0104028Y0140274D02*
X0105067Y0141496D01*
X0104701Y0142475D02*
X0104649Y0142473D01*
X0104597Y0142467D01*
X0104545Y0142458D01*
X0104495Y0142444D01*
X0104445Y0142427D01*
X0104397Y0142406D01*
X0104351Y0142382D01*
X0104307Y0142355D01*
X0104264Y0142324D01*
X0104224Y0142290D01*
X0104187Y0142254D01*
X0104153Y0142214D01*
X0104121Y0142172D01*
X0104093Y0142129D01*
X0104068Y0142083D01*
X0104046Y0142035D01*
X0104028Y0141986D01*
X0105068Y0141496D02*
X0105101Y0141530D01*
X0105131Y0141567D01*
X0105159Y0141607D01*
X0105183Y0141648D01*
X0105203Y0141691D01*
X0105220Y0141736D01*
X0105234Y0141782D01*
X0105243Y0141829D01*
X0105249Y0141876D01*
X0105251Y0141924D01*
X0105249Y0141969D01*
X0105243Y0142015D01*
X0105234Y0142059D01*
X0105221Y0142103D01*
X0105205Y0142145D01*
X0105185Y0142186D01*
X0105161Y0142225D01*
X0105135Y0142262D01*
X0105106Y0142297D01*
X0105074Y0142329D01*
X0105039Y0142358D01*
X0105002Y0142384D01*
X0104963Y0142408D01*
X0104922Y0142428D01*
X0104880Y0142444D01*
X0104836Y0142457D01*
X0104792Y0142466D01*
X0104746Y0142472D01*
X0104701Y0142474D01*
X0102494Y0142474D02*
X0102542Y0142472D01*
X0102590Y0142466D01*
X0102637Y0142457D01*
X0102683Y0142444D01*
X0102728Y0142427D01*
X0102771Y0142407D01*
X0102813Y0142384D01*
X0102853Y0142357D01*
X0102891Y0142328D01*
X0102926Y0142295D01*
X0102959Y0142260D01*
X0102988Y0142222D01*
X0103015Y0142182D01*
X0103038Y0142140D01*
X0103058Y0142097D01*
X0103075Y0142052D01*
X0103088Y0142006D01*
X0103097Y0141959D01*
X0103103Y0141911D01*
X0103105Y0141863D01*
X0103103Y0141815D01*
X0103097Y0141767D01*
X0103088Y0141720D01*
X0103075Y0141674D01*
X0103058Y0141629D01*
X0103038Y0141586D01*
X0103015Y0141544D01*
X0102988Y0141504D01*
X0102959Y0141466D01*
X0102926Y0141431D01*
X0102891Y0141398D01*
X0102853Y0141369D01*
X0102813Y0141342D01*
X0102771Y0141319D01*
X0102728Y0141299D01*
X0102683Y0141282D01*
X0102637Y0141269D01*
X0102590Y0141260D01*
X0102542Y0141254D01*
X0102494Y0141252D01*
X0102595Y0137773D02*
X0101984Y0137773D01*
X0101984Y0135573D01*
X0101984Y0136551D02*
X0102595Y0136551D01*
X0102717Y0136551D02*
X0103206Y0135573D01*
X0104129Y0135573D02*
X0104741Y0135573D01*
X0104789Y0135575D01*
X0104837Y0135581D01*
X0104884Y0135590D01*
X0104930Y0135603D01*
X0104975Y0135620D01*
X0105018Y0135640D01*
X0105060Y0135663D01*
X0105100Y0135690D01*
X0105138Y0135719D01*
X0105173Y0135752D01*
X0105206Y0135787D01*
X0105235Y0135825D01*
X0105262Y0135865D01*
X0105285Y0135907D01*
X0105305Y0135950D01*
X0105322Y0135995D01*
X0105335Y0136041D01*
X0105344Y0136088D01*
X0105350Y0136136D01*
X0105352Y0136184D01*
X0105350Y0136232D01*
X0105344Y0136280D01*
X0105335Y0136327D01*
X0105322Y0136373D01*
X0105305Y0136418D01*
X0105285Y0136461D01*
X0105262Y0136503D01*
X0105235Y0136543D01*
X0105206Y0136581D01*
X0105173Y0136616D01*
X0105138Y0136649D01*
X0105100Y0136678D01*
X0105060Y0136705D01*
X0105018Y0136728D01*
X0104975Y0136748D01*
X0104930Y0136765D01*
X0104884Y0136778D01*
X0104837Y0136787D01*
X0104789Y0136793D01*
X0104741Y0136795D01*
X0104863Y0136795D02*
X0104374Y0136795D01*
X0104863Y0136795D02*
X0104906Y0136797D01*
X0104948Y0136802D01*
X0104990Y0136812D01*
X0105030Y0136824D01*
X0105070Y0136841D01*
X0105108Y0136861D01*
X0105143Y0136883D01*
X0105177Y0136909D01*
X0105209Y0136938D01*
X0105238Y0136970D01*
X0105264Y0137004D01*
X0105286Y0137040D01*
X0105306Y0137077D01*
X0105323Y0137117D01*
X0105335Y0137157D01*
X0105345Y0137199D01*
X0105350Y0137241D01*
X0105352Y0137284D01*
X0105350Y0137327D01*
X0105345Y0137369D01*
X0105335Y0137411D01*
X0105323Y0137451D01*
X0105306Y0137491D01*
X0105286Y0137529D01*
X0105264Y0137564D01*
X0105238Y0137598D01*
X0105209Y0137630D01*
X0105177Y0137659D01*
X0105143Y0137685D01*
X0105108Y0137707D01*
X0105070Y0137727D01*
X0105030Y0137744D01*
X0104990Y0137756D01*
X0104948Y0137766D01*
X0104906Y0137771D01*
X0104863Y0137773D01*
X0104129Y0137773D01*
X0102595Y0137773D02*
X0102643Y0137771D01*
X0102691Y0137765D01*
X0102738Y0137756D01*
X0102784Y0137743D01*
X0102829Y0137726D01*
X0102872Y0137706D01*
X0102914Y0137683D01*
X0102954Y0137656D01*
X0102992Y0137627D01*
X0103027Y0137594D01*
X0103060Y0137559D01*
X0103089Y0137521D01*
X0103116Y0137481D01*
X0103139Y0137439D01*
X0103159Y0137396D01*
X0103176Y0137351D01*
X0103189Y0137305D01*
X0103198Y0137258D01*
X0103204Y0137210D01*
X0103206Y0137162D01*
X0103204Y0137114D01*
X0103198Y0137066D01*
X0103189Y0137019D01*
X0103176Y0136973D01*
X0103159Y0136928D01*
X0103139Y0136885D01*
X0103116Y0136843D01*
X0103089Y0136803D01*
X0103060Y0136765D01*
X0103027Y0136730D01*
X0102992Y0136697D01*
X0102954Y0136668D01*
X0102914Y0136641D01*
X0102872Y0136618D01*
X0102829Y0136598D01*
X0102784Y0136581D01*
X0102738Y0136568D01*
X0102691Y0136559D01*
X0102643Y0136553D01*
X0102595Y0136551D01*
X0088166Y0128347D02*
X0087432Y0128347D01*
X0086604Y0128347D02*
X0086115Y0128347D01*
X0086072Y0128345D01*
X0086030Y0128340D01*
X0085988Y0128330D01*
X0085948Y0128318D01*
X0085908Y0128301D01*
X0085870Y0128281D01*
X0085835Y0128259D01*
X0085801Y0128233D01*
X0085769Y0128204D01*
X0085740Y0128172D01*
X0085714Y0128138D01*
X0085692Y0128102D01*
X0085672Y0128065D01*
X0085655Y0128025D01*
X0085643Y0127985D01*
X0085633Y0127943D01*
X0085628Y0127901D01*
X0085626Y0127858D01*
X0085626Y0126636D01*
X0085628Y0126593D01*
X0085633Y0126551D01*
X0085643Y0126509D01*
X0085655Y0126469D01*
X0085672Y0126429D01*
X0085692Y0126392D01*
X0085714Y0126356D01*
X0085740Y0126322D01*
X0085769Y0126290D01*
X0085801Y0126261D01*
X0085835Y0126235D01*
X0085871Y0126213D01*
X0085908Y0126193D01*
X0085948Y0126176D01*
X0085988Y0126164D01*
X0086030Y0126154D01*
X0086072Y0126149D01*
X0086115Y0126147D01*
X0086604Y0126147D01*
X0087432Y0126147D02*
X0088043Y0126147D01*
X0088091Y0126149D01*
X0088139Y0126155D01*
X0088186Y0126164D01*
X0088232Y0126177D01*
X0088277Y0126194D01*
X0088320Y0126214D01*
X0088362Y0126237D01*
X0088402Y0126264D01*
X0088440Y0126293D01*
X0088475Y0126326D01*
X0088508Y0126361D01*
X0088537Y0126399D01*
X0088564Y0126439D01*
X0088587Y0126481D01*
X0088607Y0126524D01*
X0088624Y0126569D01*
X0088637Y0126615D01*
X0088646Y0126662D01*
X0088652Y0126710D01*
X0088654Y0126758D01*
X0088652Y0126806D01*
X0088646Y0126854D01*
X0088637Y0126901D01*
X0088624Y0126947D01*
X0088607Y0126992D01*
X0088587Y0127035D01*
X0088564Y0127077D01*
X0088537Y0127117D01*
X0088508Y0127155D01*
X0088475Y0127190D01*
X0088440Y0127223D01*
X0088402Y0127252D01*
X0088362Y0127279D01*
X0088320Y0127302D01*
X0088277Y0127322D01*
X0088232Y0127339D01*
X0088186Y0127352D01*
X0088139Y0127361D01*
X0088091Y0127367D01*
X0088043Y0127369D01*
X0088166Y0127369D02*
X0087677Y0127369D01*
X0088166Y0127369D02*
X0088209Y0127371D01*
X0088251Y0127376D01*
X0088293Y0127386D01*
X0088333Y0127398D01*
X0088373Y0127415D01*
X0088411Y0127435D01*
X0088446Y0127457D01*
X0088480Y0127483D01*
X0088512Y0127512D01*
X0088541Y0127544D01*
X0088567Y0127578D01*
X0088589Y0127614D01*
X0088609Y0127651D01*
X0088626Y0127691D01*
X0088638Y0127731D01*
X0088648Y0127773D01*
X0088653Y0127815D01*
X0088655Y0127858D01*
X0088653Y0127901D01*
X0088648Y0127943D01*
X0088638Y0127985D01*
X0088626Y0128025D01*
X0088609Y0128065D01*
X0088589Y0128103D01*
X0088567Y0128138D01*
X0088541Y0128172D01*
X0088512Y0128204D01*
X0088480Y0128233D01*
X0088446Y0128259D01*
X0088411Y0128281D01*
X0088373Y0128301D01*
X0088333Y0128318D01*
X0088293Y0128330D01*
X0088251Y0128340D01*
X0088209Y0128345D01*
X0088166Y0128347D01*
X0065790Y0136286D02*
X0064568Y0136286D01*
X0065179Y0136286D02*
X0065179Y0138486D01*
X0064568Y0137997D01*
X0063558Y0138486D02*
X0063558Y0136897D01*
X0063556Y0136849D01*
X0063550Y0136801D01*
X0063541Y0136754D01*
X0063528Y0136708D01*
X0063511Y0136663D01*
X0063491Y0136620D01*
X0063468Y0136578D01*
X0063441Y0136538D01*
X0063412Y0136500D01*
X0063379Y0136465D01*
X0063344Y0136432D01*
X0063306Y0136403D01*
X0063266Y0136376D01*
X0063224Y0136353D01*
X0063181Y0136333D01*
X0063136Y0136316D01*
X0063090Y0136303D01*
X0063043Y0136294D01*
X0062995Y0136288D01*
X0062947Y0136286D01*
X0062899Y0136288D01*
X0062851Y0136294D01*
X0062804Y0136303D01*
X0062758Y0136316D01*
X0062713Y0136333D01*
X0062670Y0136353D01*
X0062628Y0136376D01*
X0062588Y0136403D01*
X0062550Y0136432D01*
X0062515Y0136465D01*
X0062482Y0136500D01*
X0062453Y0136538D01*
X0062426Y0136578D01*
X0062403Y0136620D01*
X0062383Y0136663D01*
X0062366Y0136708D01*
X0062353Y0136754D01*
X0062344Y0136801D01*
X0062338Y0136849D01*
X0062336Y0136897D01*
X0062336Y0138486D01*
X0057499Y0132159D02*
X0057010Y0132159D01*
X0056967Y0132157D01*
X0056925Y0132152D01*
X0056883Y0132142D01*
X0056843Y0132130D01*
X0056803Y0132113D01*
X0056765Y0132093D01*
X0056730Y0132071D01*
X0056696Y0132045D01*
X0056664Y0132016D01*
X0056635Y0131984D01*
X0056609Y0131950D01*
X0056587Y0131914D01*
X0056567Y0131877D01*
X0056550Y0131837D01*
X0056538Y0131797D01*
X0056528Y0131755D01*
X0056523Y0131713D01*
X0056521Y0131670D01*
X0056521Y0130447D01*
X0056523Y0130404D01*
X0056528Y0130362D01*
X0056538Y0130320D01*
X0056550Y0130280D01*
X0056567Y0130240D01*
X0056587Y0130203D01*
X0056609Y0130167D01*
X0056635Y0130133D01*
X0056664Y0130101D01*
X0056696Y0130072D01*
X0056730Y0130046D01*
X0056766Y0130024D01*
X0056803Y0130004D01*
X0056843Y0129987D01*
X0056883Y0129975D01*
X0056925Y0129965D01*
X0056967Y0129960D01*
X0057010Y0129958D01*
X0057010Y0129959D02*
X0057499Y0129959D01*
X0058328Y0129959D02*
X0059550Y0129959D01*
X0058328Y0129959D02*
X0059367Y0131181D01*
X0059000Y0132159D02*
X0058948Y0132157D01*
X0058896Y0132151D01*
X0058844Y0132142D01*
X0058794Y0132128D01*
X0058744Y0132111D01*
X0058696Y0132090D01*
X0058650Y0132066D01*
X0058606Y0132039D01*
X0058563Y0132008D01*
X0058523Y0131974D01*
X0058486Y0131938D01*
X0058452Y0131898D01*
X0058420Y0131856D01*
X0058392Y0131813D01*
X0058367Y0131767D01*
X0058345Y0131719D01*
X0058327Y0131670D01*
X0059367Y0131181D02*
X0059400Y0131215D01*
X0059430Y0131252D01*
X0059458Y0131292D01*
X0059482Y0131333D01*
X0059502Y0131376D01*
X0059519Y0131421D01*
X0059533Y0131467D01*
X0059542Y0131514D01*
X0059548Y0131561D01*
X0059550Y0131609D01*
X0059548Y0131654D01*
X0059542Y0131700D01*
X0059533Y0131744D01*
X0059520Y0131788D01*
X0059504Y0131830D01*
X0059484Y0131871D01*
X0059460Y0131910D01*
X0059434Y0131947D01*
X0059405Y0131982D01*
X0059373Y0132014D01*
X0059338Y0132043D01*
X0059301Y0132069D01*
X0059262Y0132093D01*
X0059221Y0132113D01*
X0059179Y0132129D01*
X0059135Y0132142D01*
X0059091Y0132151D01*
X0059045Y0132157D01*
X0059000Y0132159D01*
X0041452Y0148600D02*
X0041452Y0148722D01*
X0041453Y0148722D02*
X0041451Y0148765D01*
X0041446Y0148807D01*
X0041436Y0148849D01*
X0041424Y0148889D01*
X0041407Y0148929D01*
X0041387Y0148967D01*
X0041365Y0149002D01*
X0041339Y0149036D01*
X0041310Y0149068D01*
X0041278Y0149097D01*
X0041244Y0149123D01*
X0041209Y0149145D01*
X0041171Y0149165D01*
X0041131Y0149182D01*
X0041091Y0149194D01*
X0041049Y0149204D01*
X0041007Y0149209D01*
X0040964Y0149211D01*
X0040230Y0149211D01*
X0040230Y0148600D01*
X0040232Y0148552D01*
X0040238Y0148504D01*
X0040247Y0148457D01*
X0040260Y0148411D01*
X0040277Y0148366D01*
X0040297Y0148323D01*
X0040320Y0148281D01*
X0040347Y0148241D01*
X0040376Y0148203D01*
X0040409Y0148168D01*
X0040444Y0148135D01*
X0040482Y0148106D01*
X0040522Y0148079D01*
X0040564Y0148056D01*
X0040607Y0148036D01*
X0040652Y0148019D01*
X0040698Y0148006D01*
X0040745Y0147997D01*
X0040793Y0147991D01*
X0040841Y0147989D01*
X0040889Y0147991D01*
X0040937Y0147997D01*
X0040984Y0148006D01*
X0041030Y0148019D01*
X0041075Y0148036D01*
X0041118Y0148056D01*
X0041160Y0148079D01*
X0041200Y0148106D01*
X0041238Y0148135D01*
X0041273Y0148168D01*
X0041306Y0148203D01*
X0041335Y0148241D01*
X0041362Y0148281D01*
X0041385Y0148323D01*
X0041405Y0148366D01*
X0041422Y0148411D01*
X0041435Y0148457D01*
X0041444Y0148504D01*
X0041450Y0148552D01*
X0041452Y0148600D01*
X0040230Y0149211D02*
X0040232Y0149272D01*
X0040238Y0149334D01*
X0040247Y0149394D01*
X0040261Y0149454D01*
X0040278Y0149513D01*
X0040299Y0149571D01*
X0040323Y0149627D01*
X0040351Y0149682D01*
X0040382Y0149735D01*
X0040417Y0149786D01*
X0040454Y0149834D01*
X0040495Y0149880D01*
X0040539Y0149924D01*
X0040585Y0149965D01*
X0040633Y0150002D01*
X0040684Y0150037D01*
X0040737Y0150068D01*
X0040792Y0150096D01*
X0040848Y0150120D01*
X0040906Y0150141D01*
X0040965Y0150158D01*
X0041025Y0150172D01*
X0041085Y0150181D01*
X0041147Y0150187D01*
X0041208Y0150189D01*
X0038696Y0150188D02*
X0038084Y0150188D01*
X0038084Y0147988D01*
X0038084Y0148966D02*
X0038696Y0148966D01*
X0038818Y0148966D02*
X0039307Y0147988D01*
X0038696Y0148966D02*
X0038744Y0148968D01*
X0038792Y0148974D01*
X0038839Y0148983D01*
X0038885Y0148996D01*
X0038930Y0149013D01*
X0038973Y0149033D01*
X0039015Y0149056D01*
X0039055Y0149083D01*
X0039093Y0149112D01*
X0039128Y0149145D01*
X0039161Y0149180D01*
X0039190Y0149218D01*
X0039217Y0149258D01*
X0039240Y0149300D01*
X0039260Y0149343D01*
X0039277Y0149388D01*
X0039290Y0149434D01*
X0039299Y0149481D01*
X0039305Y0149529D01*
X0039307Y0149577D01*
X0039305Y0149625D01*
X0039299Y0149673D01*
X0039290Y0149720D01*
X0039277Y0149766D01*
X0039260Y0149811D01*
X0039240Y0149854D01*
X0039217Y0149896D01*
X0039190Y0149936D01*
X0039161Y0149974D01*
X0039128Y0150009D01*
X0039093Y0150042D01*
X0039055Y0150071D01*
X0039015Y0150098D01*
X0038973Y0150121D01*
X0038930Y0150141D01*
X0038885Y0150158D01*
X0038839Y0150171D01*
X0038792Y0150180D01*
X0038744Y0150186D01*
X0038696Y0150188D01*
X0036846Y0148196D02*
X0034646Y0148807D01*
X0034646Y0147585D01*
X0034890Y0147585D01*
X0034646Y0146050D02*
X0034646Y0145439D01*
X0036846Y0145439D01*
X0035868Y0145439D02*
X0035868Y0146050D01*
X0035868Y0146173D02*
X0036846Y0146662D01*
X0035868Y0146050D02*
X0035866Y0146098D01*
X0035860Y0146146D01*
X0035851Y0146193D01*
X0035838Y0146239D01*
X0035821Y0146284D01*
X0035801Y0146327D01*
X0035778Y0146369D01*
X0035751Y0146409D01*
X0035722Y0146447D01*
X0035689Y0146482D01*
X0035654Y0146515D01*
X0035616Y0146544D01*
X0035576Y0146571D01*
X0035534Y0146594D01*
X0035491Y0146614D01*
X0035446Y0146631D01*
X0035400Y0146644D01*
X0035353Y0146653D01*
X0035305Y0146659D01*
X0035257Y0146661D01*
X0035209Y0146659D01*
X0035161Y0146653D01*
X0035114Y0146644D01*
X0035068Y0146631D01*
X0035023Y0146614D01*
X0034980Y0146594D01*
X0034938Y0146571D01*
X0034898Y0146544D01*
X0034860Y0146515D01*
X0034825Y0146482D01*
X0034792Y0146447D01*
X0034763Y0146409D01*
X0034736Y0146369D01*
X0034713Y0146327D01*
X0034693Y0146284D01*
X0034676Y0146239D01*
X0034663Y0146193D01*
X0034654Y0146146D01*
X0034648Y0146098D01*
X0034646Y0146050D01*
X0045184Y0153508D02*
X0045184Y0155708D01*
X0045795Y0155708D01*
X0045843Y0155706D01*
X0045891Y0155700D01*
X0045938Y0155691D01*
X0045984Y0155678D01*
X0046029Y0155661D01*
X0046072Y0155641D01*
X0046114Y0155618D01*
X0046154Y0155591D01*
X0046192Y0155562D01*
X0046227Y0155529D01*
X0046260Y0155494D01*
X0046289Y0155456D01*
X0046316Y0155416D01*
X0046339Y0155374D01*
X0046359Y0155331D01*
X0046376Y0155286D01*
X0046389Y0155240D01*
X0046398Y0155193D01*
X0046404Y0155145D01*
X0046406Y0155097D01*
X0046404Y0155049D01*
X0046398Y0155001D01*
X0046389Y0154954D01*
X0046376Y0154908D01*
X0046359Y0154863D01*
X0046339Y0154820D01*
X0046316Y0154778D01*
X0046289Y0154738D01*
X0046260Y0154700D01*
X0046227Y0154665D01*
X0046192Y0154632D01*
X0046154Y0154603D01*
X0046114Y0154576D01*
X0046072Y0154553D01*
X0046029Y0154533D01*
X0045984Y0154516D01*
X0045938Y0154503D01*
X0045891Y0154494D01*
X0045843Y0154488D01*
X0045795Y0154486D01*
X0045184Y0154486D01*
X0045917Y0154486D02*
X0046406Y0153508D01*
X0047330Y0153997D02*
X0048552Y0153997D01*
X0048185Y0154486D02*
X0048185Y0153508D01*
X0047330Y0153997D02*
X0047819Y0155708D01*
X0036918Y0124078D02*
X0034718Y0124078D01*
X0035696Y0124078D02*
X0035696Y0123467D01*
X0035696Y0123345D02*
X0034718Y0122856D01*
X0034718Y0121932D02*
X0034718Y0121199D01*
X0034720Y0121156D01*
X0034725Y0121114D01*
X0034735Y0121072D01*
X0034747Y0121032D01*
X0034764Y0120992D01*
X0034784Y0120955D01*
X0034806Y0120919D01*
X0034832Y0120885D01*
X0034861Y0120853D01*
X0034893Y0120824D01*
X0034927Y0120798D01*
X0034962Y0120776D01*
X0035000Y0120756D01*
X0035040Y0120739D01*
X0035080Y0120727D01*
X0035122Y0120717D01*
X0035164Y0120712D01*
X0035207Y0120710D01*
X0035452Y0120710D01*
X0035495Y0120712D01*
X0035537Y0120717D01*
X0035579Y0120727D01*
X0035619Y0120739D01*
X0035659Y0120756D01*
X0035697Y0120776D01*
X0035732Y0120798D01*
X0035766Y0120824D01*
X0035798Y0120853D01*
X0035827Y0120885D01*
X0035853Y0120919D01*
X0035875Y0120955D01*
X0035895Y0120992D01*
X0035912Y0121032D01*
X0035924Y0121072D01*
X0035934Y0121114D01*
X0035939Y0121156D01*
X0035941Y0121199D01*
X0035940Y0121199D02*
X0035940Y0121932D01*
X0036918Y0121932D01*
X0036918Y0120710D01*
X0036918Y0123467D02*
X0036918Y0124078D01*
X0036918Y0123467D02*
X0036916Y0123419D01*
X0036910Y0123371D01*
X0036901Y0123324D01*
X0036888Y0123278D01*
X0036871Y0123233D01*
X0036851Y0123190D01*
X0036828Y0123148D01*
X0036801Y0123108D01*
X0036772Y0123070D01*
X0036739Y0123035D01*
X0036704Y0123002D01*
X0036666Y0122973D01*
X0036626Y0122946D01*
X0036584Y0122923D01*
X0036541Y0122903D01*
X0036496Y0122886D01*
X0036450Y0122873D01*
X0036403Y0122864D01*
X0036355Y0122858D01*
X0036307Y0122856D01*
X0036259Y0122858D01*
X0036211Y0122864D01*
X0036164Y0122873D01*
X0036118Y0122886D01*
X0036073Y0122903D01*
X0036030Y0122923D01*
X0035988Y0122946D01*
X0035948Y0122973D01*
X0035910Y0123002D01*
X0035875Y0123035D01*
X0035842Y0123070D01*
X0035813Y0123108D01*
X0035786Y0123148D01*
X0035763Y0123190D01*
X0035743Y0123233D01*
X0035726Y0123278D01*
X0035713Y0123324D01*
X0035704Y0123371D01*
X0035698Y0123419D01*
X0035696Y0123467D01*
X0089754Y0158788D02*
X0089754Y0160988D01*
X0090365Y0160988D01*
X0090413Y0160986D01*
X0090461Y0160980D01*
X0090508Y0160971D01*
X0090554Y0160958D01*
X0090599Y0160941D01*
X0090642Y0160921D01*
X0090684Y0160898D01*
X0090724Y0160871D01*
X0090762Y0160842D01*
X0090797Y0160809D01*
X0090830Y0160774D01*
X0090859Y0160736D01*
X0090886Y0160696D01*
X0090909Y0160654D01*
X0090929Y0160611D01*
X0090946Y0160566D01*
X0090959Y0160520D01*
X0090968Y0160473D01*
X0090974Y0160425D01*
X0090976Y0160377D01*
X0090974Y0160329D01*
X0090968Y0160281D01*
X0090959Y0160234D01*
X0090946Y0160188D01*
X0090929Y0160143D01*
X0090909Y0160100D01*
X0090886Y0160058D01*
X0090859Y0160018D01*
X0090830Y0159980D01*
X0090797Y0159945D01*
X0090762Y0159912D01*
X0090724Y0159883D01*
X0090684Y0159856D01*
X0090642Y0159833D01*
X0090599Y0159813D01*
X0090554Y0159796D01*
X0090508Y0159783D01*
X0090461Y0159774D01*
X0090413Y0159768D01*
X0090365Y0159766D01*
X0089754Y0159766D01*
X0090487Y0159766D02*
X0090976Y0158788D01*
X0091899Y0158788D02*
X0093122Y0158788D01*
X0092511Y0158788D02*
X0092511Y0160988D01*
X0091899Y0160499D01*
X0097757Y0160459D02*
X0097757Y0162659D01*
X0098368Y0162659D01*
X0098416Y0162657D01*
X0098464Y0162651D01*
X0098511Y0162642D01*
X0098557Y0162629D01*
X0098602Y0162612D01*
X0098645Y0162592D01*
X0098687Y0162569D01*
X0098727Y0162542D01*
X0098765Y0162513D01*
X0098800Y0162480D01*
X0098833Y0162445D01*
X0098862Y0162407D01*
X0098889Y0162367D01*
X0098912Y0162325D01*
X0098932Y0162282D01*
X0098949Y0162237D01*
X0098962Y0162191D01*
X0098971Y0162144D01*
X0098977Y0162096D01*
X0098979Y0162048D01*
X0098977Y0162000D01*
X0098971Y0161952D01*
X0098962Y0161905D01*
X0098949Y0161859D01*
X0098932Y0161814D01*
X0098912Y0161771D01*
X0098889Y0161729D01*
X0098862Y0161689D01*
X0098833Y0161651D01*
X0098800Y0161616D01*
X0098765Y0161583D01*
X0098727Y0161554D01*
X0098687Y0161527D01*
X0098645Y0161504D01*
X0098602Y0161484D01*
X0098557Y0161467D01*
X0098511Y0161454D01*
X0098464Y0161445D01*
X0098416Y0161439D01*
X0098368Y0161437D01*
X0097757Y0161437D01*
X0098490Y0161437D02*
X0098979Y0160459D01*
X0099903Y0160459D02*
X0101125Y0160459D01*
X0100514Y0160459D02*
X0100514Y0162659D01*
X0099903Y0162170D01*
X0103285Y0161559D02*
X0103283Y0161477D01*
X0103278Y0161395D01*
X0103268Y0161313D01*
X0103255Y0161232D01*
X0103239Y0161151D01*
X0103218Y0161072D01*
X0103194Y0160993D01*
X0103167Y0160915D01*
X0103136Y0160839D01*
X0103102Y0160765D01*
X0103102Y0160764D02*
X0103087Y0160727D01*
X0103069Y0160691D01*
X0103048Y0160657D01*
X0103024Y0160625D01*
X0102997Y0160595D01*
X0102968Y0160568D01*
X0102937Y0160543D01*
X0102903Y0160521D01*
X0102868Y0160503D01*
X0102831Y0160487D01*
X0102793Y0160475D01*
X0102754Y0160466D01*
X0102714Y0160461D01*
X0102674Y0160459D01*
X0102634Y0160461D01*
X0102594Y0160466D01*
X0102555Y0160475D01*
X0102517Y0160487D01*
X0102480Y0160503D01*
X0102445Y0160521D01*
X0102411Y0160543D01*
X0102380Y0160568D01*
X0102351Y0160595D01*
X0102324Y0160625D01*
X0102300Y0160657D01*
X0102279Y0160691D01*
X0102261Y0160727D01*
X0102246Y0160764D01*
X0102185Y0160948D02*
X0103163Y0162170D01*
X0103102Y0162354D02*
X0103087Y0162391D01*
X0103069Y0162427D01*
X0103048Y0162461D01*
X0103024Y0162493D01*
X0102997Y0162523D01*
X0102968Y0162550D01*
X0102937Y0162575D01*
X0102903Y0162597D01*
X0102868Y0162615D01*
X0102831Y0162631D01*
X0102793Y0162643D01*
X0102754Y0162652D01*
X0102714Y0162657D01*
X0102674Y0162659D01*
X0102634Y0162657D01*
X0102594Y0162652D01*
X0102555Y0162643D01*
X0102517Y0162631D01*
X0102480Y0162615D01*
X0102445Y0162597D01*
X0102411Y0162575D01*
X0102380Y0162550D01*
X0102351Y0162523D01*
X0102324Y0162493D01*
X0102300Y0162461D01*
X0102279Y0162427D01*
X0102261Y0162391D01*
X0102246Y0162354D01*
X0103102Y0162353D02*
X0103136Y0162279D01*
X0103167Y0162203D01*
X0103194Y0162125D01*
X0103218Y0162046D01*
X0103239Y0161967D01*
X0103255Y0161886D01*
X0103268Y0161805D01*
X0103278Y0161723D01*
X0103283Y0161641D01*
X0103285Y0161559D01*
X0102063Y0161559D02*
X0102065Y0161641D01*
X0102070Y0161723D01*
X0102080Y0161805D01*
X0102093Y0161886D01*
X0102109Y0161967D01*
X0102130Y0162046D01*
X0102154Y0162125D01*
X0102181Y0162203D01*
X0102212Y0162279D01*
X0102246Y0162353D01*
X0102063Y0161559D02*
X0102065Y0161477D01*
X0102070Y0161395D01*
X0102080Y0161313D01*
X0102093Y0161232D01*
X0102109Y0161151D01*
X0102130Y0161072D01*
X0102154Y0160993D01*
X0102181Y0160915D01*
X0102212Y0160839D01*
X0102246Y0160765D01*
X0189577Y0161466D02*
X0189577Y0162230D01*
X0189577Y0161466D02*
X0192330Y0161466D01*
X0191106Y0161466D02*
X0191106Y0162230D01*
X0191106Y0162383D02*
X0192330Y0162995D01*
X0191718Y0164196D02*
X0190189Y0164196D01*
X0190141Y0164198D01*
X0190093Y0164204D01*
X0190046Y0164213D01*
X0190000Y0164226D01*
X0189955Y0164243D01*
X0189911Y0164263D01*
X0189869Y0164286D01*
X0189829Y0164313D01*
X0189792Y0164343D01*
X0189756Y0164375D01*
X0189724Y0164411D01*
X0189694Y0164448D01*
X0189667Y0164488D01*
X0189644Y0164530D01*
X0189624Y0164574D01*
X0189607Y0164619D01*
X0189594Y0164665D01*
X0189585Y0164712D01*
X0189579Y0164760D01*
X0189577Y0164808D01*
X0189577Y0165725D01*
X0190800Y0165725D02*
X0192330Y0165725D01*
X0192330Y0164808D01*
X0192328Y0164760D01*
X0192322Y0164712D01*
X0192313Y0164665D01*
X0192300Y0164619D01*
X0192283Y0164574D01*
X0192263Y0164530D01*
X0192240Y0164488D01*
X0192213Y0164448D01*
X0192183Y0164411D01*
X0192151Y0164375D01*
X0192115Y0164343D01*
X0192078Y0164313D01*
X0192038Y0164286D01*
X0191996Y0164263D01*
X0191952Y0164243D01*
X0191907Y0164226D01*
X0191861Y0164213D01*
X0191814Y0164204D01*
X0191766Y0164198D01*
X0191718Y0164196D01*
X0190800Y0165266D02*
X0190800Y0165725D01*
X0190800Y0167031D02*
X0190800Y0168560D01*
X0189577Y0168560D02*
X0192330Y0168560D01*
X0192330Y0167031D02*
X0189577Y0167031D01*
X0189577Y0162230D02*
X0189579Y0162285D01*
X0189585Y0162339D01*
X0189594Y0162393D01*
X0189608Y0162446D01*
X0189625Y0162497D01*
X0189646Y0162548D01*
X0189671Y0162597D01*
X0189698Y0162644D01*
X0189730Y0162688D01*
X0189764Y0162731D01*
X0189801Y0162771D01*
X0189841Y0162808D01*
X0189884Y0162842D01*
X0189928Y0162874D01*
X0189975Y0162901D01*
X0190024Y0162926D01*
X0190075Y0162947D01*
X0190126Y0162964D01*
X0190179Y0162978D01*
X0190233Y0162987D01*
X0190287Y0162993D01*
X0190342Y0162995D01*
X0190397Y0162993D01*
X0190451Y0162987D01*
X0190505Y0162978D01*
X0190558Y0162964D01*
X0190609Y0162947D01*
X0190660Y0162926D01*
X0190709Y0162901D01*
X0190756Y0162874D01*
X0190800Y0162842D01*
X0190843Y0162808D01*
X0190883Y0162771D01*
X0190920Y0162731D01*
X0190954Y0162688D01*
X0190986Y0162644D01*
X0191013Y0162597D01*
X0191038Y0162548D01*
X0191059Y0162497D01*
X0191076Y0162446D01*
X0191090Y0162393D01*
X0191099Y0162339D01*
X0191105Y0162285D01*
X0191107Y0162230D01*
X0191718Y0156661D02*
X0189577Y0156661D01*
X0189577Y0155021D02*
X0189577Y0153798D01*
X0192330Y0153798D01*
X0192330Y0155021D01*
X0192330Y0155743D02*
X0192330Y0156049D01*
X0192328Y0156097D01*
X0192322Y0156145D01*
X0192313Y0156192D01*
X0192300Y0156238D01*
X0192283Y0156283D01*
X0192263Y0156327D01*
X0192240Y0156369D01*
X0192213Y0156409D01*
X0192183Y0156446D01*
X0192151Y0156482D01*
X0192115Y0156514D01*
X0192078Y0156544D01*
X0192038Y0156571D01*
X0191996Y0156594D01*
X0191952Y0156614D01*
X0191907Y0156631D01*
X0191861Y0156644D01*
X0191814Y0156653D01*
X0191766Y0156659D01*
X0191718Y0156661D01*
X0190800Y0154715D02*
X0190800Y0153798D01*
X0190342Y0150121D02*
X0191565Y0150121D01*
X0191620Y0150119D01*
X0191674Y0150113D01*
X0191728Y0150104D01*
X0191781Y0150090D01*
X0191832Y0150073D01*
X0191883Y0150052D01*
X0191932Y0150027D01*
X0191979Y0150000D01*
X0192023Y0149968D01*
X0192066Y0149934D01*
X0192106Y0149897D01*
X0192143Y0149857D01*
X0192177Y0149814D01*
X0192209Y0149770D01*
X0192236Y0149723D01*
X0192261Y0149674D01*
X0192282Y0149623D01*
X0192299Y0149572D01*
X0192313Y0149519D01*
X0192322Y0149465D01*
X0192328Y0149411D01*
X0192330Y0149356D01*
X0192330Y0148591D01*
X0189577Y0148591D01*
X0189577Y0149356D01*
X0189579Y0149411D01*
X0189585Y0149465D01*
X0189594Y0149519D01*
X0189608Y0149572D01*
X0189625Y0149623D01*
X0189646Y0149674D01*
X0189671Y0149723D01*
X0189698Y0149770D01*
X0189730Y0149814D01*
X0189764Y0149857D01*
X0189801Y0149897D01*
X0189841Y0149934D01*
X0189884Y0149968D01*
X0189928Y0150000D01*
X0189975Y0150027D01*
X0190024Y0150052D01*
X0190075Y0150073D01*
X0190126Y0150090D01*
X0190179Y0150104D01*
X0190233Y0150113D01*
X0190287Y0150119D01*
X0190342Y0150121D01*
X0189577Y0147286D02*
X0192330Y0147286D01*
X0189577Y0145757D01*
X0192330Y0145757D01*
X0192330Y0144451D02*
X0190800Y0144451D01*
X0190800Y0143992D01*
X0190189Y0142922D02*
X0190141Y0142924D01*
X0190093Y0142930D01*
X0190046Y0142939D01*
X0190000Y0142952D01*
X0189955Y0142969D01*
X0189911Y0142989D01*
X0189869Y0143012D01*
X0189829Y0143039D01*
X0189792Y0143069D01*
X0189756Y0143101D01*
X0189724Y0143137D01*
X0189694Y0143174D01*
X0189667Y0143214D01*
X0189644Y0143256D01*
X0189624Y0143300D01*
X0189607Y0143345D01*
X0189594Y0143391D01*
X0189585Y0143438D01*
X0189579Y0143486D01*
X0189577Y0143534D01*
X0189577Y0144451D01*
X0190189Y0142922D02*
X0191718Y0142922D01*
X0191766Y0142924D01*
X0191814Y0142930D01*
X0191861Y0142939D01*
X0191907Y0142952D01*
X0191952Y0142969D01*
X0191996Y0142989D01*
X0192038Y0143012D01*
X0192078Y0143039D01*
X0192115Y0143069D01*
X0192151Y0143101D01*
X0192183Y0143137D01*
X0192213Y0143174D01*
X0192240Y0143214D01*
X0192263Y0143256D01*
X0192283Y0143300D01*
X0192300Y0143345D01*
X0192313Y0143391D01*
X0192322Y0143438D01*
X0192328Y0143486D01*
X0192330Y0143534D01*
X0192330Y0144451D01*
X0192330Y0138302D02*
X0192330Y0137690D01*
X0192328Y0137642D01*
X0192322Y0137594D01*
X0192313Y0137547D01*
X0192300Y0137501D01*
X0192283Y0137456D01*
X0192263Y0137412D01*
X0192240Y0137370D01*
X0192213Y0137330D01*
X0192183Y0137293D01*
X0192151Y0137257D01*
X0192115Y0137225D01*
X0192078Y0137195D01*
X0192038Y0137168D01*
X0191996Y0137145D01*
X0191952Y0137125D01*
X0191907Y0137108D01*
X0191861Y0137095D01*
X0191814Y0137086D01*
X0191766Y0137080D01*
X0191718Y0137078D01*
X0191718Y0137079D02*
X0190189Y0137079D01*
X0190189Y0137078D02*
X0190141Y0137080D01*
X0190093Y0137086D01*
X0190046Y0137095D01*
X0190000Y0137108D01*
X0189955Y0137125D01*
X0189911Y0137145D01*
X0189869Y0137168D01*
X0189829Y0137195D01*
X0189792Y0137225D01*
X0189756Y0137257D01*
X0189724Y0137293D01*
X0189694Y0137330D01*
X0189667Y0137370D01*
X0189644Y0137412D01*
X0189624Y0137456D01*
X0189607Y0137501D01*
X0189594Y0137547D01*
X0189585Y0137594D01*
X0189579Y0137642D01*
X0189577Y0137690D01*
X0189577Y0138302D01*
X0189577Y0136088D02*
X0189577Y0135476D01*
X0189579Y0135428D01*
X0189585Y0135380D01*
X0189594Y0135333D01*
X0189607Y0135287D01*
X0189624Y0135242D01*
X0189644Y0135198D01*
X0189667Y0135156D01*
X0189694Y0135116D01*
X0189724Y0135079D01*
X0189756Y0135043D01*
X0189792Y0135011D01*
X0189829Y0134981D01*
X0189869Y0134954D01*
X0189911Y0134931D01*
X0189955Y0134911D01*
X0190000Y0134894D01*
X0190046Y0134881D01*
X0190093Y0134872D01*
X0190141Y0134866D01*
X0190189Y0134864D01*
X0191718Y0134864D01*
X0191766Y0134866D01*
X0191814Y0134872D01*
X0191861Y0134881D01*
X0191907Y0134894D01*
X0191952Y0134911D01*
X0191996Y0134931D01*
X0192038Y0134954D01*
X0192078Y0134981D01*
X0192115Y0135011D01*
X0192151Y0135043D01*
X0192183Y0135079D01*
X0192213Y0135116D01*
X0192240Y0135156D01*
X0192263Y0135198D01*
X0192283Y0135242D01*
X0192300Y0135287D01*
X0192313Y0135333D01*
X0192322Y0135380D01*
X0192328Y0135428D01*
X0192330Y0135476D01*
X0192330Y0136088D01*
X0192330Y0132978D02*
X0189577Y0133896D01*
X0189577Y0132061D02*
X0192330Y0132978D01*
X0192330Y0171998D02*
X0189577Y0171998D01*
X0189577Y0172762D01*
X0189579Y0172817D01*
X0189585Y0172871D01*
X0189594Y0172925D01*
X0189608Y0172978D01*
X0189625Y0173029D01*
X0189646Y0173080D01*
X0189671Y0173129D01*
X0189698Y0173176D01*
X0189730Y0173220D01*
X0189764Y0173263D01*
X0189801Y0173303D01*
X0189841Y0173340D01*
X0189884Y0173374D01*
X0189928Y0173406D01*
X0189975Y0173433D01*
X0190024Y0173458D01*
X0190075Y0173479D01*
X0190126Y0173496D01*
X0190179Y0173510D01*
X0190233Y0173519D01*
X0190287Y0173525D01*
X0190342Y0173527D01*
X0190397Y0173525D01*
X0190451Y0173519D01*
X0190505Y0173510D01*
X0190558Y0173496D01*
X0190609Y0173479D01*
X0190660Y0173458D01*
X0190709Y0173433D01*
X0190756Y0173406D01*
X0190800Y0173374D01*
X0190843Y0173340D01*
X0190883Y0173303D01*
X0190920Y0173263D01*
X0190954Y0173220D01*
X0190986Y0173176D01*
X0191013Y0173129D01*
X0191038Y0173080D01*
X0191059Y0173029D01*
X0191076Y0172978D01*
X0191090Y0172925D01*
X0191099Y0172871D01*
X0191105Y0172817D01*
X0191107Y0172762D01*
X0191106Y0172762D02*
X0191106Y0171998D01*
X0189577Y0174426D02*
X0192330Y0175037D01*
X0190495Y0175649D01*
X0192330Y0176261D01*
X0189577Y0176873D01*
X0189577Y0178001D02*
X0189577Y0178765D01*
X0189577Y0178001D02*
X0192330Y0178001D01*
X0191106Y0178001D02*
X0191106Y0178765D01*
X0191106Y0178918D02*
X0192330Y0179530D01*
X0191107Y0178765D02*
X0191105Y0178820D01*
X0191099Y0178874D01*
X0191090Y0178928D01*
X0191076Y0178981D01*
X0191059Y0179032D01*
X0191038Y0179083D01*
X0191013Y0179132D01*
X0190986Y0179179D01*
X0190954Y0179223D01*
X0190920Y0179266D01*
X0190883Y0179306D01*
X0190843Y0179343D01*
X0190800Y0179377D01*
X0190756Y0179409D01*
X0190709Y0179436D01*
X0190660Y0179461D01*
X0190609Y0179482D01*
X0190558Y0179499D01*
X0190505Y0179513D01*
X0190451Y0179522D01*
X0190397Y0179528D01*
X0190342Y0179530D01*
X0190287Y0179528D01*
X0190233Y0179522D01*
X0190179Y0179513D01*
X0190126Y0179499D01*
X0190075Y0179482D01*
X0190024Y0179461D01*
X0189975Y0179436D01*
X0189928Y0179409D01*
X0189884Y0179377D01*
X0189841Y0179343D01*
X0189801Y0179306D01*
X0189764Y0179266D01*
X0189730Y0179223D01*
X0189698Y0179179D01*
X0189671Y0179132D01*
X0189646Y0179083D01*
X0189625Y0179032D01*
X0189608Y0178981D01*
X0189594Y0178928D01*
X0189585Y0178874D01*
X0189579Y0178820D01*
X0189577Y0178765D01*
D244*
X0166942Y0134911D02*
X0157503Y0134911D01*
X0166942Y0134911D02*
X0166942Y0115830D01*
X0159821Y0103423D02*
X0141322Y0103423D01*
X0134334Y0115920D02*
X0134334Y0135001D01*
X0143773Y0135001D01*
M02*
