%
M48
M72
T01C0.00787
T02C0.01378
%
T01
X68194Y125278
X59436Y134687
X52920Y146820
X39881Y153737
X48077Y177757
X89972Y141713
X89515Y136002
X93091Y131110
X99082Y131307
X103013Y145769
X124472Y151215
X128317Y147464
X161654Y151682
X164307Y151666
X177688Y151655
X180342Y151640
T02
X74113Y142472
X77967Y142472
X77967Y146355
X74113Y146355
X82420Y157893
X40117Y159048
M30
